<svg width="16" height="16" viewBox="0 0 16 16" fill="none" xmlns="http://www.w3.org/2000/svg">
<rect x="7" y="2" width="1" height="3" fill="#FFD500"/>
<rect width="1" height="3" transform="matrix(1 0 0 -1 7 14)" fill="#FFD500"/>
<rect width="1" height="3" transform="matrix(-1 0 0 1 9 2)" fill="#FFD500"/>
<rect x="9" y="14" width="1" height="3" transform="rotate(180 9 14)" fill="#FFD500"/>
<rect x="5" y="2" width="2" height="1" fill="#FFD500"/>
<rect width="2" height="1" transform="matrix(1 0 0 -1 5 14)" fill="#FFD500"/>
<rect width="2" height="1" transform="matrix(-1 0 0 1 11 2)" fill="#FFD500"/>
<rect x="11" y="14" width="2" height="1" transform="rotate(180 11 14)" fill="#FFD500"/>
<rect x="5" y="2" width="1" height="4" fill="#FFD500"/>
<rect width="1" height="4" transform="matrix(1 0 0 -1 5 14)" fill="#FFD500"/>
<rect width="1" height="4" transform="matrix(-1 0 0 1 11 2)" fill="#FFD500"/>
<rect x="11" y="14" width="1" height="4" transform="rotate(180 11 14)" fill="#FFD500"/>
<rect x="4" y="4" width="1" height="2" fill="#FFD500"/>
<rect width="1" height="2" transform="matrix(1 0 0 -1 4 12)" fill="#FFD500"/>
<rect width="1" height="2" transform="matrix(-1 0 0 1 12 4)" fill="#FFD500"/>
<rect x="12" y="12" width="1" height="2" transform="rotate(180 12 12)" fill="#FFD500"/>
<rect x="2" y="5" width="1" height="3" fill="#FFD500"/>
<rect width="1" height="3" transform="matrix(1 0 0 -1 2 11)" fill="#FFD500"/>
<rect width="1" height="3" transform="matrix(-1 0 0 1 14 5)" fill="#FFD500"/>
<rect x="14" y="11" width="1" height="3" transform="rotate(180 14 11)" fill="#FFD500"/>
<rect x="3" y="5" width="1" height="1" fill="#FFD500"/>
<rect width="1" height="1" transform="matrix(1 0 0 -1 3 11)" fill="#FFD500"/>
<rect width="1" height="1" transform="matrix(-1 0 0 1 13 5)" fill="#FFD500"/>
<rect x="13" y="11" width="1" height="1" transform="rotate(180 13 11)" fill="#FFD500"/>
<rect x="2" y="3" width="1" height="1" fill="#FFD500"/>
<rect width="1" height="1" transform="matrix(1 0 0 -1 2 13)" fill="#FFD500"/>
<rect width="1" height="1" transform="matrix(-1 0 0 1 14 3)" fill="#FFD500"/>
<rect x="14" y="13" width="1" height="1" transform="rotate(180 14 13)" fill="#FFD500"/>
<rect x="3" y="2" width="1" height="1" fill="#FFD500"/>
<rect width="1" height="1" transform="matrix(1 0 0 -1 3 14)" fill="#FFD500"/>
<rect width="1" height="1" transform="matrix(-1 0 0 1 13 2)" fill="#FFD500"/>
<rect x="13" y="14" width="1" height="1" transform="rotate(180 13 14)" fill="#FFD500"/>
<rect x="2" y="1" width="1" height="1" fill="#FFD500"/>
<rect width="1" height="1" transform="matrix(1 0 0 -1 2 15)" fill="#FFD500"/>
<rect width="1" height="1" transform="matrix(-1 0 0 1 14 1)" fill="#FFD500"/>
<rect x="14" y="15" width="1" height="1" transform="rotate(180 14 15)" fill="#FFD500"/>
<rect x="1" y="2" width="1" height="1" fill="#FFD500"/>
<rect width="1" height="1" transform="matrix(1 0 0 -1 1 14)" fill="#FFD500"/>
<rect width="1" height="1" transform="matrix(-1 0 0 1 15 2)" fill="#FFD500"/>
<rect x="15" y="14" width="1" height="1" transform="rotate(180 15 14)" fill="#FFD500"/>
<rect x="1" y="4" width="1" height="1" fill="#124EAD"/>
<rect width="1" height="1" transform="matrix(1 0 0 -1 1 12)" fill="#124EAD"/>
<rect width="1" height="1" transform="matrix(-1 0 0 1 15 4)" fill="#124EAD"/>
<rect x="15" y="12" width="1" height="1" transform="rotate(180 15 12)" fill="#124EAD"/>
<rect y="3" width="1" height="1" fill="#124EAD"/>
<rect width="1" height="1" transform="matrix(1 0 0 -1 0 13)" fill="#124EAD"/>
<rect width="1" height="1" transform="matrix(-1 0 0 1 16 3)" fill="#124EAD"/>
<rect x="16" y="13" width="1" height="1" transform="rotate(180 16 13)" fill="#124EAD"/>
<rect x="1" y="1" width="1" height="1" fill="#124EAD"/>
<rect width="1" height="1" transform="matrix(1 0 0 -1 1 15)" fill="#124EAD"/>
<rect width="1" height="1" transform="matrix(-1 0 0 1 15 1)" fill="#124EAD"/>
<rect x="15" y="15" width="1" height="1" transform="rotate(180 15 15)" fill="#124EAD"/>
<rect x="2" y="2" width="1" height="1" fill="#124EAD"/>
<rect width="1" height="1" transform="matrix(1 0 0 -1 2 14)" fill="#124EAD"/>
<rect width="1" height="1" transform="matrix(-1 0 0 1 14 2)" fill="#124EAD"/>
<rect x="14" y="14" width="1" height="1" transform="rotate(180 14 14)" fill="#124EAD"/>
<rect x="3" y="3" width="1" height="1" fill="#124EAD"/>
<rect width="1" height="1" transform="matrix(1 0 0 -1 3 13)" fill="#124EAD"/>
<rect width="1" height="1" transform="matrix(-1 0 0 1 13 3)" fill="#124EAD"/>
<rect x="13" y="13" width="1" height="1" transform="rotate(180 13 13)" fill="#124EAD"/>
<rect x="4" y="1" width="1" height="1" fill="#124EAD"/>
<rect width="1" height="1" transform="matrix(1 0 0 -1 4 15)" fill="#124EAD"/>
<rect width="1" height="1" transform="matrix(-1 0 0 1 12 1)" fill="#124EAD"/>
<rect x="12" y="15" width="1" height="1" transform="rotate(180 12 15)" fill="#124EAD"/>
<rect x="3" width="1" height="1" fill="#124EAD"/>
<rect width="1" height="1" transform="matrix(1 0 0 -1 3 16)" fill="#124EAD"/>
<rect width="1" height="1" transform="matrix(-1 0 0 1 13 0)" fill="#124EAD"/>
<rect x="13" y="16" width="1" height="1" transform="rotate(180 13 16)" fill="#124EAD"/>
<rect x="6" y="4" width="1" height="1" fill="#124EAD"/>
<rect width="1" height="1" transform="matrix(1 0 0 -1 6 12)" fill="#124EAD"/>
<rect width="1" height="1" transform="matrix(-1 0 0 1 10 4)" fill="#124EAD"/>
<rect x="10" y="12" width="1" height="1" transform="rotate(180 10 12)" fill="#124EAD"/>
<rect x="7" y="5" width="1" height="1" fill="#124EAD"/>
<rect width="1" height="1" transform="matrix(1 0 0 -1 7 11)" fill="#124EAD"/>
<rect width="1" height="1" transform="matrix(-1 0 0 1 9 5)" fill="#124EAD"/>
<rect x="9" y="11" width="1" height="1" transform="rotate(180 9 11)" fill="#124EAD"/>
<rect x="6" y="6" width="1" height="1" fill="#124EAD"/>
<rect width="1" height="1" transform="matrix(1 0 0 -1 6 10)" fill="#124EAD"/>
<rect width="1" height="1" transform="matrix(-1 0 0 1 10 6)" fill="#124EAD"/>
<rect x="10" y="10" width="1" height="1" transform="rotate(180 10 10)" fill="#124EAD"/>
<rect x="5" y="7" width="1" height="1" fill="#124EAD"/>
<rect width="1" height="1" transform="matrix(1 0 0 -1 5 9)" fill="#124EAD"/>
<rect width="1" height="1" transform="matrix(-1 0 0 1 11 7)" fill="#124EAD"/>
<rect x="11" y="9" width="1" height="1" transform="rotate(180 11 9)" fill="#124EAD"/>
<rect x="4" y="6" width="1" height="1" fill="#124EAD"/>
<rect width="1" height="1" transform="matrix(1 0 0 -1 4 10)" fill="#124EAD"/>
<rect width="1" height="1" transform="matrix(-1 0 0 1 12 6)" fill="#124EAD"/>
<rect x="12" y="10" width="1" height="1" transform="rotate(180 12 10)" fill="#124EAD"/>
<rect x="3" y="7" width="2" height="1" fill="#FFD500"/>
<rect width="2" height="1" transform="matrix(1 0 0 -1 3 9)" fill="#FFD500"/>
<rect width="2" height="1" transform="matrix(-1 0 0 1 13 7)" fill="#FFD500"/>
<rect x="13" y="9" width="2" height="1" transform="rotate(180 13 9)" fill="#FFD500"/>
</svg>
