<svg width="19" height="19" viewBox="0 0 19 19" fill="none" xmlns="http://www.w3.org/2000/svg">
<g clip-path="url(#clip0_12_7448)">
<path d="M9.49014 18.5C9.43054 18.5 9.37094 18.5 9.31093 18.4997C7.90001 18.5031 6.59634 18.4673 5.32852 18.3901C4.16617 18.3194 3.10516 17.9177 2.26004 17.2286C1.44458 16.5636 0.887711 15.6645 0.60495 14.5565C0.358856 13.5919 0.34581 12.6451 0.333313 11.7292C0.324249 11.0721 0.314911 10.2934 0.312988 9.5016C0.314911 8.70646 0.324249 7.92781 0.333313 7.27069C0.34581 6.35498 0.358856 5.40809 0.60495 4.44336C0.887711 3.33538 1.44458 2.43629 2.26004 1.77134C3.10516 1.08222 4.16617 0.680537 5.32866 0.609813C6.59648 0.532771 7.90042 0.496791 9.31436 0.500224C10.7257 0.497203 12.0289 0.532771 13.2968 0.609813C14.4591 0.680537 15.5201 1.08222 16.3652 1.77134C17.1808 2.43629 17.7376 3.33538 18.0203 4.44336C18.2664 5.40795 18.2795 6.35498 18.292 7.27069C18.301 7.92781 18.3105 8.70646 18.3123 9.4983V9.5016C18.3105 10.2934 18.301 11.0721 18.292 11.7292C18.2795 12.6449 18.2666 13.5918 18.0203 14.5565C17.7376 15.6645 17.1808 16.5636 16.3652 17.2286C15.5201 17.9177 14.4591 18.3194 13.2968 18.3901C12.0826 18.464 10.8354 18.5 9.49014 18.5ZM9.31093 17.0934C10.6989 17.0967 11.9733 17.0617 13.2113 16.9864C14.0903 16.933 14.8523 16.6478 15.4766 16.1387C16.0536 15.6681 16.4511 15.0188 16.6578 14.2088C16.8627 13.4059 16.8745 12.5437 16.8859 11.71C16.8948 11.0573 16.9041 10.2841 16.9061 9.49995C16.9041 8.71566 16.8948 7.94264 16.8859 7.28991C16.8745 6.45619 16.8627 5.59404 16.6578 4.79094C16.4511 3.98097 16.0536 3.33168 15.4766 2.86105C14.8523 2.35211 14.0903 2.06687 13.2113 2.01345C11.9733 1.93806 10.6989 1.90332 9.31422 1.90634C7.92651 1.90304 6.65196 1.93806 5.41394 2.01345C4.53503 2.06687 3.77299 2.35211 3.1487 2.86105C2.57164 3.33168 2.17421 3.98097 1.96753 4.79094C1.76263 5.59404 1.75082 6.45605 1.73943 7.28991C1.7305 7.94319 1.72116 8.71676 1.71924 9.5016C1.72116 10.283 1.7305 11.0567 1.73943 11.71C1.75082 12.5437 1.76263 13.4059 1.96753 14.2088C2.17421 15.0188 2.57164 15.6681 3.1487 16.1387C3.77299 16.6477 4.53503 16.9329 5.41394 16.9863C6.65196 17.0617 7.92679 17.0969 9.31093 17.0934ZM9.27742 13.8945C6.85439 13.8945 4.88289 11.9231 4.88289 9.49995C4.88289 7.07678 6.85439 5.10542 9.27742 5.10542C11.7006 5.10542 13.672 7.07678 13.672 9.49995C13.672 11.9231 11.7006 13.8945 9.27742 13.8945ZM9.27742 6.51167C7.62975 6.51167 6.28914 7.85228 6.28914 9.49995C6.28914 11.1476 7.62975 12.4882 9.27742 12.4882C10.9252 12.4882 12.2657 11.1476 12.2657 9.49995C12.2657 7.85228 10.9252 6.51167 9.27742 6.51167ZM14.1641 3.69917C13.5817 3.69917 13.1095 4.17131 13.1095 4.75386C13.1095 5.33641 13.5817 5.80854 14.1641 5.80854C14.7467 5.80854 15.2188 5.33641 15.2188 4.75386C15.2188 4.17131 14.7467 3.69917 14.1641 3.69917Z" fill="#0062FF"/>
</g>
<defs>
<clipPath id="clip0_12_7448">
<rect width="18" height="18" fill="white" transform="translate(0.312988 0.5)"/>
</clipPath>
</defs>
</svg>
