<svg width="165" height="112" viewBox="0 0 165 112" fill="none" xmlns="http://www.w3.org/2000/svg">
<g clip-path="url(#clip0_12_7710)">
<path d="M23.595 62.2702V65.3692H7.5V46.7302H11.507V62.2702H23.595ZM57.258 65.2932H52.388L45.2 53.5952L38.05 65.2932H33.18L45.2 46.6812L57.258 65.2932ZM73.004 56.6932V65.2932H68.994V56.6932L59.18 46.7062H64.086L71.235 53.5962L77.906 46.7062H83.259L73.004 56.6932ZM93.11 46.7062H109.166V49.7992H93.11V46.7062ZM109.166 54.4372V57.5372H93.11V54.4372H109.166ZM93.11 65.2932V62.1962H109.166V65.2932H93.11ZM140.361 65.2932H135.904L130.582 57.7102H121.669V54.6112H133.243C133.697 54.6037 134.145 54.5029 134.558 54.3152C134.918 54.1522 135.236 53.9072 135.486 53.6012C135.764 53.2712 135.903 52.8002 135.904 52.1872C135.905 51.5742 135.766 51.1142 135.486 50.8072C135.237 50.4992 134.919 50.2537 134.558 50.0902C134.144 49.9052 133.697 49.8059 133.243 49.7982H121.669V46.7062H133.243C134.387 46.7352 135.516 46.9703 136.577 47.4002C137 47.5912 137.407 47.8162 137.795 48.0702C138.644 48.618 139.287 49.4328 139.622 50.3862C139.826 50.9712 139.924 51.5882 139.911 52.2062C139.911 53.3322 139.676 54.2532 139.206 54.9722C138.792 55.6315 138.253 56.2039 137.62 56.6572C137.112 57.0217 136.548 57.302 135.951 57.4872C135.644 57.5885 135.329 57.6631 135.009 57.7102L140.361 65.2932Z" fill="#676767"/>
<path d="M149.08 53.446H153.292V65.293H157.5V46.5L149.08 53.446Z" fill="black"/>
</g>
<defs>
<clipPath id="clip0_12_7710">
<rect width="150" height="19" fill="white" transform="translate(7.5 46.5)"/>
</clipPath>
</defs>
</svg>
