<svg width="350" height="162" viewBox="0 0 350 162" fill="none" xmlns="http://www.w3.org/2000/svg">
<rect x="91" y="35" width="259" height="127" fill="#0062FF"/>
<path d="M172.891 61.1532C172.891 62.8455 172.598 64.1861 172.012 65.175C171.447 66.164 170.719 66.9112 169.829 67.4167C168.96 67.9222 168.015 68.2518 166.994 68.4056C165.974 68.5375 165.029 68.6034 164.16 68.6034V75.2295H161V56.0765C161.434 55.9447 161.923 55.8348 162.466 55.7469C163.009 55.637 163.541 55.5491 164.062 55.4832C164.605 55.4172 165.116 55.3623 165.594 55.3183C166.071 55.2744 166.473 55.2524 166.799 55.2524C167.668 55.2524 168.471 55.3623 169.21 55.5821C169.97 55.8018 170.622 56.1535 171.165 56.637C171.708 57.0985 172.131 57.7028 172.435 58.4501C172.739 59.1973 172.891 60.0983 172.891 61.1532ZM166.799 57.9226C166.43 57.9226 165.985 57.9226 165.463 57.9226C164.964 57.9226 164.529 57.9446 164.16 57.9885V65.9003H164.942C165.463 65.9003 165.995 65.8673 166.538 65.8014C167.103 65.7135 167.613 65.5157 168.07 65.208C168.526 64.9003 168.895 64.4388 169.177 63.8234C169.481 63.2081 169.633 62.362 169.633 61.2851C169.633 60.7357 169.546 60.2522 169.373 59.8346C169.199 59.4171 168.971 59.0654 168.689 58.7797C168.428 58.494 168.124 58.2852 167.776 58.1534C167.451 57.9995 167.125 57.9226 166.799 57.9226Z" fill="white"/>
<path d="M189.192 64.285C188.975 65.0761 188.638 65.7574 188.182 66.3288C187.748 66.9002 187.226 67.3837 186.618 67.7793C186.032 68.1529 185.37 68.4276 184.631 68.6034C183.893 68.7793 183.111 68.8672 182.285 68.8672C181.699 68.8672 181.08 68.7463 180.428 68.5045C179.777 68.2628 179.18 67.9002 178.637 67.4167C178.115 66.9112 177.681 66.2739 177.333 65.5047C176.986 64.7355 176.812 63.8125 176.812 62.7356C176.812 60.406 177.431 58.5819 178.669 57.2633C179.907 55.9227 181.623 55.2524 183.817 55.2524C185.228 55.2524 186.379 55.5271 187.27 56.0765C188.16 56.604 188.606 57.3732 188.606 58.3841C188.606 59.3511 188.302 60.1643 187.693 60.8236C187.107 61.4609 186.369 61.9774 185.478 62.373C184.588 62.7685 183.632 63.0542 182.611 63.2301C181.612 63.4059 180.689 63.5048 179.842 63.5268C179.842 63.9663 179.94 64.3619 180.135 64.7135C180.331 65.0651 180.58 65.3618 180.884 65.6036C181.189 65.8453 181.514 66.0321 181.862 66.164C182.231 66.2959 182.579 66.3618 182.904 66.3618C183.23 66.3618 183.567 66.3398 183.914 66.2959C184.262 66.2299 184.588 66.12 184.892 65.9662C185.217 65.8124 185.489 65.6036 185.706 65.3399C185.945 65.0761 186.097 64.7245 186.162 64.285H189.192ZM183.849 57.6919C183.328 57.6919 182.828 57.7578 182.351 57.8897C181.873 57.9995 181.449 58.1973 181.08 58.483C180.711 58.7687 180.407 59.1423 180.168 59.6039C179.951 60.0434 179.842 60.6038 179.842 61.2851C181.666 61.1972 183.056 60.9774 184.012 60.6258C184.989 60.2742 185.478 59.6808 185.478 58.8457C185.478 58.56 185.359 58.2962 185.12 58.0545C184.881 57.8127 184.457 57.6919 183.849 57.6919Z" fill="white"/>
<path d="M199.482 60.428V57.9885C199.004 57.9885 198.548 58.1094 198.114 58.3512C197.679 58.5929 197.299 58.9336 196.973 59.3731C196.648 59.8126 196.376 60.3401 196.159 60.9554C195.963 61.5708 195.855 62.2521 195.833 62.9993V68.6034H192.608V56.0436L195.605 55.2854V57.4611H195.931C196.843 56.4502 197.864 55.8018 198.993 55.5161C200.123 55.2304 201.198 55.2854 202.218 55.681V60.428H199.482Z" fill="white"/>
<path d="M217.046 64.285C216.828 65.0761 216.492 65.7574 216.036 66.3288C215.601 66.9002 215.08 67.3837 214.472 67.7793C213.886 68.1529 213.223 68.4276 212.485 68.6034C211.746 68.7793 210.964 68.8672 210.139 68.8672C209.553 68.8672 208.934 68.7463 208.282 68.5045C207.63 68.2628 207.033 67.9002 206.49 67.4167C205.969 66.9112 205.534 66.2739 205.187 65.5047C204.839 64.7355 204.666 63.8125 204.666 62.7356C204.666 60.406 205.285 58.5819 206.523 57.2633C207.761 55.9227 209.477 55.2524 211.67 55.2524C213.082 55.2524 214.233 55.5271 215.123 56.0765C216.014 56.604 216.459 57.3732 216.459 58.3841C216.459 59.3511 216.155 60.1643 215.547 60.8236C214.961 61.4609 214.222 61.9774 213.332 62.373C212.441 62.7685 211.486 63.0542 210.465 63.2301C209.466 63.4059 208.543 63.5048 207.696 63.5268C207.696 63.9663 207.793 64.3619 207.989 64.7135C208.184 65.0651 208.434 65.3618 208.738 65.6036C209.042 65.8453 209.368 66.0321 209.715 66.164C210.085 66.2959 210.432 66.3618 210.758 66.3618C211.084 66.3618 211.42 66.3398 211.768 66.2959C212.115 66.2299 212.441 66.12 212.745 65.9662C213.071 65.8124 213.343 65.6036 213.56 65.3399C213.799 65.0761 213.951 64.7245 214.016 64.285H217.046ZM211.703 57.6919C211.181 57.6919 210.682 57.7578 210.204 57.8897C209.726 57.9995 209.303 58.1973 208.934 58.483C208.564 58.7687 208.26 59.1423 208.021 59.6039C207.804 60.0434 207.696 60.6038 207.696 61.2851C209.52 61.1972 210.91 60.9774 211.866 60.6258C212.843 60.2742 213.332 59.6808 213.332 58.8457C213.332 58.56 213.212 58.2962 212.973 58.0545C212.734 57.8127 212.311 57.6919 211.703 57.6919Z" fill="white"/>
<path d="M223.654 55.9117C223.806 55.8897 224.034 55.8568 224.338 55.8128C224.642 55.7469 224.957 55.692 225.283 55.648C225.63 55.604 225.978 55.5601 226.326 55.5161C226.695 55.4722 227.021 55.4392 227.303 55.4172C228.063 55.4172 228.715 55.5051 229.258 55.681C229.822 55.8568 230.278 56.1535 230.626 56.571C230.995 56.9886 231.267 57.538 231.44 58.2193C231.614 58.9006 231.701 59.7467 231.701 60.7577V68.6034H228.541V60.7577C228.541 59.7467 228.345 59.0544 227.954 58.6808C227.563 58.2852 227.107 58.0874 226.586 58.0874C226.456 58.0874 226.271 58.0984 226.032 58.1204C225.815 58.1204 225.565 58.1424 225.283 58.1863C225.022 58.2083 224.74 58.2413 224.436 58.2852C224.154 58.3292 223.893 58.3731 223.654 58.4171V68.6034H220.461V48.956L223.654 48V55.9117Z" fill="white"/>
<path d="M242.964 60.428V57.9885C242.487 57.9885 242.03 58.1094 241.596 58.3512C241.162 58.5929 240.782 58.9336 240.456 59.3731C240.13 59.8126 239.858 60.3401 239.641 60.9554C239.446 61.5708 239.337 62.2521 239.316 62.9993V68.6034H236.09V56.0436L239.087 55.2854V57.4611H239.413C240.325 56.4502 241.346 55.8018 242.476 55.5161C243.605 55.2304 244.68 55.2854 245.701 55.681V60.428H242.964Z" fill="white"/>
<path d="M260.528 64.285C260.311 65.0761 259.974 65.7574 259.518 66.3288C259.084 66.9002 258.563 67.3837 257.954 67.7793C257.368 68.1529 256.706 68.4276 255.967 68.6034C255.229 68.7793 254.447 68.8672 253.621 68.8672C253.035 68.8672 252.416 68.7463 251.764 68.5045C251.113 68.2628 250.516 67.9002 249.973 67.4167C249.451 66.9112 249.017 66.2739 248.669 65.5047C248.322 64.7355 248.148 63.8125 248.148 62.7356C248.148 60.406 248.767 58.5819 250.005 57.2633C251.243 55.9227 252.959 55.2524 255.153 55.2524C256.564 55.2524 257.715 55.5271 258.606 56.0765C259.496 56.604 259.942 57.3732 259.942 58.3841C259.942 59.3511 259.638 60.1643 259.029 60.8236C258.443 61.4609 257.705 61.9774 256.814 62.373C255.924 62.7685 254.968 63.0542 253.947 63.2301C252.948 63.4059 252.025 63.5048 251.178 63.5268C251.178 63.9663 251.276 64.3619 251.471 64.7135C251.667 65.0651 251.916 65.3618 252.221 65.6036C252.525 65.8453 252.85 66.0321 253.198 66.164C253.567 66.2959 253.915 66.3618 254.24 66.3618C254.566 66.3618 254.903 66.3398 255.25 66.2959C255.598 66.2299 255.924 66.12 256.228 65.9662C256.553 65.8124 256.825 65.6036 257.042 65.3399C257.281 65.0761 257.433 64.7245 257.498 64.285H260.528ZM255.185 57.6919C254.664 57.6919 254.164 57.7578 253.687 57.8897C253.209 57.9995 252.785 58.1973 252.416 58.483C252.047 58.7687 251.743 59.1423 251.504 59.6039C251.287 60.0434 251.178 60.6038 251.178 61.2851C253.002 61.1972 254.392 60.9774 255.348 60.6258C256.325 60.2742 256.814 59.6808 256.814 58.8457C256.814 58.56 256.695 58.2962 256.456 58.0545C256.217 57.8127 255.793 57.6919 255.185 57.6919Z" fill="white"/>
<path d="M273.033 58.7138C272.599 58.5599 272.154 58.4281 271.698 58.3182C271.307 58.2083 270.861 58.1204 270.362 58.0545C269.862 57.9666 269.363 57.9226 268.863 57.9226C268.233 57.9226 267.669 58.0435 267.169 58.2852C266.691 58.527 266.452 58.8347 266.452 59.2083C266.452 59.428 266.518 59.6148 266.648 59.7687C266.8 59.9005 266.995 60.0214 267.234 60.1313C267.473 60.2412 267.745 60.3401 268.049 60.428C268.353 60.5159 268.668 60.5928 268.993 60.6588C269.493 60.7906 270.003 60.9335 270.525 61.0873C271.068 61.2192 271.556 61.417 271.991 61.6807C272.447 61.9444 272.816 62.2851 273.098 62.7026C273.402 63.1202 273.555 63.6696 273.555 64.3509C273.555 65.164 273.37 65.8563 273.001 66.4277C272.653 66.9771 272.186 67.4277 271.6 67.7793C271.035 68.1309 270.394 68.3837 269.678 68.5375C268.961 68.6913 268.244 68.7683 267.527 68.7683C267.18 68.7683 266.756 68.7463 266.257 68.7023C265.779 68.6584 265.323 68.6034 264.889 68.5375C264.367 68.4496 263.835 68.3617 263.292 68.2738L263.325 65.1421C263.759 65.3179 264.248 65.4717 264.791 65.6036C265.247 65.7135 265.768 65.8234 266.355 65.9332C266.963 66.0211 267.593 66.0651 268.244 66.0651C268.765 66.0651 269.232 65.9772 269.645 65.8014C270.058 65.6036 270.264 65.2519 270.264 64.7465C270.264 64.4828 270.177 64.263 270.003 64.0872C269.83 63.9114 269.612 63.7685 269.352 63.6586C269.091 63.5487 268.798 63.4498 268.472 63.3619C268.146 63.274 267.821 63.1971 267.495 63.1312C266.995 62.9993 266.496 62.8674 265.996 62.7356C265.518 62.5817 265.073 62.373 264.661 62.1092C264.248 61.8455 263.911 61.4939 263.651 61.0543C263.412 60.6148 263.292 60.0434 263.292 59.3401C263.292 58.5709 263.444 57.9336 263.748 57.4281C264.052 56.9007 264.454 56.4831 264.954 56.1754C265.475 55.8458 266.051 55.615 266.68 55.4832C267.332 55.3293 267.984 55.2524 268.635 55.2524C268.961 55.2524 269.363 55.2854 269.841 55.3513C270.34 55.3953 270.829 55.4392 271.307 55.4832C271.871 55.5491 272.447 55.615 273.033 55.681V58.7138Z" fill="white"/>
<path d="M275.355 57.2303L280.079 52.4503H280.894V55.4172H284.314V57.7578H280.894V62.4719C280.894 63.329 280.937 63.9993 281.024 64.4828C281.133 64.9443 281.317 65.2849 281.578 65.5047C281.838 65.7245 282.175 65.8563 282.588 65.9003C283.022 65.9222 283.565 65.9332 284.217 65.9332V68.6034C283 68.6034 281.98 68.5815 281.154 68.5375C280.329 68.4936 279.656 68.2958 279.134 67.9441C278.635 67.5705 278.266 66.9881 278.027 66.197C277.81 65.4058 277.701 64.263 277.701 62.7685V57.7578H275.355V57.2303Z" fill="white"/>
<path d="M285.619 55.1205C286.336 55.1205 287.009 55.3953 287.639 55.9447C288.269 56.4941 288.844 57.2413 289.365 58.1863C289.887 59.1094 290.343 60.2082 290.734 61.4829C291.125 62.7356 291.45 64.0762 291.711 65.5047H292.037C292.341 64.7575 292.602 63.9114 292.819 62.9663C293.058 61.9994 293.242 61.0543 293.373 60.1313C293.525 59.1863 293.633 58.2962 293.698 57.4611C293.785 56.626 293.829 55.9447 293.829 55.4172H297.021C297.021 56.1425 296.935 57.0325 296.761 58.0874C296.609 59.1204 296.381 60.2082 296.077 61.351C295.794 62.4938 295.447 63.6476 295.034 64.8124C294.621 65.9552 294.176 66.9991 293.698 67.9441C293.199 68.8452 292.667 69.7353 292.102 70.6143C291.537 71.4934 290.94 72.2736 290.31 72.9549C289.68 73.6362 289.018 74.1856 288.323 74.6032C287.628 75.0207 286.911 75.2295 286.173 75.2295V72.1967C286.607 72.1967 287.02 72.0868 287.411 71.867C287.802 71.6692 288.149 71.3945 288.453 71.0429C288.757 70.7132 289.007 70.3396 289.202 69.9221C289.398 69.5045 289.507 69.0869 289.528 68.6694C289.441 67.5485 289.235 66.3948 288.909 65.208C288.605 63.9993 288.247 62.9004 287.834 61.9114C287.443 60.9225 287.041 60.1093 286.629 59.472C286.238 58.8347 285.901 58.516 285.619 58.516V55.1205Z" fill="white"/>
<path d="M309.166 68.6034C309.166 68.2518 309.144 67.8672 309.1 67.4496C309.079 67.0321 309.046 66.7024 309.003 66.4607H308.807C308.177 67.098 307.461 67.6474 306.657 68.109C305.875 68.5485 305.082 68.7683 304.279 68.7683C303.562 68.7683 302.911 68.6584 302.324 68.4386C301.738 68.2188 301.227 67.9222 300.793 67.5485C300.38 67.153 300.054 66.7134 299.816 66.2299C299.577 65.7245 299.457 65.197 299.457 64.6476C299.457 63.9443 299.598 63.3399 299.881 62.8345C300.185 62.307 300.565 61.8675 301.021 61.5159C301.499 61.1642 302.042 60.9115 302.65 60.7577C303.258 60.5818 303.888 60.4939 304.539 60.4939C305.234 60.4939 305.919 60.5928 306.592 60.7906C307.287 60.9884 307.895 61.2961 308.416 61.7136H308.612V60.7247C308.612 59.6698 308.308 58.9336 307.7 58.516C307.091 58.0765 306.396 57.8567 305.615 57.8567C305.289 57.8567 304.833 57.9006 304.246 57.9885C303.66 58.0545 303.084 58.1424 302.52 58.2523C301.846 58.3622 301.14 58.494 300.402 58.6479L300.369 55.681C301.064 55.615 301.716 55.5491 302.324 55.4832C302.845 55.4392 303.377 55.3953 303.92 55.3513C304.463 55.3074 304.909 55.2854 305.256 55.2854C306.103 55.2854 306.885 55.3403 307.602 55.4502C308.34 55.5601 308.981 55.7908 309.524 56.1425C310.067 56.4941 310.491 56.9886 310.795 57.6259C311.099 58.2633 311.251 59.1094 311.251 60.1643C311.251 60.7357 311.175 61.2961 311.023 61.8455C310.871 62.3949 310.653 62.9883 310.371 63.6256C310.523 63.8894 310.697 64.219 310.892 64.6146C311.088 64.9882 311.262 65.3948 311.414 65.8343C311.587 66.2739 311.729 66.7354 311.837 67.2189C311.946 67.6804 312 68.1419 312 68.6034H309.166ZM302.617 64.4828C302.617 64.9882 302.824 65.3838 303.236 65.6695C303.671 65.9552 304.149 66.12 304.67 66.164C304.93 66.164 305.213 66.131 305.517 66.0651C305.843 65.9992 306.168 65.8893 306.494 65.7354C306.82 65.5816 307.124 65.3948 307.406 65.175C307.71 64.9553 307.96 64.6805 308.156 64.3509V64.1861C307.982 63.9663 307.765 63.7575 307.504 63.5597C307.243 63.3399 306.972 63.1641 306.69 63.0323C306.407 62.8784 306.125 62.7576 305.843 62.6697C305.56 62.5817 305.31 62.5378 305.093 62.5378C304.311 62.5378 303.703 62.7026 303.269 63.0323C302.835 63.3619 302.617 63.8454 302.617 64.4828Z" fill="white"/>
<path d="M222.446 137.253C222.236 137.169 221.988 137.1 221.7 137.048C221.35 136.987 221.078 136.957 220.884 136.957C219.586 136.957 218.937 137.815 218.937 139.529C218.937 140.343 219.094 140.966 219.409 141.401C219.728 141.836 220.198 142.053 220.82 142.053C221.352 142.053 221.896 141.935 222.452 141.697V142.585C222.028 142.814 221.492 142.929 220.843 142.929C219.918 142.929 219.201 142.635 218.692 142.047C218.187 141.456 217.934 140.62 217.934 139.541C217.934 138.435 218.191 137.579 218.704 136.975C219.221 136.372 219.955 136.07 220.907 136.07C221.214 136.07 221.548 136.104 221.91 136.172C222.12 136.209 222.299 136.247 222.446 136.287V137.253Z" fill="white"/>
<path d="M228.517 142.808V138.527C228.517 137.988 228.428 137.585 228.249 137.32C228.074 137.054 227.734 136.921 227.229 136.921C226.44 136.961 225.89 137.171 225.579 137.549C225.272 137.927 225.119 138.547 225.119 139.409V142.808H224.151V133.413H225.119V136.317C225.119 136.659 225.103 136.943 225.072 137.169H225.13C225.321 136.851 225.62 136.591 226.028 136.39C226.44 136.184 226.872 136.082 227.322 136.082C228.1 136.082 228.653 136.275 228.984 136.661C229.318 137.044 229.485 137.654 229.485 138.491V142.808H228.517Z" fill="white"/>
<path d="M235.457 139.795C235.441 139.707 235.426 139.618 235.41 139.529C235.399 139.453 235.387 139.372 235.375 139.288C235.368 139.199 235.364 139.121 235.364 139.052V138.431C235.364 138.137 235.321 137.893 235.235 137.7C235.15 137.503 235.035 137.346 234.892 137.229C234.752 137.108 234.588 137.024 234.402 136.975C234.219 136.927 234.027 136.903 233.825 136.903C233.599 136.903 233.393 136.917 233.207 136.945C233.02 136.969 232.842 137.004 232.671 137.048C232.503 137.088 232.338 137.134 232.175 137.187C232.016 137.239 231.851 137.289 231.68 137.338V136.426C231.847 136.378 232.008 136.333 232.163 136.293C232.323 136.249 232.486 136.211 232.653 136.178C232.82 136.146 232.999 136.122 233.189 136.106C233.38 136.086 233.592 136.076 233.825 136.076C234.143 136.076 234.452 136.112 234.752 136.184C235.051 136.253 235.315 136.374 235.544 136.547C235.778 136.716 235.962 136.943 236.098 137.229C236.238 137.511 236.308 137.865 236.308 138.292V142.808H233.982C233.465 142.808 233.028 142.76 232.671 142.663C232.317 142.566 232.029 142.426 231.808 142.24C231.586 142.055 231.425 141.832 231.324 141.57C231.227 141.305 231.178 141.005 231.178 140.671C231.178 140.357 231.231 140.077 231.336 139.831C231.441 139.586 231.588 139.378 231.779 139.209C231.969 139.04 232.195 138.912 232.455 138.823C232.719 138.734 233.009 138.69 233.323 138.69C233.564 138.69 233.778 138.708 233.965 138.744C234.155 138.781 234.33 138.843 234.489 138.932C234.649 139.016 234.802 139.129 234.95 139.27C235.097 139.411 235.251 139.586 235.41 139.795H235.457ZM233.399 139.517C233.014 139.517 232.717 139.616 232.507 139.813C232.297 140.01 232.193 140.292 232.193 140.659C232.193 140.888 232.218 141.087 232.268 141.256C232.323 141.421 232.42 141.558 232.56 141.667C232.7 141.771 232.892 141.85 233.137 141.902C233.382 141.951 233.697 141.975 234.081 141.975H235.37V141.498C235.37 141.192 235.323 140.916 235.23 140.671C235.136 140.425 235.004 140.218 234.833 140.049C234.662 139.876 234.454 139.745 234.21 139.656C233.969 139.564 233.698 139.517 233.399 139.517Z" fill="white"/>
<path d="M241.767 136.981C241.005 137.018 240.426 137.243 240.03 137.658C239.637 138.072 239.441 138.672 239.441 139.457V142.808H238.474V136.19H239.371V137.519H239.465C239.705 136.915 240.036 136.523 240.455 136.341C240.875 136.16 241.312 136.07 241.767 136.07V136.981Z" fill="white"/>
<path d="M243.968 142.808H243V136.19H243.968V142.808ZM242.971 134.361C242.971 134.152 243.012 134.001 243.093 133.908C243.179 133.816 243.293 133.769 243.437 133.769H243.997V134.361C243.997 134.566 243.942 134.717 243.833 134.814C243.729 134.91 243.602 134.959 243.455 134.959H242.971V134.361Z" fill="white"/>
<path d="M248.284 142.071C248.459 142.071 248.624 142.069 248.779 142.065C248.939 142.057 249.065 142.039 249.158 142.011V142.778C249.03 142.802 248.902 142.822 248.774 142.838C248.665 142.854 248.552 142.868 248.436 142.88C248.319 142.893 248.222 142.899 248.144 142.899C246.908 142.899 246.29 142.224 246.29 140.876V136.951H245.369V136.577L246.932 134.959H247.258V136.203H249.158V136.951H247.258V140.834C247.258 141.236 247.349 141.544 247.532 141.757C247.715 141.967 247.965 142.071 248.284 142.071Z" fill="white"/>
<path d="M250.414 144.939C251.009 144.899 251.44 144.515 251.709 143.786L252.064 142.844L249.424 136.19H250.496L251.983 139.964C252.29 140.826 252.47 141.447 252.525 141.83H252.571C252.641 141.625 252.756 141.274 252.915 140.779C253.078 140.28 253.578 138.751 254.413 136.19H255.428L252.735 143.726C252.463 144.47 252.144 144.998 251.779 145.308C251.417 145.622 250.962 145.779 250.414 145.779C250.414 145.779 250.414 145.499 250.414 144.939Z" fill="white"/>
<path d="M262.166 134.331C261.89 134.25 261.647 134.21 261.437 134.21C261.072 134.226 260.802 134.361 260.627 134.615C260.452 134.864 260.365 135.267 260.365 135.822V136.196H261.84V136.981H260.365V142.808H259.397V135.846C259.397 134.22 260.083 133.407 261.455 133.407C261.669 133.391 261.906 133.411 262.166 133.467V134.331Z" fill="white"/>
<path d="M268.371 139.487C268.375 140.566 268.119 141.409 267.602 142.017C267.089 142.621 266.372 142.925 265.451 142.929C264.88 142.929 264.372 142.79 263.929 142.512C263.49 142.234 263.154 141.836 262.921 141.317C262.692 140.797 262.577 140.19 262.577 139.493C262.577 138.414 262.837 137.575 263.358 136.975C263.879 136.372 264.59 136.07 265.492 136.07C266.358 136.066 267.054 136.372 267.579 136.987C268.107 137.603 268.371 138.437 268.371 139.487ZM263.58 139.493C263.58 140.339 263.737 140.983 264.052 141.425C264.367 141.868 264.841 142.089 265.474 142.089C266.104 142.085 266.576 141.864 266.891 141.425C267.209 140.983 267.369 140.336 267.369 139.487C267.369 138.646 267.209 138.008 266.891 137.573C266.572 137.134 266.096 136.917 265.462 136.921C264.829 136.921 264.357 137.136 264.046 137.567C263.735 137.998 263.58 138.64 263.58 139.493Z" fill="white"/>
<path d="M274.576 142.814C274.576 142.391 274.576 142.067 274.576 141.842H274.518C274.328 142.16 274.027 142.422 273.615 142.627C273.207 142.828 272.777 142.929 272.326 142.929C271.549 142.929 270.993 142.738 270.659 142.355C270.329 141.969 270.164 141.357 270.164 140.52V136.203H271.131V140.483C271.131 141.023 271.219 141.425 271.394 141.691C271.572 141.957 271.914 142.089 272.42 142.089C273.209 142.049 273.756 141.84 274.064 141.462C274.374 141.083 274.53 140.463 274.53 139.602V136.203H275.498V142.814H274.576Z" fill="white"/>
<path d="M279.843 136.082C280.092 136.082 280.315 136.108 280.514 136.16C280.716 136.213 280.9 136.291 281.067 136.396C281.234 136.496 281.39 136.623 281.534 136.776C281.681 136.929 281.825 137.108 281.965 137.314H282.012C281.996 137.108 281.984 136.893 281.977 136.667C281.969 136.438 281.965 136.194 281.965 135.937V133.413H282.933V142.802H280.14C279.639 142.802 279.21 142.705 278.852 142.512C278.495 142.315 278.201 142.055 277.972 141.733C277.743 141.411 277.574 141.043 277.465 140.628C277.36 140.214 277.307 139.785 277.307 139.342C277.307 139.081 277.329 138.819 277.372 138.557C277.414 138.292 277.478 138.038 277.564 137.797C277.653 137.555 277.766 137.33 277.902 137.12C278.038 136.911 278.199 136.73 278.386 136.577C278.572 136.424 278.786 136.303 279.027 136.215C279.272 136.126 279.544 136.082 279.843 136.082ZM279.96 136.921C279.657 136.921 279.4 136.989 279.19 137.126C278.984 137.263 278.817 137.442 278.689 137.664C278.561 137.885 278.467 138.139 278.409 138.424C278.351 138.71 278.322 139 278.322 139.294C278.322 139.628 278.353 139.954 278.415 140.272C278.481 140.59 278.586 140.876 278.73 141.129C278.874 141.379 279.06 141.58 279.289 141.733C279.523 141.886 279.806 141.963 280.14 141.963H281.994V139.735C281.994 139.308 281.938 138.922 281.825 138.575C281.716 138.229 281.569 137.933 281.382 137.688C281.196 137.442 280.98 137.253 280.735 137.12C280.49 136.987 280.232 136.921 279.96 136.921Z" fill="white"/>
<path d="M288.998 139.795C288.982 139.707 288.967 139.618 288.951 139.529C288.94 139.453 288.928 139.372 288.916 139.288C288.909 139.199 288.905 139.121 288.905 139.052V138.431C288.905 138.137 288.862 137.893 288.776 137.7C288.691 137.503 288.576 137.346 288.433 137.229C288.293 137.108 288.129 137.024 287.943 136.975C287.76 136.927 287.568 136.903 287.366 136.903C287.14 136.903 286.934 136.917 286.748 136.945C286.561 136.969 286.383 137.004 286.212 137.048C286.044 137.088 285.879 137.134 285.716 137.187C285.557 137.239 285.392 137.289 285.221 137.338V136.426C285.388 136.378 285.549 136.333 285.704 136.293C285.864 136.249 286.027 136.211 286.194 136.178C286.361 136.146 286.54 136.122 286.73 136.106C286.921 136.086 287.133 136.076 287.366 136.076C287.684 136.076 287.993 136.112 288.293 136.184C288.592 136.253 288.856 136.374 289.085 136.547C289.319 136.716 289.503 136.943 289.639 137.229C289.779 137.511 289.849 137.865 289.849 138.292V142.808H287.523C287.006 142.808 286.569 142.76 286.212 142.663C285.858 142.566 285.57 142.426 285.349 142.24C285.127 142.055 284.966 141.832 284.865 141.57C284.768 141.305 284.719 141.005 284.719 140.671C284.719 140.357 284.772 140.077 284.877 139.831C284.982 139.586 285.129 139.378 285.32 139.209C285.51 139.04 285.735 138.912 285.996 138.823C286.26 138.734 286.55 138.69 286.864 138.69C287.105 138.69 287.319 138.708 287.506 138.744C287.696 138.781 287.871 138.843 288.03 138.932C288.19 139.016 288.343 139.129 288.491 139.27C288.638 139.411 288.792 139.586 288.951 139.795H288.998ZM286.94 139.517C286.555 139.517 286.258 139.616 286.048 139.813C285.838 140.01 285.734 140.292 285.734 140.659C285.734 140.888 285.759 141.087 285.809 141.256C285.864 141.421 285.961 141.558 286.101 141.667C286.241 141.771 286.433 141.85 286.678 141.902C286.923 141.951 287.237 141.975 287.622 141.975H288.91V141.498C288.91 141.192 288.864 140.916 288.771 140.671C288.677 140.425 288.545 140.218 288.374 140.049C288.203 139.876 287.995 139.745 287.75 139.656C287.51 139.564 287.239 139.517 286.94 139.517Z" fill="white"/>
<path d="M294.171 142.071C294.346 142.071 294.511 142.069 294.667 142.065C294.826 142.057 294.952 142.039 295.046 142.011V142.778C294.917 142.802 294.789 142.822 294.661 142.838C294.552 142.854 294.439 142.868 294.323 142.88C294.206 142.893 294.109 142.899 294.031 142.899C292.796 142.899 292.178 142.224 292.178 140.876V136.951H291.257V136.577L292.819 134.959H293.145V136.203H295.046V136.951H293.145V140.834C293.145 141.236 293.237 141.544 293.419 141.757C293.602 141.967 293.853 142.071 294.171 142.071Z" fill="white"/>
<path d="M297.24 142.808H296.273V136.19H297.24V142.808ZM296.244 134.361C296.244 134.152 296.284 134.001 296.366 133.908C296.451 133.816 296.566 133.769 296.71 133.769H297.269V134.361C297.269 134.566 297.215 134.717 297.106 134.814C297.001 134.91 296.875 134.959 296.727 134.959H296.244V134.361Z" fill="white"/>
<path d="M304.845 139.487C304.848 140.566 304.592 141.409 304.075 142.017C303.562 142.621 302.845 142.925 301.924 142.929C301.353 142.929 300.846 142.79 300.403 142.512C299.963 142.234 299.627 141.836 299.394 141.317C299.165 140.797 299.05 140.19 299.05 139.493C299.05 138.414 299.311 137.575 299.831 136.975C300.352 136.372 301.063 136.07 301.965 136.07C302.831 136.066 303.527 136.372 304.052 136.987C304.58 137.603 304.845 138.437 304.845 139.487ZM300.053 139.493C300.053 140.339 300.21 140.983 300.525 141.425C300.84 141.868 301.314 142.089 301.947 142.089C302.577 142.085 303.049 141.864 303.364 141.425C303.683 140.983 303.842 140.336 303.842 139.487C303.842 138.646 303.683 138.008 303.364 137.573C303.045 137.134 302.569 136.917 301.936 136.921C301.302 136.921 300.83 137.136 300.519 137.567C300.208 137.998 300.053 138.64 300.053 139.493Z" fill="white"/>
<path d="M307.587 136.196C307.587 136.619 307.587 136.943 307.587 137.169H307.645C307.836 136.851 308.135 136.591 308.543 136.39C308.955 136.184 309.386 136.082 309.837 136.082C310.614 136.082 311.168 136.275 311.499 136.661C311.833 137.044 312 137.654 312 138.491V142.808H311.032V138.527C311.032 137.988 310.943 137.585 310.764 137.32C310.589 137.054 310.249 136.921 309.744 136.921C308.955 136.961 308.405 137.171 308.094 137.549C307.787 137.927 307.634 138.547 307.634 139.409V142.808H306.666V136.196H307.587Z" fill="white"/>
<path d="M161 127.213V78.9426C163.762 78.9426 166.099 79.4737 168.012 80.5357C169.924 81.5978 171.517 82.9519 172.792 84.5981C174.12 86.1912 175.182 87.917 175.979 89.7756C176.829 91.6342 177.573 93.3866 178.21 95.0328C178.848 96.6259 179.458 97.9534 180.043 99.0155C180.68 100.078 181.424 100.609 182.274 100.609C183.177 100.609 183.894 100.078 184.425 99.0155C184.956 97.9534 185.487 96.6259 186.019 95.0328C186.603 93.3866 187.24 91.6342 187.931 89.7756C188.621 87.917 189.577 86.1912 190.799 84.5981C192.021 82.9519 193.535 81.5978 195.341 80.5357C197.2 79.4737 199.564 78.9426 202.432 78.9426V127.213H194.464V103.158C194.464 102.892 194.464 102.069 194.464 100.688C194.517 99.2545 194.597 97.7676 194.703 96.2276C194.81 94.4221 194.916 92.4042 195.022 90.1739H193.747C193.11 91.9794 192.393 93.8911 191.596 95.909C190.799 97.8738 189.923 99.7058 188.967 101.405C188.01 103.104 186.948 104.512 185.779 105.627C184.611 106.742 183.363 107.3 182.035 107.3C180.654 107.3 179.352 106.742 178.131 105.627C176.962 104.512 175.846 103.104 174.784 101.405C173.775 99.7058 172.819 97.8738 171.916 95.909C171.066 93.8911 170.296 91.9794 169.605 90.1739H168.41C168.463 92.3511 168.543 94.3425 168.649 96.148C168.755 97.6879 168.835 99.1748 168.888 100.609C168.941 101.989 168.968 102.839 168.968 103.158V127.213H161Z" fill="white"/>
<path d="M229.856 100.449C231.609 100.396 233.229 100.21 234.717 99.8917C236.257 99.52 237.585 98.989 238.7 98.2986C239.816 97.5552 240.666 96.5728 241.25 95.3514C241.888 94.13 242.206 92.5901 242.206 90.7315C242.206 88.7667 241.516 87.4391 240.135 86.7487C238.807 86.0584 237.24 85.7132 235.434 85.7132C234.531 85.7132 233.521 85.7398 232.406 85.7929C231.291 85.846 230.228 85.8991 229.219 85.9522C228.05 86.0053 226.882 86.0584 225.713 86.1115V127.213H217.586V81.2526C218.595 80.9871 219.817 80.7216 221.251 80.4561C222.685 80.1905 224.226 79.9781 225.872 79.8188C227.519 79.6064 229.219 79.4471 230.972 79.3409C232.725 79.1816 234.424 79.1019 236.071 79.1019C237.983 79.1019 239.789 79.2878 241.489 79.6595C243.242 79.9781 244.756 80.5623 246.031 81.4119C247.359 82.2085 248.394 83.3236 249.138 84.7574C249.935 86.1912 250.333 88.0232 250.333 90.2535C250.333 91.9528 250.041 93.599 249.457 95.1921C248.873 96.7852 248.049 98.219 246.987 99.4934C245.978 100.715 244.756 101.75 243.322 102.6C241.941 103.396 240.427 103.874 238.78 104.034V104.83C240.161 105.945 241.542 107.273 242.923 108.813C244.358 110.353 245.632 112.079 246.748 113.991C247.916 115.902 248.846 117.973 249.536 120.204C250.28 122.434 250.652 124.77 250.652 127.213H242.445C242.445 125.142 242.02 122.938 241.17 120.602C240.374 118.212 239.338 116.008 238.063 113.991C236.788 111.919 235.407 110.22 233.92 108.893C232.486 107.512 231.131 106.822 229.856 106.822V100.449Z" fill="white"/>
<path d="M262.19 127.213V79.4206H270.556V127.213H262.19Z" fill="white"/>
<path d="M291.523 127.213V108.654C290.514 107.273 289.584 105.494 288.734 103.317C287.884 101.087 286.981 98.8827 286.025 96.7055C285.069 94.5283 284.007 92.6166 282.838 90.9704C281.723 89.2711 280.421 88.2887 278.934 88.0232V79.1019C280.899 79.1019 282.679 79.7657 284.272 81.0933C285.866 82.3678 287.327 84.0405 288.655 86.1115C289.983 88.1825 291.204 90.519 292.32 93.1211C293.435 95.67 294.471 98.219 295.427 100.768H296.224C297.658 97.5286 298.986 94.5814 300.208 91.9263C301.43 89.2711 302.625 86.9877 303.793 85.076C305.015 83.1643 306.29 81.704 307.618 80.695C308.946 79.633 310.406 79.1019 312 79.1019V88.0232C310.672 88.3418 309.424 89.3508 308.255 91.0501C307.14 92.7494 306.077 94.6876 305.068 96.8648C304.112 98.989 303.156 101.166 302.2 103.396C301.297 105.574 300.394 107.326 299.491 108.654V127.213H291.523Z" fill="white"/>
<rect width="126" height="126" fill="#FFD500"/>
<path fill-rule="evenodd" clip-rule="evenodd" d="M100.523 83.5784L103.911 86.9673L103.911 88.6616L102.217 88.6617L98.8281 85.2728L98.828 83.5783L100.523 83.5784Z" fill="#124EAD"/>
<path fill-rule="evenodd" clip-rule="evenodd" d="M102.217 83.5784L98.8281 86.9673L98.8282 88.6616L100.523 88.6617L103.911 85.2728L103.911 83.5783L102.217 83.5784Z" fill="#124EAD"/>
<path fill-rule="evenodd" clip-rule="evenodd" d="M100.522 42.9122L103.911 39.5233L103.911 37.829L102.217 37.8289L98.8279 41.2178L98.8278 42.9123L100.522 42.9122Z" fill="#124EAD"/>
<path fill-rule="evenodd" clip-rule="evenodd" d="M102.216 42.9122L98.8276 39.5233L98.8277 37.829L100.522 37.8289L103.911 41.2178L103.911 42.9123L102.216 42.9122Z" fill="#124EAD"/>
<path fill-rule="evenodd" clip-rule="evenodd" d="M25.968 83.5784L22.5791 86.9673L22.5792 88.6616L24.2735 88.6617L27.6624 85.2728L27.6625 83.5783L25.968 83.5784Z" fill="#124EAD"/>
<path fill-rule="evenodd" clip-rule="evenodd" d="M24.2735 83.5784L27.6624 86.9673L27.6623 88.6616L25.9679 88.6617L22.5791 85.2728L22.579 83.5783L24.2735 83.5784Z" fill="#124EAD"/>
<path fill-rule="evenodd" clip-rule="evenodd" d="M25.9675 42.9123L22.5786 39.5234L22.5787 37.8291L24.273 37.829L27.6619 41.2178L27.662 42.9124L25.9675 42.9123Z" fill="#124EAD"/>
<path fill-rule="evenodd" clip-rule="evenodd" d="M24.2733 42.9123L27.6621 39.5234L27.662 37.8291L25.9677 37.829L22.5788 41.2178L22.5787 42.9124L24.2733 42.9123Z" fill="#124EAD"/>
<path fill-rule="evenodd" clip-rule="evenodd" d="M85.2723 98.8283L88.6611 102.217L88.661 103.911L86.9667 103.912L83.5779 100.523L83.5778 98.8282L85.2723 98.8283Z" fill="#124EAD"/>
<path fill-rule="evenodd" clip-rule="evenodd" d="M86.967 98.8283L83.5781 102.217L83.5782 103.911L85.2726 103.912L88.6614 100.523L88.6615 98.8282L86.967 98.8283Z" fill="#124EAD"/>
<path fill-rule="evenodd" clip-rule="evenodd" d="M85.2723 27.6623L88.6611 24.2735L88.661 22.5791L86.9667 22.579L83.5779 25.9679L83.5778 27.6624L85.2723 27.6623Z" fill="#124EAD"/>
<path fill-rule="evenodd" clip-rule="evenodd" d="M86.967 27.6623L83.5781 24.2735L83.5782 22.5791L85.2726 22.579L88.6614 25.9679L88.6615 27.6624L86.967 27.6623Z" fill="#124EAD"/>
<path fill-rule="evenodd" clip-rule="evenodd" d="M41.2177 98.8283L37.8289 102.217L37.829 103.911L39.5233 103.912L42.9121 100.523L42.9122 98.8282L41.2177 98.8283Z" fill="#124EAD"/>
<path fill-rule="evenodd" clip-rule="evenodd" d="M39.5233 98.8283L42.9121 102.217L42.912 103.911L41.2177 103.912L37.8288 100.523L37.8287 98.8282L39.5233 98.8283Z" fill="#124EAD"/>
<path fill-rule="evenodd" clip-rule="evenodd" d="M41.2177 27.6622L37.8289 24.2733L37.829 22.579L39.5233 22.5789L42.9121 25.9678L42.9122 27.6623L41.2177 27.6622Z" fill="#124EAD"/>
<path fill-rule="evenodd" clip-rule="evenodd" d="M39.5233 27.6622L42.9121 24.2733L42.912 22.579L41.2177 22.5789L37.8288 25.9678L37.8287 27.6623L39.5233 27.6622Z" fill="#124EAD"/>
<path fill-rule="evenodd" clip-rule="evenodd" d="M95.4388 93.745L98.8276 97.1339L98.8275 98.8282L97.1332 98.8283L93.7444 95.4395L93.7443 93.7449L95.4388 93.745Z" fill="#124EAD"/>
<path fill-rule="evenodd" clip-rule="evenodd" d="M97.1335 93.745L93.7446 97.1339L93.7447 98.8282L95.4391 98.8283L98.8279 95.4395L98.828 93.7449L97.1335 93.745Z" fill="#124EAD"/>
<path fill-rule="evenodd" clip-rule="evenodd" d="M95.4388 32.7456L98.8276 29.3568L98.8275 27.6624L97.1332 27.6624L93.7444 31.0512L93.7443 32.7457L95.4388 32.7456Z" fill="#124EAD"/>
<path fill-rule="evenodd" clip-rule="evenodd" d="M97.1335 32.7456L93.7446 29.3568L93.7447 27.6624L95.4391 27.6624L98.8279 31.0512L98.828 32.7457L97.1335 32.7456Z" fill="#124EAD"/>
<path fill-rule="evenodd" clip-rule="evenodd" d="M31.0512 93.745L27.6624 97.1339L27.6624 98.8282L29.3568 98.8283L32.7456 95.4395L32.7457 93.7449L31.0512 93.745Z" fill="#124EAD"/>
<path fill-rule="evenodd" clip-rule="evenodd" d="M29.3568 93.745L32.7456 97.1339L32.7455 98.8282L31.0512 98.8283L27.6623 95.4395L27.6622 93.7449L29.3568 93.745Z" fill="#124EAD"/>
<path fill-rule="evenodd" clip-rule="evenodd" d="M31.0512 32.7456L27.6624 29.3567L27.6624 27.6624L29.3568 27.6623L32.7456 31.0511L32.7457 32.7457L31.0512 32.7456Z" fill="#124EAD"/>
<path fill-rule="evenodd" clip-rule="evenodd" d="M29.3568 32.7456L32.7456 29.3567L32.7455 27.6624L31.0512 27.6623L27.6623 31.0511L27.6622 32.7457L29.3568 32.7456Z" fill="#124EAD"/>
<path fill-rule="evenodd" clip-rule="evenodd" d="M90.3558 88.6617L93.7446 92.0505L93.7445 93.7448L92.0502 93.7449L88.6614 90.3561L88.6613 88.6616L90.3558 88.6617Z" fill="#124EAD"/>
<path fill-rule="evenodd" clip-rule="evenodd" d="M92.0502 88.6617L88.6614 92.0505L88.6615 93.7448L90.3558 93.7449L93.7447 90.3561L93.7448 88.6616L92.0502 88.6617Z" fill="#124EAD"/>
<path fill-rule="evenodd" clip-rule="evenodd" d="M90.3558 37.8289L93.7446 34.44L93.7445 32.7457L92.0502 32.7456L88.6614 36.1345L88.6613 37.829L90.3558 37.8289Z" fill="#124EAD"/>
<path fill-rule="evenodd" clip-rule="evenodd" d="M92.0502 37.8289L88.6614 34.44L88.6615 32.7457L90.3558 32.7456L93.7447 36.1345L93.7448 37.829L92.0502 37.8289Z" fill="#124EAD"/>
<path fill-rule="evenodd" clip-rule="evenodd" d="M36.1347 88.6617L32.7458 92.0505L32.7459 93.7448L34.4403 93.7449L37.8291 90.3561L37.8292 88.6616L36.1347 88.6617Z" fill="#124EAD"/>
<path fill-rule="evenodd" clip-rule="evenodd" d="M34.44 88.6617L37.8289 92.0505L37.8288 93.7448L36.1344 93.7449L32.7456 90.3561L32.7455 88.6616L34.44 88.6617Z" fill="#124EAD"/>
<path fill-rule="evenodd" clip-rule="evenodd" d="M36.1345 37.8288L32.7456 34.44L32.7457 32.7456L34.44 32.7455L37.8289 36.1344L37.829 37.8289L36.1345 37.8288Z" fill="#124EAD"/>
<path fill-rule="evenodd" clip-rule="evenodd" d="M34.4398 37.8288L37.8286 34.44L37.8285 32.7456L36.1342 32.7455L32.7453 36.1344L32.7452 37.8289L34.4398 37.8288Z" fill="#124EAD"/>
<path fill-rule="evenodd" clip-rule="evenodd" d="M85.2725 83.5785L88.6614 86.9673L88.6613 88.6616L86.967 88.6617L83.5781 85.2729L83.578 83.5784L85.2725 83.5785Z" fill="#124EAD"/>
<path fill-rule="evenodd" clip-rule="evenodd" d="M86.9672 83.5785L83.5784 86.9673L83.5785 88.6616L85.2728 88.6617L88.6616 85.2729L88.6617 83.5784L86.9672 83.5785Z" fill="#124EAD"/>
<path fill-rule="evenodd" clip-rule="evenodd" d="M85.2723 42.9123L88.6611 39.5234L88.661 37.8291L86.9667 37.829L83.5779 41.2178L83.5778 42.9124L85.2723 42.9123Z" fill="#124EAD"/>
<path fill-rule="evenodd" clip-rule="evenodd" d="M86.967 42.9123L83.5781 39.5234L83.5782 37.8291L85.2726 37.829L88.6614 41.2178L88.6615 42.9124L86.967 42.9123Z" fill="#124EAD"/>
<path fill-rule="evenodd" clip-rule="evenodd" d="M41.2177 83.5784L37.8289 86.9673L37.829 88.6616L39.5233 88.6617L42.9121 85.2728L42.9122 83.5783L41.2177 83.5784Z" fill="#124EAD"/>
<path fill-rule="evenodd" clip-rule="evenodd" d="M39.5233 83.5784L42.9121 86.9673L42.912 88.6616L41.2177 88.6617L37.8288 85.2728L37.8287 83.5783L39.5233 83.5784Z" fill="#124EAD"/>
<path fill-rule="evenodd" clip-rule="evenodd" d="M41.2177 42.9122L37.8289 39.5233L37.829 37.829L39.5233 37.8289L42.9121 41.2178L42.9122 42.9123L41.2177 42.9122Z" fill="#124EAD"/>
<path fill-rule="evenodd" clip-rule="evenodd" d="M39.5233 42.9122L42.9121 39.5233L42.912 37.829L41.2177 37.8289L37.8288 41.2178L37.8287 42.9123L39.5233 42.9122Z" fill="#124EAD"/>
<path fill-rule="evenodd" clip-rule="evenodd" d="M95.4388 88.6617L98.8276 92.0505L98.8275 93.7448L97.1332 93.7449L93.7444 90.3561L93.7443 88.6616L95.4388 88.6617Z" fill="#0062FF"/>
<path fill-rule="evenodd" clip-rule="evenodd" d="M97.1335 88.6617L93.7446 92.0505L93.7447 93.7448L95.4391 93.7449L98.8279 90.3561L98.828 88.6616L97.1335 88.6617Z" fill="#0062FF"/>
<path fill-rule="evenodd" clip-rule="evenodd" d="M95.4388 37.8289L98.8276 34.44L98.8275 32.7457L97.1332 32.7456L93.7444 36.1345L93.7443 37.829L95.4388 37.8289Z" fill="#0062FF"/>
<path fill-rule="evenodd" clip-rule="evenodd" d="M97.1335 37.8289L93.7446 34.44L93.7447 32.7457L95.4391 32.7456L98.8279 36.1345L98.828 37.829L97.1335 37.8289Z" fill="#0062FF"/>
<path fill-rule="evenodd" clip-rule="evenodd" d="M31.0512 88.6617L27.6624 92.0505L27.6624 93.7448L29.3568 93.7449L32.7456 90.3561L32.7457 88.6616L31.0512 88.6617Z" fill="#0062FF"/>
<path fill-rule="evenodd" clip-rule="evenodd" d="M29.3568 88.6617L32.7456 92.0505L32.7455 93.7448L31.0512 93.7449L27.6623 90.3561L27.6622 88.6616L29.3568 88.6617Z" fill="#0062FF"/>
<path fill-rule="evenodd" clip-rule="evenodd" d="M31.0512 37.8288L27.6624 34.44L27.6624 32.7456L29.3568 32.7455L32.7456 36.1344L32.7457 37.8289L31.0512 37.8288Z" fill="#0062FF"/>
<path fill-rule="evenodd" clip-rule="evenodd" d="M29.3568 37.8288L32.7456 34.44L32.7455 32.7456L31.0512 32.7455L27.6623 36.1344L27.6622 37.8289L29.3568 37.8288Z" fill="#0062FF"/>
<path fill-rule="evenodd" clip-rule="evenodd" d="M90.3558 93.745L93.7446 97.1339L93.7445 98.8282L92.0502 98.8283L88.6614 95.4395L88.6613 93.7449L90.3558 93.745Z" fill="#0062FF"/>
<path fill-rule="evenodd" clip-rule="evenodd" d="M92.0502 93.745L88.6614 97.1339L88.6615 98.8282L90.3558 98.8283L93.7447 95.4395L93.7448 93.7449L92.0502 93.745Z" fill="#0062FF"/>
<path fill-rule="evenodd" clip-rule="evenodd" d="M90.3558 32.7456L93.7446 29.3568L93.7445 27.6624L92.0502 27.6624L88.6614 31.0512L88.6613 32.7457L90.3558 32.7456Z" fill="#0062FF"/>
<path fill-rule="evenodd" clip-rule="evenodd" d="M92.0502 32.7456L88.6614 29.3568L88.6615 27.6624L90.3558 27.6624L93.7447 31.0512L93.7448 32.7457L92.0502 32.7456Z" fill="#0062FF"/>
<path fill-rule="evenodd" clip-rule="evenodd" d="M36.1347 93.745L32.7458 97.1338L32.7459 98.8282L34.4403 98.8282L37.8291 95.4394L37.8292 93.7449L36.1347 93.745Z" fill="#0062FF"/>
<path fill-rule="evenodd" clip-rule="evenodd" d="M34.44 93.745L37.8289 97.1338L37.8288 98.8282L36.1344 98.8282L32.7456 95.4394L32.7455 93.7449L34.44 93.745Z" fill="#0062FF"/>
<path fill-rule="evenodd" clip-rule="evenodd" d="M36.1345 32.7456L32.7456 29.3567L32.7457 27.6624L34.44 27.6623L37.8289 31.0511L37.829 32.7457L36.1345 32.7456Z" fill="#0062FF"/>
<path fill-rule="evenodd" clip-rule="evenodd" d="M34.4398 32.7456L37.8286 29.3567L37.8285 27.6624L36.1342 27.6623L32.7453 31.0511L32.7452 32.7457L34.4398 32.7456Z" fill="#0062FF"/>
<path fill-rule="evenodd" clip-rule="evenodd" d="M90.3558 83.5784L93.7446 86.9673L93.7445 88.6616L92.0502 88.6617L88.6614 85.2728L88.6613 83.5783L90.3558 83.5784Z" fill="#0062FF"/>
<path fill-rule="evenodd" clip-rule="evenodd" d="M92.0502 83.5784L88.6614 86.9673L88.6615 88.6616L90.3558 88.6617L93.7447 85.2728L93.7448 83.5783L92.0502 83.5784Z" fill="#0062FF"/>
<path fill-rule="evenodd" clip-rule="evenodd" d="M90.3558 42.9123L93.7446 39.5234L93.7445 37.8291L92.0502 37.829L88.6614 41.2178L88.6613 42.9124L90.3558 42.9123Z" fill="#0062FF"/>
<path fill-rule="evenodd" clip-rule="evenodd" d="M92.0502 42.9123L88.6614 39.5234L88.6615 37.8291L90.3558 37.829L93.7447 41.2178L93.7448 42.9124L92.0502 42.9123Z" fill="#0062FF"/>
<path fill-rule="evenodd" clip-rule="evenodd" d="M36.1347 83.5784L32.7458 86.9673L32.7459 88.6616L34.4403 88.6617L37.8291 85.2728L37.8292 83.5783L36.1347 83.5784Z" fill="#0062FF"/>
<path fill-rule="evenodd" clip-rule="evenodd" d="M34.44 83.5784L37.8289 86.9673L37.8288 88.6616L36.1344 88.6617L32.7456 85.2728L32.7455 83.5783L34.44 83.5784Z" fill="#0062FF"/>
<path fill-rule="evenodd" clip-rule="evenodd" d="M36.1345 42.9122L32.7456 39.5233L32.7457 37.829L34.44 37.8289L37.8289 41.2178L37.829 42.9123L36.1345 42.9122Z" fill="#0062FF"/>
<path fill-rule="evenodd" clip-rule="evenodd" d="M34.4398 42.9122L37.8286 39.5233L37.8285 37.829L36.1342 37.8289L32.7453 41.2178L32.7452 42.9123L34.4398 42.9122Z" fill="#0062FF"/>
<path fill-rule="evenodd" clip-rule="evenodd" d="M90.3558 73.4118L93.7446 76.8007L93.7445 78.495L92.0502 78.4951L88.6614 75.1063L88.6613 73.4117L90.3558 73.4118Z" fill="#0062FF"/>
<path fill-rule="evenodd" clip-rule="evenodd" d="M92.0502 73.4118L88.6614 76.8007L88.6615 78.495L90.3558 78.4951L93.7447 75.1063L93.7448 73.4117L92.0502 73.4118Z" fill="#0062FF"/>
<path fill-rule="evenodd" clip-rule="evenodd" d="M90.3558 53.0785L93.7446 49.6897L93.7445 47.9953L92.0502 47.9952L88.6614 51.3841L88.6613 53.0786L90.3558 53.0785Z" fill="#0062FF"/>
<path fill-rule="evenodd" clip-rule="evenodd" d="M92.0502 53.0785L88.6614 49.6897L88.6615 47.9953L90.3558 47.9952L93.7447 51.3841L93.7448 53.0786L92.0502 53.0785Z" fill="#0062FF"/>
<path fill-rule="evenodd" clip-rule="evenodd" d="M36.1347 73.4118L32.7458 76.8006L32.7459 78.495L34.4403 78.4951L37.8291 75.1062L37.8292 73.4117L36.1347 73.4118Z" fill="#0062FF"/>
<path fill-rule="evenodd" clip-rule="evenodd" d="M34.44 73.4118L37.8289 76.8006L37.8288 78.495L36.1344 78.4951L32.7456 75.1062L32.7455 73.4117L34.44 73.4118Z" fill="#0062FF"/>
<path fill-rule="evenodd" clip-rule="evenodd" d="M36.1345 53.0787L32.7456 49.6898L32.7457 47.9955L34.44 47.9954L37.8289 51.3843L37.829 53.0788L36.1345 53.0787Z" fill="#0062FF"/>
<path fill-rule="evenodd" clip-rule="evenodd" d="M34.4398 53.0787L37.8286 49.6898L37.8285 47.9955L36.1342 47.9954L32.7453 51.3843L32.7452 53.0788L34.4398 53.0787Z" fill="#0062FF"/>
<path fill-rule="evenodd" clip-rule="evenodd" d="M90.3558 68.3285L93.7446 71.7173L93.7445 73.4116L92.0502 73.4117L88.6614 70.0229L88.6613 68.3284L90.3558 68.3285Z" fill="#0062FF"/>
<path fill-rule="evenodd" clip-rule="evenodd" d="M92.0502 68.3285L88.6614 71.7173L88.6615 73.4116L90.3558 73.4117L93.7447 70.0229L93.7448 68.3284L92.0502 68.3285Z" fill="#0062FF"/>
<path fill-rule="evenodd" clip-rule="evenodd" d="M90.3558 58.1618L93.7446 54.7729L93.7445 53.0786L92.0502 53.0785L88.6614 56.4673L88.6613 58.1619L90.3558 58.1618Z" fill="#0062FF"/>
<path fill-rule="evenodd" clip-rule="evenodd" d="M92.0502 58.1618L88.6614 54.7729L88.6615 53.0786L90.3558 53.0785L93.7447 56.4673L93.7448 58.1619L92.0502 58.1618Z" fill="#0062FF"/>
<path fill-rule="evenodd" clip-rule="evenodd" d="M36.1347 68.3285L32.7458 71.7173L32.7459 73.4116L34.4403 73.4117L37.8291 70.0229L37.8292 68.3284L36.1347 68.3285Z" fill="#0062FF"/>
<path fill-rule="evenodd" clip-rule="evenodd" d="M34.44 68.3285L37.8289 71.7173L37.8288 73.4116L36.1344 73.4117L32.7456 70.0229L32.7455 68.3284L34.44 68.3285Z" fill="#0062FF"/>
<path fill-rule="evenodd" clip-rule="evenodd" d="M36.1345 58.1621L32.7456 54.7732L32.7457 53.0789L34.44 53.0788L37.8289 56.4676L37.829 58.1622L36.1345 58.1621Z" fill="#0062FF"/>
<path fill-rule="evenodd" clip-rule="evenodd" d="M34.4398 58.1621L37.8286 54.7732L37.8285 53.0789L36.1342 53.0788L32.7453 56.4676L32.7452 58.1622L34.4398 58.1621Z" fill="#0062FF"/>
<path fill-rule="evenodd" clip-rule="evenodd" d="M90.3558 63.2452L93.7446 66.6341L93.7445 68.3284L92.0502 68.3285L88.6614 64.9396L88.6613 63.2451L90.3558 63.2452Z" fill="#0062FF"/>
<path fill-rule="evenodd" clip-rule="evenodd" d="M92.0502 63.2452L88.6614 66.6341L88.6615 68.3284L90.3558 68.3285L93.7447 64.9396L93.7448 63.2451L92.0502 63.2452Z" fill="#0062FF"/>
<path fill-rule="evenodd" clip-rule="evenodd" d="M90.3558 63.2451L93.7446 59.8562L93.7445 58.1619L92.0502 58.1618L88.6614 61.5507L88.6613 63.2452L90.3558 63.2451Z" fill="#0062FF"/>
<path fill-rule="evenodd" clip-rule="evenodd" d="M92.0502 63.2451L88.6614 59.8562L88.6615 58.1619L90.3558 58.1618L93.7447 61.5507L93.7448 63.2452L92.0502 63.2451Z" fill="#0062FF"/>
<path fill-rule="evenodd" clip-rule="evenodd" d="M36.1347 63.2452L32.7458 66.634L32.7459 68.3283L34.4403 68.3284L37.8291 64.9396L37.8292 63.2451L36.1347 63.2452Z" fill="#0062FF"/>
<path fill-rule="evenodd" clip-rule="evenodd" d="M34.44 63.2452L37.8289 66.634L37.8288 68.3283L36.1344 68.3284L32.7456 64.9396L32.7455 63.2451L34.44 63.2452Z" fill="#0062FF"/>
<path fill-rule="evenodd" clip-rule="evenodd" d="M36.1347 63.2451L32.7458 59.8562L32.7459 58.1619L34.4403 58.1618L37.8291 61.5507L37.8292 63.2452L36.1347 63.2451Z" fill="#0062FF"/>
<path fill-rule="evenodd" clip-rule="evenodd" d="M34.44 63.2451L37.8289 59.8562L37.8288 58.1619L36.1344 58.1618L32.7456 61.5507L32.7455 63.2452L34.44 63.2451Z" fill="#0062FF"/>
<path fill-rule="evenodd" clip-rule="evenodd" d="M85.2725 63.2452L88.6614 66.6341L88.6613 68.3284L86.967 68.3285L83.5781 64.9396L83.578 63.2451L85.2725 63.2452Z" fill="#0062FF"/>
<path fill-rule="evenodd" clip-rule="evenodd" d="M86.9672 63.2452L83.5784 66.6341L83.5785 68.3284L85.2728 68.3285L88.6616 64.9396L88.6617 63.2451L86.9672 63.2452Z" fill="#0062FF"/>
<path fill-rule="evenodd" clip-rule="evenodd" d="M85.2725 63.2451L88.6614 59.8563L88.6613 58.162L86.967 58.1619L83.5781 61.5507L83.578 63.2452L85.2725 63.2451Z" fill="#0062FF"/>
<path fill-rule="evenodd" clip-rule="evenodd" d="M86.9672 63.2451L83.5784 59.8563L83.5785 58.162L85.2728 58.1619L88.6616 61.5507L88.6617 63.2452L86.9672 63.2451Z" fill="#0062FF"/>
<path fill-rule="evenodd" clip-rule="evenodd" d="M41.2177 63.2455L37.8289 66.6343L37.829 68.3286L39.5233 68.3287L42.9121 64.9399L42.9122 63.2454L41.2177 63.2455Z" fill="#0062FF"/>
<path fill-rule="evenodd" clip-rule="evenodd" d="M39.5233 63.2455L42.9121 66.6343L42.912 68.3286L41.2177 68.3287L37.8288 64.9399L37.8287 63.2454L39.5233 63.2455Z" fill="#0062FF"/>
<path fill-rule="evenodd" clip-rule="evenodd" d="M41.2177 63.2454L37.8289 59.8565L37.829 58.1622L39.5233 58.1621L42.9121 61.551L42.9122 63.2455L41.2177 63.2454Z" fill="#0062FF"/>
<path fill-rule="evenodd" clip-rule="evenodd" d="M39.5233 63.2454L42.9121 59.8565L42.912 58.1622L41.2177 58.1621L37.8288 61.551L37.8287 63.2455L39.5233 63.2454Z" fill="#0062FF"/>
<path fill-rule="evenodd" clip-rule="evenodd" d="M80.1893 63.2452L83.5781 66.6341L83.578 68.3284L81.8837 68.3285L78.4948 64.9396L78.4948 63.2451L80.1893 63.2452Z" fill="#0062FF"/>
<path fill-rule="evenodd" clip-rule="evenodd" d="M81.8837 63.2452L78.4949 66.6341L78.495 68.3284L80.1893 68.3285L83.5782 64.9396L83.5782 63.2451L81.8837 63.2452Z" fill="#0062FF"/>
<path fill-rule="evenodd" clip-rule="evenodd" d="M80.1893 63.2451L83.5781 59.8563L83.578 58.162L81.8837 58.1619L78.4948 61.5507L78.4948 63.2452L80.1893 63.2451Z" fill="#0062FF"/>
<path fill-rule="evenodd" clip-rule="evenodd" d="M81.8837 63.2451L78.4949 59.8563L78.495 58.162L80.1893 58.1619L83.5782 61.5507L83.5782 63.2452L81.8837 63.2451Z" fill="#0062FF"/>
<path fill-rule="evenodd" clip-rule="evenodd" d="M46.301 63.2453L42.9121 66.6342L42.9122 68.3285L44.6065 68.3286L47.9954 64.9398L47.9955 63.2452L46.301 63.2453Z" fill="#0062FF"/>
<path fill-rule="evenodd" clip-rule="evenodd" d="M44.6063 63.2453L47.9951 66.6342L47.995 68.3285L46.3007 68.3286L42.9118 64.9398L42.9117 63.2452L44.6063 63.2453Z" fill="#0062FF"/>
<path fill-rule="evenodd" clip-rule="evenodd" d="M46.301 63.2453L42.9121 59.8564L42.9122 58.1621L44.6065 58.162L47.9954 61.5508L47.9955 63.2454L46.301 63.2453Z" fill="#0062FF"/>
<path fill-rule="evenodd" clip-rule="evenodd" d="M44.6063 63.2453L47.9951 59.8564L47.995 58.1621L46.3007 58.162L42.9118 61.5508L42.9117 63.2454L44.6063 63.2453Z" fill="#0062FF"/>
<path fill-rule="evenodd" clip-rule="evenodd" d="M85.2725 73.4118L88.6614 76.8007L88.6613 78.495L86.967 78.4951L83.5781 75.1063L83.578 73.4117L85.2725 73.4118Z" fill="#0062FF"/>
<path fill-rule="evenodd" clip-rule="evenodd" d="M86.9672 73.4118L83.5784 76.8007L83.5785 78.495L85.2728 78.4951L88.6616 75.1063L88.6617 73.4117L86.9672 73.4118Z" fill="#0062FF"/>
<path fill-rule="evenodd" clip-rule="evenodd" d="M85.2725 53.0785L88.6614 49.6897L88.6613 47.9953L86.967 47.9952L83.5781 51.3841L83.578 53.0786L85.2725 53.0785Z" fill="#0062FF"/>
<path fill-rule="evenodd" clip-rule="evenodd" d="M86.9672 53.0785L83.5784 49.6897L83.5785 47.9953L85.2728 47.9952L88.6616 51.3841L88.6617 53.0786L86.9672 53.0785Z" fill="#0062FF"/>
<path fill-rule="evenodd" clip-rule="evenodd" d="M41.2177 73.4118L37.8289 76.8006L37.829 78.495L39.5233 78.4951L42.9121 75.1062L42.9122 73.4117L41.2177 73.4118Z" fill="#0062FF"/>
<path fill-rule="evenodd" clip-rule="evenodd" d="M39.5233 73.4118L42.9121 76.8006L42.912 78.495L41.2177 78.4951L37.8288 75.1062L37.8287 73.4117L39.5233 73.4118Z" fill="#0062FF"/>
<path fill-rule="evenodd" clip-rule="evenodd" d="M41.2177 53.0787L37.8289 49.6898L37.829 47.9955L39.5233 47.9954L42.9121 51.3843L42.9122 53.0788L41.2177 53.0787Z" fill="#0062FF"/>
<path fill-rule="evenodd" clip-rule="evenodd" d="M39.5233 53.0787L42.9121 49.6898L42.912 47.9955L41.2177 47.9954L37.8288 51.3843L37.8287 53.0788L39.5233 53.0787Z" fill="#0062FF"/>
<path fill-rule="evenodd" clip-rule="evenodd" d="M80.1893 73.4119L83.5781 76.8008L83.578 78.4951L81.8837 78.4952L78.4948 75.1063L78.4948 73.4118L80.1893 73.4119Z" fill="#0062FF"/>
<path fill-rule="evenodd" clip-rule="evenodd" d="M81.8837 73.4119L78.4949 76.8008L78.495 78.4951L80.1893 78.4952L83.5782 75.1063L83.5782 73.4118L81.8837 73.4119Z" fill="#0062FF"/>
<path fill-rule="evenodd" clip-rule="evenodd" d="M80.1895 53.0786L83.5784 49.6897L83.5783 47.9954L81.8839 47.9953L78.4951 51.3842L78.495 53.0787L80.1895 53.0786Z" fill="#0062FF"/>
<path fill-rule="evenodd" clip-rule="evenodd" d="M81.884 53.0786L78.4951 49.6897L78.4952 47.9954L80.1895 47.9953L83.5784 51.3842L83.5785 53.0787L81.884 53.0786Z" fill="#0062FF"/>
<path fill-rule="evenodd" clip-rule="evenodd" d="M46.3012 73.4118L42.9124 76.8006L42.9124 78.495L44.6068 78.4951L47.9956 75.1062L47.9957 73.4117L46.3012 73.4118Z" fill="#0062FF"/>
<path fill-rule="evenodd" clip-rule="evenodd" d="M44.6068 73.4118L47.9956 76.8006L47.9955 78.495L46.3012 78.4951L42.9123 75.1062L42.9122 73.4117L44.6068 73.4118Z" fill="#0062FF"/>
<path fill-rule="evenodd" clip-rule="evenodd" d="M46.301 53.0787L42.9121 49.6898L42.9122 47.9955L44.6065 47.9954L47.9954 51.3843L47.9955 53.0788L46.301 53.0787Z" fill="#0062FF"/>
<path fill-rule="evenodd" clip-rule="evenodd" d="M44.6063 53.0787L47.9951 49.6898L47.995 47.9955L46.3007 47.9954L42.9118 51.3843L42.9117 53.0788L44.6063 53.0787Z" fill="#0062FF"/>
<path fill-rule="evenodd" clip-rule="evenodd" d="M80.1893 78.4951L83.5781 81.8839L83.578 83.5783L81.8837 83.5784L78.4948 80.1895L78.4948 78.495L80.1893 78.4951Z" fill="#0062FF"/>
<path fill-rule="evenodd" clip-rule="evenodd" d="M81.8837 78.4951L78.4949 81.8839L78.495 83.5783L80.1893 83.5784L83.5782 80.1895L83.5782 78.495L81.8837 78.4951Z" fill="#0062FF"/>
<path fill-rule="evenodd" clip-rule="evenodd" d="M80.1895 47.9952L83.5784 44.6064L83.5783 42.912L81.8839 42.9119L78.4951 46.3008L78.495 47.9953L80.1895 47.9952Z" fill="#0062FF"/>
<path fill-rule="evenodd" clip-rule="evenodd" d="M81.884 47.9952L78.4951 44.6064L78.4952 42.912L80.1895 42.9119L83.5784 46.3008L83.5785 47.9953L81.884 47.9952Z" fill="#0062FF"/>
<path fill-rule="evenodd" clip-rule="evenodd" d="M46.3012 78.495L42.9124 81.8839L42.9124 83.5782L44.6068 83.5783L47.9956 80.1895L47.9957 78.4949L46.3012 78.495Z" fill="#0062FF"/>
<path fill-rule="evenodd" clip-rule="evenodd" d="M44.6068 78.495L47.9956 81.8839L47.9955 83.5782L46.3012 83.5783L42.9123 80.1895L42.9122 78.4949L44.6068 78.495Z" fill="#0062FF"/>
<path fill-rule="evenodd" clip-rule="evenodd" d="M46.301 47.9954L42.9121 44.6065L42.9122 42.9122L44.6065 42.9121L47.9954 46.301L47.9955 47.9955L46.301 47.9954Z" fill="#0062FF"/>
<path fill-rule="evenodd" clip-rule="evenodd" d="M44.6063 47.9954L47.9951 44.6065L47.995 42.9122L46.3007 42.9121L42.9118 46.301L42.9117 47.9955L44.6063 47.9954Z" fill="#0062FF"/>
<path fill-rule="evenodd" clip-rule="evenodd" d="M75.106 78.4952L78.4949 81.8841L78.4948 83.5784L76.8004 83.5785L73.4116 80.1896L73.4115 78.4951L75.106 78.4952Z" fill="#0062FF"/>
<path fill-rule="evenodd" clip-rule="evenodd" d="M76.8007 78.4952L73.4119 81.8841L73.412 83.5784L75.1063 83.5785L78.4951 80.1896L78.4952 78.4951L76.8007 78.4952Z" fill="#0062FF"/>
<path fill-rule="evenodd" clip-rule="evenodd" d="M75.106 47.9952L78.4949 44.6064L78.4948 42.912L76.8004 42.9119L73.4116 46.3008L73.4115 47.9953L75.106 47.9952Z" fill="#0062FF"/>
<path fill-rule="evenodd" clip-rule="evenodd" d="M76.8007 47.9952L73.4119 44.6064L73.412 42.912L75.1063 42.9119L78.4951 46.3008L78.4952 47.9953L76.8007 47.9952Z" fill="#0062FF"/>
<path fill-rule="evenodd" clip-rule="evenodd" d="M51.3845 78.495L47.9956 81.8838L47.9957 83.5782L49.69 83.5782L53.0789 80.1894L53.079 78.4949L51.3845 78.495Z" fill="#0062FF"/>
<path fill-rule="evenodd" clip-rule="evenodd" d="M49.6898 78.495L53.0786 81.8838L53.0785 83.5782L51.3842 83.5782L47.9953 80.1894L47.9952 78.4949L49.6898 78.495Z" fill="#0062FF"/>
<path fill-rule="evenodd" clip-rule="evenodd" d="M51.3845 47.9954L47.9956 44.6065L47.9957 42.9122L49.69 42.9121L53.0789 46.301L53.079 47.9955L51.3845 47.9954Z" fill="#0062FF"/>
<path fill-rule="evenodd" clip-rule="evenodd" d="M49.6898 47.9954L53.0786 44.6065L53.0785 42.9122L51.3842 42.9121L47.9953 46.301L47.9952 47.9955L49.6898 47.9954Z" fill="#0062FF"/>
<path fill-rule="evenodd" clip-rule="evenodd" d="M64.9395 78.4952L68.3284 81.8841L68.3283 83.5784L66.6339 83.5785L63.2451 80.1896L63.245 78.4951L64.9395 78.4952Z" fill="#0062FF"/>
<path fill-rule="evenodd" clip-rule="evenodd" d="M66.6337 78.4952L63.2449 81.8841L63.245 83.5784L64.9393 83.5785L68.3282 80.1896L68.3282 78.4951L66.6337 78.4952Z" fill="#0062FF"/>
<path fill-rule="evenodd" clip-rule="evenodd" d="M64.9395 47.9953L68.3284 44.6065L68.3283 42.9121L66.6339 42.912L63.2451 46.3009L63.245 47.9954L64.9395 47.9953Z" fill="#0062FF"/>
<path fill-rule="evenodd" clip-rule="evenodd" d="M66.6337 47.9953L63.2449 44.6065L63.245 42.9121L64.9393 42.912L68.3282 46.3009L68.3282 47.9954L66.6337 47.9953Z" fill="#0062FF"/>
<path fill-rule="evenodd" clip-rule="evenodd" d="M61.5507 78.4953L58.1619 81.8841L58.162 83.5785L59.8563 83.5786L63.2451 80.1897L63.2452 78.4952L61.5507 78.4953Z" fill="#0062FF"/>
<path fill-rule="evenodd" clip-rule="evenodd" d="M59.8563 78.4953L63.2451 81.8841L63.245 83.5785L61.5507 83.5786L58.1618 80.1897L58.1617 78.4952L59.8563 78.4953Z" fill="#0062FF"/>
<path fill-rule="evenodd" clip-rule="evenodd" d="M61.5507 47.9953L58.1619 44.6065L58.162 42.9121L59.8563 42.912L63.2451 46.3009L63.2452 47.9954L61.5507 47.9953Z" fill="#0062FF"/>
<path fill-rule="evenodd" clip-rule="evenodd" d="M59.8563 47.9953L63.2451 44.6065L63.245 42.9121L61.5507 42.912L58.1618 46.3009L58.1617 47.9954L59.8563 47.9953Z" fill="#0062FF"/>
<path fill-rule="evenodd" clip-rule="evenodd" d="M75.106 83.5785L78.4949 86.9673L78.4948 88.6616L76.8004 88.6617L73.4116 85.2729L73.4115 83.5784L75.106 83.5785Z" fill="#0062FF"/>
<path fill-rule="evenodd" clip-rule="evenodd" d="M76.8007 83.5785L73.4119 86.9673L73.412 88.6616L75.1063 88.6617L78.4951 85.2729L78.4952 83.5784L76.8007 83.5785Z" fill="#0062FF"/>
<path fill-rule="evenodd" clip-rule="evenodd" d="M75.106 42.912L78.4949 39.5231L78.4948 37.8288L76.8004 37.8287L73.4116 41.2175L73.4115 42.912L75.106 42.912Z" fill="#0062FF"/>
<path fill-rule="evenodd" clip-rule="evenodd" d="M76.8007 42.912L73.4119 39.5231L73.412 37.8288L75.1063 37.8287L78.4951 41.2175L78.4952 42.912L76.8007 42.912Z" fill="#0062FF"/>
<path fill-rule="evenodd" clip-rule="evenodd" d="M51.3845 83.5783L47.9956 86.9672L47.9957 88.6615L49.69 88.6616L53.0789 85.2728L53.079 83.5782L51.3845 83.5783Z" fill="#0062FF"/>
<path fill-rule="evenodd" clip-rule="evenodd" d="M49.6898 83.5783L53.0786 86.9672L53.0785 88.6615L51.3842 88.6616L47.9953 85.2728L47.9952 83.5782L49.6898 83.5783Z" fill="#0062FF"/>
<path fill-rule="evenodd" clip-rule="evenodd" d="M51.3845 42.9121L47.9956 39.5232L47.9957 37.8289L49.69 37.8288L53.0789 41.2176L53.079 42.9122L51.3845 42.9121Z" fill="#0062FF"/>
<path fill-rule="evenodd" clip-rule="evenodd" d="M49.6898 42.9121L53.0786 39.5232L53.0785 37.8289L51.3842 37.8288L47.9953 41.2176L47.9952 42.9122L49.6898 42.9121Z" fill="#0062FF"/>
<path fill-rule="evenodd" clip-rule="evenodd" d="M64.9395 83.5785L68.3284 86.9674L68.3283 88.6617L66.6339 88.6618L63.2451 85.273L63.245 83.5784L64.9395 83.5785Z" fill="#0062FF"/>
<path fill-rule="evenodd" clip-rule="evenodd" d="M66.6337 83.5785L63.2449 86.9674L63.245 88.6617L64.9393 88.6618L68.3282 85.273L68.3282 83.5784L66.6337 83.5785Z" fill="#0062FF"/>
<path fill-rule="evenodd" clip-rule="evenodd" d="M64.9395 42.912L68.3284 39.5232L68.3283 37.8288L66.6339 37.8287L63.2451 41.2176L63.245 42.9121L64.9395 42.912Z" fill="#0062FF"/>
<path fill-rule="evenodd" clip-rule="evenodd" d="M66.6337 42.912L63.2449 39.5232L63.245 37.8288L64.9393 37.8287L68.3282 41.2176L68.3282 42.9121L66.6337 42.912Z" fill="#0062FF"/>
<path fill-rule="evenodd" clip-rule="evenodd" d="M61.5507 83.5785L58.1619 86.9674L58.162 88.6617L59.8563 88.6618L63.2451 85.273L63.2452 83.5784L61.5507 83.5785Z" fill="#0062FF"/>
<path fill-rule="evenodd" clip-rule="evenodd" d="M59.8563 83.5785L63.2451 86.9674L63.245 88.6617L61.5507 88.6618L58.1618 85.273L58.1617 83.5784L59.8563 83.5785Z" fill="#0062FF"/>
<path fill-rule="evenodd" clip-rule="evenodd" d="M61.551 42.9121L58.1621 39.5232L58.1622 37.8289L59.8565 37.8288L63.2454 41.2176L63.2455 42.9122L61.551 42.9121Z" fill="#0062FF"/>
<path fill-rule="evenodd" clip-rule="evenodd" d="M59.8568 42.9121L63.2456 39.5232L63.2455 37.8289L61.5512 37.8288L58.1623 41.2176L58.1622 42.9122L59.8568 42.9121Z" fill="#0062FF"/>
<path fill-rule="evenodd" clip-rule="evenodd" d="M75.106 88.6617L78.4949 92.0506L78.4948 93.7449L76.8004 93.745L73.4116 90.3561L73.4115 88.6616L75.106 88.6617Z" fill="#0062FF"/>
<path fill-rule="evenodd" clip-rule="evenodd" d="M76.8007 88.6617L73.4119 92.0506L73.412 93.7449L75.1063 93.745L78.4951 90.3561L78.4952 88.6616L76.8007 88.6617Z" fill="#0062FF"/>
<path fill-rule="evenodd" clip-rule="evenodd" d="M75.106 37.8287L78.4949 34.4398L78.4948 32.7455L76.8004 32.7454L73.4116 36.1343L73.4115 37.8288L75.106 37.8287Z" fill="#0062FF"/>
<path fill-rule="evenodd" clip-rule="evenodd" d="M76.8007 37.8287L73.4119 34.4398L73.412 32.7455L75.1063 32.7454L78.4951 36.1343L78.4952 37.8288L76.8007 37.8287Z" fill="#0062FF"/>
<path fill-rule="evenodd" clip-rule="evenodd" d="M51.3845 88.6616L47.9956 92.0504L47.9957 93.7448L49.69 93.7449L53.0789 90.356L53.079 88.6615L51.3845 88.6616Z" fill="#0062FF"/>
<path fill-rule="evenodd" clip-rule="evenodd" d="M49.6898 88.6616L53.0786 92.0504L53.0785 93.7448L51.3842 93.7449L47.9953 90.356L47.9952 88.6615L49.6898 88.6616Z" fill="#0062FF"/>
<path fill-rule="evenodd" clip-rule="evenodd" d="M51.3845 37.8288L47.9956 34.4399L47.9957 32.7456L49.69 32.7455L53.0789 36.1343L53.079 37.8289L51.3845 37.8288Z" fill="#0062FF"/>
<path fill-rule="evenodd" clip-rule="evenodd" d="M49.6898 37.8288L53.0786 34.4399L53.0785 32.7456L51.3842 32.7455L47.9953 36.1343L47.9952 37.8289L49.6898 37.8288Z" fill="#0062FF"/>
<path fill-rule="evenodd" clip-rule="evenodd" d="M70.0225 88.6617L73.4114 92.0506L73.4113 93.7449L71.717 93.745L68.3281 90.3561L68.328 88.6616L70.0225 88.6617Z" fill="#0062FF"/>
<path fill-rule="evenodd" clip-rule="evenodd" d="M71.717 88.6617L68.3281 92.0506L68.3282 93.7449L70.0226 93.745L73.4114 90.3561L73.4115 88.6616L71.717 88.6617Z" fill="#0062FF"/>
<path fill-rule="evenodd" clip-rule="evenodd" d="M70.023 37.8287L73.4119 34.4398L73.4118 32.7455L71.7174 32.7454L68.3286 36.1343L68.3285 37.8288L70.023 37.8287Z" fill="#0062FF"/>
<path fill-rule="evenodd" clip-rule="evenodd" d="M71.7172 37.8287L68.3284 34.4398L68.3285 32.7455L70.0228 32.7454L73.4116 36.1343L73.4117 37.8288L71.7172 37.8287Z" fill="#0062FF"/>
<path fill-rule="evenodd" clip-rule="evenodd" d="M56.4675 88.6615L53.0786 92.0504L53.0787 93.7447L54.773 93.7448L58.1619 90.356L58.162 88.6614L56.4675 88.6615Z" fill="#0062FF"/>
<path fill-rule="evenodd" clip-rule="evenodd" d="M54.7733 88.6615L58.1621 92.0504L58.162 93.7447L56.4677 93.7448L53.0788 90.356L53.0787 88.6614L54.7733 88.6615Z" fill="#0062FF"/>
<path fill-rule="evenodd" clip-rule="evenodd" d="M56.4675 37.8288L53.0786 34.4399L53.0787 32.7456L54.773 32.7455L58.1619 36.1343L58.162 37.8289L56.4675 37.8288Z" fill="#0062FF"/>
<path fill-rule="evenodd" clip-rule="evenodd" d="M54.7733 37.8288L58.1621 34.4399L58.162 32.7456L56.4677 32.7455L53.0788 36.1343L53.0787 37.8289L54.7733 37.8288Z" fill="#0062FF"/>
<path fill-rule="evenodd" clip-rule="evenodd" d="M64.9395 88.6619L68.3284 92.0508L68.3283 93.7451L66.6339 93.7452L63.2451 90.3563L63.245 88.6618L64.9395 88.6619Z" fill="#0062FF"/>
<path fill-rule="evenodd" clip-rule="evenodd" d="M66.6337 88.6619L63.2449 92.0508L63.245 93.7451L64.9393 93.7452L68.3282 90.3563L68.3282 88.6618L66.6337 88.6619Z" fill="#0062FF"/>
<path fill-rule="evenodd" clip-rule="evenodd" d="M64.9395 37.8287L68.3284 34.4398L68.3283 32.7455L66.6339 32.7454L63.2451 36.1343L63.245 37.8288L64.9395 37.8287Z" fill="#0062FF"/>
<path fill-rule="evenodd" clip-rule="evenodd" d="M66.6337 37.8287L63.2449 34.4398L63.245 32.7455L64.9393 32.7454L68.3282 36.1343L68.3282 37.8288L66.6337 37.8287Z" fill="#0062FF"/>
<path fill-rule="evenodd" clip-rule="evenodd" d="M61.551 88.6615L58.1621 92.0504L58.1622 93.7447L59.8565 93.7448L63.2454 90.356L63.2455 88.6614L61.551 88.6615Z" fill="#0062FF"/>
<path fill-rule="evenodd" clip-rule="evenodd" d="M59.8568 88.6615L63.2456 92.0504L63.2455 93.7447L61.5512 93.7448L58.1623 90.356L58.1622 88.6614L59.8568 88.6615Z" fill="#0062FF"/>
<path fill-rule="evenodd" clip-rule="evenodd" d="M61.551 37.8288L58.1621 34.4399L58.1622 32.7456L59.8565 32.7455L63.2454 36.1343L63.2455 37.8289L61.551 37.8288Z" fill="#0062FF"/>
<path fill-rule="evenodd" clip-rule="evenodd" d="M59.8568 37.8288L63.2456 34.4399L63.2455 32.7456L61.5512 32.7455L58.1623 36.1343L58.1622 37.8289L59.8568 37.8288Z" fill="#0062FF"/>
<path fill-rule="evenodd" clip-rule="evenodd" d="M75.106 73.4119L78.4949 76.8008L78.4948 78.4951L76.8004 78.4952L73.4116 75.1063L73.4115 73.4118L75.106 73.4119Z" fill="#0062FF"/>
<path fill-rule="evenodd" clip-rule="evenodd" d="M76.8007 73.4119L73.4119 76.8008L73.412 78.4951L75.1063 78.4952L78.4951 75.1063L78.4952 73.4118L76.8007 73.4119Z" fill="#0062FF"/>
<path fill-rule="evenodd" clip-rule="evenodd" d="M75.106 53.0786L78.4949 49.6897L78.4948 47.9954L76.8004 47.9953L73.4116 51.3842L73.4115 53.0787L75.106 53.0786Z" fill="#0062FF"/>
<path fill-rule="evenodd" clip-rule="evenodd" d="M76.8007 53.0786L73.4119 49.6897L73.412 47.9954L75.1063 47.9953L78.4951 51.3842L78.4952 53.0787L76.8007 53.0786Z" fill="#0062FF"/>
<path fill-rule="evenodd" clip-rule="evenodd" d="M51.384 73.4121L47.9951 76.8009L47.9952 78.4953L49.6895 78.4954L53.0784 75.1065L53.0785 73.412L51.384 73.4121Z" fill="#0062FF"/>
<path fill-rule="evenodd" clip-rule="evenodd" d="M49.6895 73.4121L53.0784 76.8009L53.0783 78.4953L51.3839 78.4954L47.9951 75.1065L47.995 73.412L49.6895 73.4121Z" fill="#0062FF"/>
<path fill-rule="evenodd" clip-rule="evenodd" d="M51.3845 53.0787L47.9956 49.6898L47.9957 47.9955L49.69 47.9954L53.0789 51.3843L53.079 53.0788L51.3845 53.0787Z" fill="#0062FF"/>
<path fill-rule="evenodd" clip-rule="evenodd" d="M49.6898 53.0787L53.0786 49.6898L53.0785 47.9955L51.3842 47.9954L47.9953 51.3843L47.9952 53.0788L49.6898 53.0787Z" fill="#0062FF"/>
<path fill-rule="evenodd" clip-rule="evenodd" d="M85.2723 88.6617L88.6611 92.0505L88.661 93.7448L86.9667 93.7449L83.5779 90.3561L83.5778 88.6616L85.2723 88.6617Z" fill="#0062FF"/>
<path fill-rule="evenodd" clip-rule="evenodd" d="M86.967 88.6617L83.5781 92.0505L83.5782 93.7448L85.2726 93.7449L88.6614 90.3561L88.6615 88.6616L86.967 88.6617Z" fill="#0062FF"/>
<path fill-rule="evenodd" clip-rule="evenodd" d="M85.2723 37.8289L88.6611 34.44L88.661 32.7457L86.9667 32.7456L83.5779 36.1345L83.5778 37.829L85.2723 37.8289Z" fill="#0062FF"/>
<path fill-rule="evenodd" clip-rule="evenodd" d="M86.967 37.8289L83.5781 34.44L83.5782 32.7457L85.2726 32.7456L88.6614 36.1345L88.6615 37.829L86.967 37.8289Z" fill="#0062FF"/>
<path fill-rule="evenodd" clip-rule="evenodd" d="M41.2177 88.6616L37.8289 92.0504L37.829 93.7448L39.5233 93.7449L42.9121 90.356L42.9122 88.6615L41.2177 88.6616Z" fill="#0062FF"/>
<path fill-rule="evenodd" clip-rule="evenodd" d="M39.5233 88.6616L42.9121 92.0504L42.912 93.7448L41.2177 93.7449L37.8288 90.356L37.8287 88.6615L39.5233 88.6616Z" fill="#0062FF"/>
<path fill-rule="evenodd" clip-rule="evenodd" d="M41.2177 37.8288L37.8289 34.44L37.829 32.7456L39.5233 32.7455L42.9121 36.1344L42.9122 37.8289L41.2177 37.8288Z" fill="#0062FF"/>
<path fill-rule="evenodd" clip-rule="evenodd" d="M39.5233 37.8288L42.9121 34.44L42.912 32.7456L41.2177 32.7455L37.8288 36.1344L37.8287 37.8289L39.5233 37.8288Z" fill="#0062FF"/>
<path fill-rule="evenodd" clip-rule="evenodd" d="M95.4388 78.495L98.8276 81.8839L98.8275 83.5782L97.1332 83.5783L93.7444 80.1895L93.7443 78.4949L95.4388 78.495Z" fill="#124EAD"/>
<path fill-rule="evenodd" clip-rule="evenodd" d="M97.1335 78.495L93.7446 81.8839L93.7447 83.5782L95.4391 83.5783L98.8279 80.1895L98.828 78.4949L97.1335 78.495Z" fill="#124EAD"/>
<path fill-rule="evenodd" clip-rule="evenodd" d="M95.4388 47.9955L98.8276 44.6067L98.8275 42.9123L97.1332 42.9122L93.7444 46.3011L93.7443 47.9956L95.4388 47.9955Z" fill="#124EAD"/>
<path fill-rule="evenodd" clip-rule="evenodd" d="M97.1335 47.9955L93.7446 44.6067L93.7447 42.9123L95.4391 42.9122L98.8279 46.3011L98.828 47.9956L97.1335 47.9955Z" fill="#124EAD"/>
<path fill-rule="evenodd" clip-rule="evenodd" d="M31.0512 78.495L27.6624 81.8839L27.6624 83.5782L29.3568 83.5783L32.7456 80.1895L32.7457 78.4949L31.0512 78.495Z" fill="#124EAD"/>
<path fill-rule="evenodd" clip-rule="evenodd" d="M29.3568 78.495L32.7456 81.8839L32.7455 83.5782L31.0512 83.5783L27.6623 80.1895L27.6622 78.4949L29.3568 78.495Z" fill="#124EAD"/>
<path fill-rule="evenodd" clip-rule="evenodd" d="M31.0512 47.9955L27.6624 44.6067L27.6624 42.9123L29.3568 42.9122L32.7456 46.3011L32.7457 47.9956L31.0512 47.9955Z" fill="#124EAD"/>
<path fill-rule="evenodd" clip-rule="evenodd" d="M29.3568 47.9955L32.7456 44.6067L32.7455 42.9123L31.0512 42.9122L27.6623 46.3011L27.6622 47.9956L29.3568 47.9955Z" fill="#124EAD"/>
<path fill-rule="evenodd" clip-rule="evenodd" d="M80.1893 93.745L83.5781 97.1339L83.578 98.8282L81.8837 98.8283L78.4948 95.4395L78.4948 93.7449L80.1893 93.745Z" fill="#124EAD"/>
<path fill-rule="evenodd" clip-rule="evenodd" d="M81.8837 93.745L78.4949 97.1339L78.495 98.8282L80.1893 98.8283L83.5782 95.4395L83.5782 93.7449L81.8837 93.745Z" fill="#124EAD"/>
<path fill-rule="evenodd" clip-rule="evenodd" d="M80.1893 32.7457L83.5781 29.3568L83.578 27.6625L81.8837 27.6624L78.4948 31.0513L78.4948 32.7458L80.1893 32.7457Z" fill="#124EAD"/>
<path fill-rule="evenodd" clip-rule="evenodd" d="M81.8837 32.7457L78.4949 29.3568L78.495 27.6625L80.1893 27.6624L83.5782 31.0513L83.5782 32.7458L81.8837 32.7457Z" fill="#124EAD"/>
<path fill-rule="evenodd" clip-rule="evenodd" d="M46.3012 93.745L42.9124 97.1338L42.9124 98.8282L44.6068 98.8282L47.9956 95.4394L47.9957 93.7449L46.3012 93.745Z" fill="#124EAD"/>
<path fill-rule="evenodd" clip-rule="evenodd" d="M44.6068 93.745L47.9956 97.1338L47.9955 98.8282L46.3012 98.8282L42.9123 95.4394L42.9122 93.7449L44.6068 93.745Z" fill="#124EAD"/>
<path fill-rule="evenodd" clip-rule="evenodd" d="M46.301 32.7456L42.9121 29.3567L42.9122 27.6624L44.6065 27.6623L47.9954 31.0511L47.9955 32.7457L46.301 32.7456Z" fill="#124EAD"/>
<path fill-rule="evenodd" clip-rule="evenodd" d="M44.6063 32.7456L47.9951 29.3567L47.995 27.6624L46.3007 27.6623L42.9118 31.0511L42.9117 32.7457L44.6063 32.7456Z" fill="#124EAD"/>
<path fill-rule="evenodd" clip-rule="evenodd" d="M80.1893 68.3285L83.5781 71.7173L83.578 73.4116L81.8837 73.4117L78.4948 70.0229L78.4948 68.3284L80.1893 68.3285Z" fill="#124EAD"/>
<path fill-rule="evenodd" clip-rule="evenodd" d="M81.8837 68.3285L78.4949 71.7173L78.495 73.4116L80.1893 73.4117L83.5782 70.0229L83.5782 68.3284L81.8837 68.3285Z" fill="#124EAD"/>
<path fill-rule="evenodd" clip-rule="evenodd" d="M80.1893 58.1618L83.5781 54.7729L83.578 53.0786L81.8837 53.0785L78.4948 56.4673L78.4948 58.1619L80.1893 58.1618Z" fill="#124EAD"/>
<path fill-rule="evenodd" clip-rule="evenodd" d="M81.8837 58.1618L78.4949 54.7729L78.495 53.0786L80.1893 53.0785L83.5782 56.4673L83.5782 58.1619L81.8837 58.1618Z" fill="#124EAD"/>
<path fill-rule="evenodd" clip-rule="evenodd" d="M46.301 68.3286L42.9121 71.7175L42.9122 73.4118L44.6065 73.4119L47.9954 70.0231L47.9955 68.3286L46.301 68.3286Z" fill="#124EAD"/>
<path fill-rule="evenodd" clip-rule="evenodd" d="M44.6063 68.3286L47.9951 71.7175L47.995 73.4118L46.3007 73.4119L42.9118 70.0231L42.9117 68.3286L44.6063 68.3286Z" fill="#124EAD"/>
<path fill-rule="evenodd" clip-rule="evenodd" d="M46.301 58.1621L42.9121 54.7732L42.9122 53.0789L44.6065 53.0788L47.9954 56.4676L47.9955 58.1622L46.301 58.1621Z" fill="#124EAD"/>
<path fill-rule="evenodd" clip-rule="evenodd" d="M44.6063 58.1621L47.9951 54.7732L47.995 53.0789L46.3007 53.0788L42.9118 56.4676L42.9117 58.1622L44.6063 58.1621Z" fill="#124EAD"/>
<path fill-rule="evenodd" clip-rule="evenodd" d="M70.0225 68.3286L73.4114 71.7174L73.4113 73.4118L71.717 73.4119L68.3281 70.023L68.328 68.3285L70.0225 68.3286Z" fill="#124EAD"/>
<path fill-rule="evenodd" clip-rule="evenodd" d="M71.717 68.3286L68.3281 71.7174L68.3282 73.4118L70.0226 73.4119L73.4114 70.023L73.4115 68.3285L71.717 68.3286Z" fill="#124EAD"/>
<path fill-rule="evenodd" clip-rule="evenodd" d="M70.023 58.162L73.4119 54.7731L73.4118 53.0788L71.7174 53.0787L68.3286 56.4675L68.3285 58.162L70.023 58.162Z" fill="#124EAD"/>
<path fill-rule="evenodd" clip-rule="evenodd" d="M71.7172 58.162L68.3284 54.7731L68.3285 53.0788L70.0228 53.0787L73.4116 56.4675L73.4117 58.162L71.7172 58.162Z" fill="#124EAD"/>
<path fill-rule="evenodd" clip-rule="evenodd" d="M56.4675 68.3286L53.0786 71.7175L53.0787 73.4118L54.773 73.4119L58.1619 70.0231L58.162 68.3286L56.4675 68.3286Z" fill="#124EAD"/>
<path fill-rule="evenodd" clip-rule="evenodd" d="M54.7733 68.3286L58.1621 71.7175L58.162 73.4118L56.4677 73.4119L53.0788 70.0231L53.0787 68.3286L54.7733 68.3286Z" fill="#124EAD"/>
<path fill-rule="evenodd" clip-rule="evenodd" d="M56.4675 58.162L53.0786 54.7732L53.0787 53.0788L54.773 53.0787L58.1619 56.4676L58.162 58.1621L56.4675 58.162Z" fill="#124EAD"/>
<path fill-rule="evenodd" clip-rule="evenodd" d="M54.7733 58.162L58.1621 54.7732L58.162 53.0788L56.4677 53.0787L53.0788 56.4676L53.0787 58.1621L54.7733 58.162Z" fill="#124EAD"/>
<path fill-rule="evenodd" clip-rule="evenodd" d="M70.0225 78.4952L73.4114 81.8841L73.4113 83.5784L71.717 83.5785L68.3281 80.1896L68.328 78.4951L70.0225 78.4952Z" fill="#124EAD"/>
<path fill-rule="evenodd" clip-rule="evenodd" d="M71.717 78.4952L68.3281 81.8841L68.3282 83.5784L70.0226 83.5785L73.4114 80.1896L73.4115 78.4951L71.717 78.4952Z" fill="#124EAD"/>
<path fill-rule="evenodd" clip-rule="evenodd" d="M70.023 47.9952L73.4119 44.6064L73.4118 42.912L71.7174 42.9119L68.3286 46.3008L68.3285 47.9953L70.023 47.9952Z" fill="#124EAD"/>
<path fill-rule="evenodd" clip-rule="evenodd" d="M71.7172 47.9952L68.3284 44.6064L68.3285 42.912L70.0228 42.9119L73.4116 46.3008L73.4117 47.9953L71.7172 47.9952Z" fill="#124EAD"/>
<path fill-rule="evenodd" clip-rule="evenodd" d="M56.4675 78.4953L53.0786 81.8841L53.0787 83.5785L54.773 83.5786L58.1619 80.1897L58.162 78.4952L56.4675 78.4953Z" fill="#124EAD"/>
<path fill-rule="evenodd" clip-rule="evenodd" d="M54.7733 78.4953L58.1621 81.8841L58.162 83.5785L56.4677 83.5786L53.0788 80.1897L53.0787 78.4952L54.7733 78.4953Z" fill="#124EAD"/>
<path fill-rule="evenodd" clip-rule="evenodd" d="M56.4675 47.9954L53.0786 44.6065L53.0787 42.9122L54.773 42.9121L58.1619 46.301L58.162 47.9955L56.4675 47.9954Z" fill="#124EAD"/>
<path fill-rule="evenodd" clip-rule="evenodd" d="M54.7733 47.9954L58.1621 44.6065L58.162 42.9122L56.4677 42.9121L53.0788 46.301L53.0787 47.9955L54.7733 47.9954Z" fill="#124EAD"/>
<path fill-rule="evenodd" clip-rule="evenodd" d="M64.9395 73.4119L68.3284 76.8008L68.3283 78.4951L66.6339 78.4952L63.2451 75.1063L63.245 73.4118L64.9395 73.4119Z" fill="#124EAD"/>
<path fill-rule="evenodd" clip-rule="evenodd" d="M66.6337 73.4119L63.2449 76.8008L63.245 78.4951L64.9393 78.4952L68.3282 75.1063L68.3282 73.4118L66.6337 73.4119Z" fill="#124EAD"/>
<path fill-rule="evenodd" clip-rule="evenodd" d="M64.9395 53.0786L68.3284 49.6897L68.3283 47.9954L66.6339 47.9953L63.2451 51.3842L63.245 53.0787L64.9395 53.0786Z" fill="#124EAD"/>
<path fill-rule="evenodd" clip-rule="evenodd" d="M66.6337 53.0786L63.2449 49.6897L63.245 47.9954L64.9393 47.9953L68.3282 51.3842L68.3282 53.0787L66.6337 53.0786Z" fill="#124EAD"/>
<path fill-rule="evenodd" clip-rule="evenodd" d="M61.5507 73.4119L58.1619 76.8008L58.162 78.4951L59.8563 78.4952L63.2451 75.1063L63.2452 73.4118L61.5507 73.4119Z" fill="#124EAD"/>
<path fill-rule="evenodd" clip-rule="evenodd" d="M59.8563 73.4119L63.2451 76.8008L63.245 78.4951L61.5507 78.4952L58.1618 75.1063L58.1617 73.4118L59.8563 73.4119Z" fill="#124EAD"/>
<path fill-rule="evenodd" clip-rule="evenodd" d="M61.5507 53.0786L58.1619 49.6898L58.162 47.9955L59.8563 47.9954L63.2451 51.3842L63.2452 53.0787L61.5507 53.0786Z" fill="#124EAD"/>
<path fill-rule="evenodd" clip-rule="evenodd" d="M59.8563 53.0786L63.2451 49.6898L63.245 47.9955L61.5507 47.9954L58.1618 51.3842L58.1617 53.0787L59.8563 53.0786Z" fill="#124EAD"/>
<path fill-rule="evenodd" clip-rule="evenodd" d="M75.106 63.2452L78.4949 66.6341L78.4948 68.3284L76.8004 68.3285L73.4116 64.9396L73.4115 63.2451L75.106 63.2452Z" fill="#124EAD"/>
<path fill-rule="evenodd" clip-rule="evenodd" d="M76.8007 63.2452L73.4119 66.6341L73.412 68.3284L75.1063 68.3285L78.4951 64.9396L78.4952 63.2451L76.8007 63.2452Z" fill="#124EAD"/>
<path fill-rule="evenodd" clip-rule="evenodd" d="M75.106 63.2451L78.4949 59.8563L78.4948 58.162L76.8004 58.1619L73.4116 61.5507L73.4115 63.2452L75.106 63.2451Z" fill="#124EAD"/>
<path fill-rule="evenodd" clip-rule="evenodd" d="M76.8007 63.2451L73.4119 59.8563L73.412 58.162L75.1063 58.1619L78.4951 61.5507L78.4952 63.2452L76.8007 63.2451Z" fill="#124EAD"/>
<path fill-rule="evenodd" clip-rule="evenodd" d="M51.384 63.2453L47.9951 66.6342L47.9952 68.3285L49.6895 68.3286L53.0784 64.9398L53.0785 63.2452L51.384 63.2453Z" fill="#124EAD"/>
<path fill-rule="evenodd" clip-rule="evenodd" d="M49.6895 63.2453L53.0784 66.6342L53.0783 68.3285L51.3839 68.3286L47.9951 64.9398L47.995 63.2452L49.6895 63.2453Z" fill="#124EAD"/>
<path fill-rule="evenodd" clip-rule="evenodd" d="M51.384 63.2453L47.9951 59.8564L47.9952 58.1621L49.6895 58.162L53.0784 61.5508L53.0785 63.2454L51.384 63.2453Z" fill="#124EAD"/>
<path fill-rule="evenodd" clip-rule="evenodd" d="M49.6895 63.2453L53.0784 59.8564L53.0783 58.1621L51.3839 58.162L47.9951 61.5508L47.995 63.2454L49.6895 63.2453Z" fill="#124EAD"/>
</svg>
