<svg width="167" height="77" viewBox="0 0 167 77" fill="none" xmlns="http://www.w3.org/2000/svg">
<rect x="43.2529" y="16.6358" width="123.105" height="60.3642" fill="#0062FF"/>
<path d="M82.2941 28.8265C82.2941 29.5687 82.1635 30.1566 81.9024 30.5904C81.651 31.0241 81.327 31.3518 80.9305 31.5735C80.5437 31.7952 80.1231 31.9398 79.6685 32.0072C79.214 32.0651 78.7934 32.094 78.4066 32.094V35H76.9995V26.6C77.1929 26.5422 77.4105 26.494 77.6523 26.4554C77.894 26.4072 78.131 26.3687 78.363 26.3398C78.6048 26.3108 78.8321 26.2867 79.0448 26.2675C79.2576 26.2482 79.4365 26.2386 79.5815 26.2386C79.9683 26.2386 80.3261 26.2867 80.6549 26.3831C80.9934 26.4795 81.2835 26.6337 81.5253 26.8458C81.767 27.0482 81.9556 27.3133 82.091 27.641C82.2264 27.9687 82.2941 28.3639 82.2941 28.8265ZM79.5815 27.4096C79.4171 27.4096 79.2189 27.4096 78.9868 27.4096C78.7644 27.4096 78.571 27.4193 78.4066 27.4386V30.9084H78.7547C78.9868 30.9084 79.2237 30.894 79.4655 30.8651C79.7169 30.8265 79.9442 30.7398 80.1472 30.6048C80.3503 30.4699 80.5147 30.2675 80.6404 29.9976C80.7758 29.7277 80.8435 29.3566 80.8435 28.8843C80.8435 28.6434 80.8048 28.4313 80.7275 28.2482C80.6501 28.0651 80.5486 27.9108 80.4228 27.7855C80.3068 27.6602 80.1714 27.5687 80.0167 27.5108C79.8716 27.4434 79.7266 27.4096 79.5815 27.4096Z" fill="white"/>
<path d="M89.2619 30.2C89.1652 30.547 89.0153 30.8458 88.8122 31.0964C88.6188 31.347 88.3867 31.559 88.1159 31.7325C87.8548 31.8964 87.5599 32.0169 87.2311 32.094C86.9023 32.1711 86.5542 32.2096 86.1867 32.2096C85.9256 32.2096 85.65 32.1566 85.3599 32.0506C85.0697 31.9446 84.8038 31.7855 84.562 31.5735C84.33 31.3518 84.1365 31.0723 83.9818 30.7349C83.8271 30.3976 83.7497 29.9928 83.7497 29.5205C83.7497 28.4988 84.0253 27.6988 84.5766 27.1205C85.1278 26.5325 85.8917 26.2386 86.8684 26.2386C87.497 26.2386 88.0096 26.359 88.406 26.6C88.8025 26.8313 89.0008 27.1687 89.0008 27.612C89.0008 28.0361 88.8654 28.3928 88.5946 28.6819C88.3335 28.9614 88.0047 29.188 87.6082 29.3614C87.2117 29.5349 86.7862 29.6602 86.3317 29.7373C85.8869 29.8145 85.4759 29.8578 85.0988 29.8675C85.0988 30.0602 85.1423 30.2337 85.2293 30.388C85.3163 30.5422 85.4276 30.6723 85.5629 30.7783C85.6983 30.8843 85.8434 30.9663 85.9981 31.0241C86.1625 31.0819 86.3172 31.1108 86.4623 31.1108C86.6073 31.1108 86.7572 31.1012 86.912 31.0819C87.0667 31.053 87.2117 31.0048 87.3471 30.9373C87.4922 30.8699 87.6131 30.7783 87.7098 30.6627C87.8161 30.547 87.8838 30.3928 87.9129 30.2H89.2619ZM86.883 27.3084C86.6509 27.3084 86.4284 27.3373 86.2157 27.3952C86.0029 27.4434 85.8144 27.5301 85.65 27.6554C85.4856 27.7807 85.3502 27.9446 85.2438 28.147C85.1471 28.3398 85.0988 28.5855 85.0988 28.8843C85.9111 28.8458 86.53 28.7494 86.9555 28.5952C87.3906 28.441 87.6082 28.1807 87.6082 27.8145C87.6082 27.6892 87.555 27.5735 87.4487 27.4675C87.3423 27.3614 87.1537 27.3084 86.883 27.3084Z" fill="white"/>
<path d="M93.5533 28.5084V27.4386C93.3405 27.4386 93.1374 27.4916 92.944 27.5976C92.7506 27.7036 92.5814 27.853 92.4363 28.0458C92.2913 28.2386 92.1704 28.4699 92.0737 28.7398C91.9867 29.0096 91.9383 29.3084 91.9286 29.6361V32.094H90.4926V26.5855L91.8271 26.253V27.2072H91.9722C92.3783 26.7639 92.8328 26.4795 93.3357 26.3542C93.8386 26.2289 94.3172 26.253 94.7718 26.4265V28.5084H93.5533Z" fill="white"/>
<path d="M101.083 30.2C100.987 30.547 100.837 30.8458 100.634 31.0964C100.44 31.347 100.208 31.559 99.9375 31.7325C99.6764 31.8964 99.3814 32.0169 99.0526 32.094C98.7238 32.1711 98.3757 32.2096 98.0082 32.2096C97.7471 32.2096 97.4715 32.1566 97.1814 32.0506C96.8913 31.9446 96.6253 31.7855 96.3836 31.5735C96.1515 31.3518 95.9581 31.0723 95.8034 30.7349C95.6486 30.3976 95.5713 29.9928 95.5713 29.5205C95.5713 28.4988 95.8469 27.6988 96.3981 27.1205C96.9493 26.5325 97.7133 26.2386 98.69 26.2386C99.3186 26.2386 99.8311 26.359 100.228 26.6C100.624 26.8313 100.822 27.1687 100.822 27.612C100.822 28.0361 100.687 28.3928 100.416 28.6819C100.155 28.9614 99.8263 29.188 99.4298 29.3614C99.0333 29.5349 98.6078 29.6602 98.1533 29.7373C97.7084 29.8145 97.2974 29.8578 96.9203 29.8675C96.9203 30.0602 96.9638 30.2337 97.0508 30.388C97.1379 30.5422 97.2491 30.6723 97.3845 30.7783C97.5199 30.8843 97.6649 30.9663 97.8196 31.0241C97.984 31.0819 98.1388 31.1108 98.2838 31.1108C98.4289 31.1108 98.5788 31.1012 98.7335 31.0819C98.8882 31.053 99.0333 31.0048 99.1687 30.9373C99.3137 30.8699 99.4346 30.7783 99.5313 30.6627C99.6377 30.547 99.7054 30.3928 99.7344 30.2H101.083ZM98.7045 27.3084C98.4724 27.3084 98.25 27.3373 98.0372 27.3952C97.8245 27.4434 97.6359 27.5301 97.4715 27.6554C97.3071 27.7807 97.1717 27.9446 97.0653 28.147C96.9686 28.3398 96.9203 28.5855 96.9203 28.8843C97.7326 28.8458 98.3515 28.7494 98.777 28.5952C99.2122 28.441 99.4298 28.1807 99.4298 27.8145C99.4298 27.6892 99.3766 27.5735 99.2702 27.4675C99.1638 27.3614 98.9753 27.3084 98.7045 27.3084Z" fill="white"/>
<path d="M102.314 23.4193L103.736 23V32.094H102.314V23.4193ZM107.507 27.6265C107.082 27.6265 106.714 27.7133 106.405 27.8867C106.105 28.0506 105.834 28.3108 105.592 28.6675V28.812C105.892 28.8602 106.158 28.9518 106.39 29.0867C106.632 29.2217 106.835 29.4193 106.999 29.6795C107.174 29.9398 107.304 30.2675 107.391 30.6627C107.488 31.0578 107.536 31.5349 107.536 32.094H106.115C106.115 31.1687 105.96 30.5084 105.65 30.1133C105.341 29.7181 104.804 29.5205 104.04 29.5205C104.243 29.0482 104.461 28.6145 104.693 28.2193C104.925 27.8145 105.181 27.4675 105.462 27.1783C105.742 26.8795 106.052 26.6482 106.39 26.4843C106.729 26.3205 107.101 26.2386 107.507 26.2386V27.6265Z" fill="white"/>
<path d="M110.404 26.5277C110.472 26.5181 110.574 26.5036 110.709 26.4843C110.844 26.4554 110.985 26.4313 111.13 26.412C111.284 26.3928 111.439 26.3735 111.594 26.3542C111.758 26.3349 111.903 26.3205 112.029 26.3108C112.367 26.3108 112.658 26.3494 112.899 26.4265C113.151 26.5036 113.354 26.6337 113.508 26.8169C113.673 27 113.794 27.241 113.871 27.5398C113.949 27.8386 113.987 28.2096 113.987 28.653V32.094H112.58V28.653C112.58 28.2096 112.493 27.906 112.319 27.7422C112.145 27.5687 111.942 27.4819 111.71 27.4819C111.652 27.4819 111.57 27.4867 111.463 27.4964C111.367 27.4964 111.255 27.506 111.13 27.5253C111.014 27.5349 110.888 27.5494 110.752 27.5687C110.627 27.588 110.511 27.6072 110.404 27.6265V32.094H108.983V23.4771L110.404 23.0578V26.5277Z" fill="white"/>
<path d="M118.712 28.5084V27.4386C118.499 27.4386 118.296 27.4916 118.103 27.5976C117.909 27.7036 117.74 27.853 117.595 28.0458C117.45 28.2386 117.329 28.4699 117.232 28.7398C117.145 29.0096 117.097 29.3084 117.087 29.6361V32.094H115.651V26.5855L116.986 26.253V27.2072H117.131C117.537 26.7639 117.992 26.4795 118.494 26.3542C118.997 26.2289 119.476 26.253 119.931 26.4265V28.5084H118.712Z" fill="white"/>
<path d="M126.242 30.2C126.145 30.547 125.996 30.8458 125.793 31.0964C125.599 31.347 125.367 31.559 125.096 31.7325C124.835 31.8964 124.54 32.0169 124.211 32.094C123.883 32.1711 123.534 32.2096 123.167 32.2096C122.906 32.2096 122.63 32.1566 122.34 32.0506C122.05 31.9446 121.784 31.7855 121.542 31.5735C121.31 31.3518 121.117 31.0723 120.962 30.7349C120.807 30.3976 120.73 29.9928 120.73 29.5205C120.73 28.4988 121.006 27.6988 121.557 27.1205C122.108 26.5325 122.872 26.2386 123.849 26.2386C124.477 26.2386 124.99 26.359 125.386 26.6C125.783 26.8313 125.981 27.1687 125.981 27.612C125.981 28.0361 125.846 28.3928 125.575 28.6819C125.314 28.9614 124.985 29.188 124.589 29.3614C124.192 29.5349 123.767 29.6602 123.312 29.7373C122.867 29.8145 122.456 29.8578 122.079 29.8675C122.079 30.0602 122.123 30.2337 122.21 30.388C122.297 30.5422 122.408 30.6723 122.543 30.7783C122.679 30.8843 122.824 30.9663 122.978 31.0241C123.143 31.0819 123.298 31.1108 123.443 31.1108C123.588 31.1108 123.738 31.1012 123.892 31.0819C124.047 31.053 124.192 31.0048 124.327 30.9373C124.472 30.8699 124.593 30.7783 124.69 30.6627C124.796 30.547 124.864 30.3928 124.893 30.2H126.242ZM123.863 27.3084C123.631 27.3084 123.409 27.3373 123.196 27.3952C122.983 27.4434 122.795 27.5301 122.63 27.6554C122.466 27.7807 122.331 27.9446 122.224 28.147C122.127 28.3398 122.079 28.5855 122.079 28.8843C122.891 28.8458 123.51 28.7494 123.936 28.5952C124.371 28.441 124.589 28.1807 124.589 27.8145C124.589 27.6892 124.535 27.5735 124.429 27.4675C124.323 27.3614 124.134 27.3084 123.863 27.3084Z" fill="white"/>
<path d="M131.52 27.7566C131.327 27.6892 131.128 27.6313 130.925 27.5831C130.751 27.5349 130.553 27.4964 130.331 27.4675C130.108 27.4289 129.886 27.4096 129.663 27.4096C129.383 27.4096 129.131 27.4627 128.909 27.5687C128.696 27.6747 128.59 27.8096 128.59 27.9735C128.59 28.0699 128.619 28.1518 128.677 28.2193C128.745 28.2771 128.832 28.3301 128.938 28.3783C129.044 28.4265 129.165 28.4699 129.301 28.5084C129.436 28.547 129.576 28.5807 129.721 28.6096C129.944 28.6675 130.171 28.7301 130.403 28.7976C130.645 28.8554 130.862 28.9422 131.056 29.0578C131.259 29.1735 131.423 29.3229 131.549 29.506C131.684 29.6892 131.752 29.9301 131.752 30.2289C131.752 30.5855 131.67 30.8892 131.505 31.1398C131.351 31.3807 131.143 31.5783 130.882 31.7325C130.63 31.8867 130.345 31.9976 130.026 32.0651C129.707 32.1325 129.388 32.1663 129.069 32.1663C128.914 32.1663 128.725 32.1566 128.503 32.1373C128.29 32.1181 128.087 32.094 127.894 32.0651C127.661 32.0265 127.425 31.988 127.183 31.9494L127.197 30.5759C127.391 30.653 127.608 30.7205 127.85 30.7783C128.053 30.8265 128.285 30.8747 128.546 30.9229C128.817 30.9614 129.098 30.9807 129.388 30.9807C129.62 30.9807 129.828 30.9422 130.011 30.8651C130.195 30.7783 130.287 30.6241 130.287 30.4024C130.287 30.2867 130.248 30.1904 130.171 30.1133C130.094 30.0361 129.997 29.9735 129.881 29.9253C129.765 29.8771 129.634 29.8337 129.489 29.7952C129.344 29.7566 129.199 29.7229 129.054 29.694C128.832 29.6361 128.609 29.5783 128.387 29.5205C128.174 29.453 127.976 29.3614 127.792 29.2458C127.608 29.1301 127.458 28.9759 127.342 28.7831C127.236 28.5904 127.183 28.3398 127.183 28.0313C127.183 27.694 127.25 27.4145 127.386 27.1928C127.521 26.9614 127.7 26.7783 127.923 26.6434C128.155 26.4988 128.411 26.3976 128.691 26.3398C128.981 26.2723 129.272 26.2386 129.562 26.2386C129.707 26.2386 129.886 26.253 130.098 26.2819C130.321 26.3012 130.538 26.3205 130.751 26.3398C131.003 26.3687 131.259 26.3976 131.52 26.4265V27.7566Z" fill="white"/>
<path d="M132.264 27.106L134.367 25.0096H134.73V26.3108H136.253V27.3373H134.73V29.4048C134.73 29.7807 134.749 30.0747 134.788 30.2867C134.836 30.4892 134.918 30.6386 135.034 30.7349C135.15 30.8313 135.3 30.8892 135.484 30.9084C135.677 30.9181 135.919 30.9229 136.209 30.9229V32.094C135.668 32.094 135.213 32.0843 134.846 32.0651C134.478 32.0458 134.178 31.959 133.946 31.8048C133.724 31.641 133.56 31.3855 133.453 31.0386C133.356 30.6916 133.308 30.1904 133.308 29.5349V27.3373H132.264V27.106Z" fill="white"/>
<path d="M136.543 26.1807C136.863 26.1807 137.162 26.3012 137.443 26.5422C137.723 26.7831 137.98 27.1108 138.212 27.5253C138.444 27.9301 138.647 28.412 138.821 28.9711C138.995 29.5205 139.14 30.1084 139.256 30.7349H139.401C139.536 30.4072 139.652 30.0361 139.749 29.6217C139.856 29.1976 139.938 28.7831 139.996 28.3783C140.063 27.9639 140.112 27.5735 140.141 27.2072C140.18 26.841 140.199 26.5422 140.199 26.3108H141.62C141.62 26.6289 141.582 27.0193 141.504 27.4819C141.437 27.9349 141.335 28.412 141.2 28.9133C141.074 29.4145 140.919 29.9205 140.736 30.4313C140.552 30.9325 140.354 31.3904 140.141 31.8048C139.918 32.2 139.682 32.5904 139.43 32.9759C139.179 33.3614 138.913 33.7036 138.632 34.0024C138.352 34.3012 138.057 34.5422 137.747 34.7253C137.438 34.9084 137.119 35 136.79 35V33.6699C136.983 33.6699 137.167 33.6217 137.341 33.5253C137.515 33.4386 137.67 33.3181 137.805 33.1639C137.941 33.0193 138.052 32.8554 138.139 32.6723C138.226 32.4892 138.274 32.306 138.284 32.1229C138.245 31.6313 138.154 31.1253 138.009 30.6048C137.873 30.0747 137.714 29.5928 137.53 29.159C137.356 28.7253 137.177 28.3687 136.993 28.0892C136.819 27.8096 136.669 27.6699 136.543 27.6699V26.1807Z" fill="white"/>
<path d="M146.738 32.094C146.738 31.9398 146.728 31.7711 146.709 31.588C146.699 31.4048 146.684 31.2602 146.665 31.1542H146.578C146.298 31.4337 145.978 31.6747 145.621 31.8771C145.272 32.0699 144.919 32.1663 144.562 32.1663C144.243 32.1663 143.952 32.1181 143.691 32.0217C143.43 31.9253 143.203 31.7952 143.01 31.6313C142.826 31.4578 142.681 31.2651 142.574 31.053C142.468 30.8313 142.415 30.6 142.415 30.359C142.415 30.0506 142.478 29.7855 142.603 29.5639C142.739 29.3325 142.908 29.1398 143.111 28.9855C143.324 28.8313 143.566 28.7205 143.836 28.653C144.107 28.5759 144.388 28.5373 144.678 28.5373C144.987 28.5373 145.292 28.5807 145.592 28.6675C145.901 28.7542 146.172 28.8892 146.404 29.0723H146.491V28.6386C146.491 28.1759 146.356 27.853 146.085 27.6699C145.814 27.4771 145.505 27.3807 145.156 27.3807C145.011 27.3807 144.808 27.4 144.547 27.4386C144.286 27.4675 144.03 27.506 143.778 27.5542C143.479 27.6024 143.164 27.6602 142.836 27.7277L142.821 26.4265C143.13 26.3976 143.421 26.3687 143.691 26.3398C143.923 26.3205 144.16 26.3012 144.402 26.2819C144.644 26.2627 144.842 26.253 144.997 26.253C145.374 26.253 145.722 26.2771 146.041 26.3253C146.37 26.3735 146.655 26.4747 146.897 26.6289C147.139 26.7831 147.327 27 147.463 27.2795C147.598 27.559 147.666 27.9301 147.666 28.3928C147.666 28.6434 147.632 28.8892 147.564 29.1301C147.497 29.3711 147.4 29.6313 147.274 29.9108C147.342 30.0265 147.419 30.1711 147.506 30.3446C147.593 30.5084 147.671 30.6867 147.738 30.8795C147.816 31.0723 147.879 31.2747 147.927 31.4867C147.975 31.6892 148 31.8916 148 32.094H146.738ZM143.822 30.2867C143.822 30.5084 143.914 30.6819 144.097 30.8072C144.291 30.9325 144.504 31.0048 144.736 31.0241C144.852 31.0241 144.978 31.0096 145.113 30.9807C145.258 30.9518 145.403 30.9036 145.548 30.8361C145.693 30.7687 145.828 30.6867 145.954 30.5904C146.09 30.494 146.201 30.3735 146.288 30.2289V30.1566C146.21 30.0602 146.114 29.9687 145.998 29.8819C145.882 29.7855 145.761 29.7084 145.635 29.6506C145.509 29.5831 145.384 29.5301 145.258 29.4916C145.132 29.453 145.021 29.4337 144.924 29.4337C144.576 29.4337 144.305 29.506 144.112 29.6506C143.919 29.7952 143.822 30.0072 143.822 30.2867Z" fill="white"/>
<path d="M105.73 65.2376C105.631 65.1974 105.513 65.1649 105.376 65.14C105.21 65.1113 105.08 65.097 104.988 65.097C104.371 65.097 104.063 65.5045 104.063 66.3196C104.063 66.706 104.137 67.0026 104.287 67.2092C104.438 67.4158 104.662 67.5192 104.957 67.5192C105.211 67.5192 105.469 67.4627 105.733 67.3498V67.7717C105.532 67.8808 105.277 67.9353 104.969 67.9353C104.529 67.9353 104.188 67.7956 103.946 67.5163C103.706 67.235 103.586 66.838 103.586 66.3253C103.586 65.7991 103.708 65.3926 103.952 65.1056C104.197 64.8186 104.546 64.6751 104.999 64.6751C105.145 64.6751 105.304 64.6914 105.476 64.7239C105.575 64.7411 105.66 64.7593 105.73 64.7784V65.2376Z" fill="white"/>
<path d="M108.616 67.8779V65.8432C108.616 65.5868 108.574 65.3955 108.489 65.2692C108.406 65.1429 108.244 65.0798 108.004 65.0798C107.629 65.0989 107.367 65.1984 107.22 65.3782C107.074 65.5581 107.001 65.8527 107.001 66.2622V67.8779H106.541V63.4124H107.001V64.7928C107.001 64.9554 106.993 65.0903 106.979 65.1974H107.006C107.097 65.0463 107.239 64.9229 107.433 64.8272C107.629 64.7296 107.834 64.6809 108.048 64.6809C108.418 64.6809 108.681 64.7727 108.838 64.9564C108.997 65.1381 109.076 65.428 109.076 65.8259V67.8779H108.616Z" fill="white"/>
<path d="M111.915 66.4458C111.907 66.4037 111.9 66.3616 111.892 66.3196C111.887 66.2832 111.881 66.2449 111.876 66.2048C111.872 66.1627 111.87 66.1254 111.87 66.0928V65.7972C111.87 65.6576 111.85 65.5418 111.809 65.45C111.769 65.3562 111.714 65.2816 111.646 65.2261C111.579 65.1687 111.502 65.1286 111.413 65.1056C111.326 65.0826 111.235 65.0712 111.139 65.0712C111.032 65.0712 110.934 65.0779 110.845 65.0912C110.756 65.1027 110.671 65.119 110.59 65.14C110.511 65.1592 110.432 65.1812 110.355 65.206C110.279 65.2309 110.2 65.2548 110.119 65.2778V64.8444C110.199 64.8215 110.275 64.8004 110.349 64.7813C110.425 64.7603 110.502 64.7421 110.582 64.7268C110.661 64.7115 110.746 64.7 110.837 64.6923C110.927 64.6828 111.028 64.678 111.139 64.678C111.29 64.678 111.437 64.6952 111.579 64.7296C111.722 64.7622 111.847 64.8196 111.956 64.9018C112.067 64.9822 112.155 65.0903 112.219 65.2261C112.286 65.3601 112.319 65.5284 112.319 65.7312V67.8779H111.214C110.968 67.8779 110.76 67.8549 110.59 67.809C110.422 67.7631 110.285 67.6961 110.18 67.6081C110.075 67.5201 109.998 67.4139 109.95 67.2896C109.904 67.1633 109.881 67.0208 109.881 66.862C109.881 66.7127 109.906 66.5798 109.956 66.463C110.006 66.3463 110.076 66.2478 110.166 66.1674C110.257 66.0871 110.364 66.0259 110.488 65.9838C110.613 65.9417 110.751 65.9206 110.901 65.9206C111.015 65.9206 111.117 65.9293 111.205 65.9465C111.296 65.9637 111.379 65.9933 111.455 66.0354C111.53 66.0756 111.603 66.1292 111.674 66.1961C111.744 66.2631 111.817 66.3463 111.892 66.4458H111.915ZM110.937 66.3138C110.754 66.3138 110.612 66.3607 110.513 66.4544C110.413 66.5482 110.363 66.6821 110.363 66.8562C110.363 66.9653 110.375 67.06 110.399 67.1403C110.425 67.2188 110.471 67.2838 110.538 67.3355C110.604 67.3852 110.695 67.4225 110.812 67.4474C110.928 67.4704 111.078 67.4819 111.261 67.4819H111.873V67.2551C111.873 67.1097 111.851 66.9787 111.807 66.862C111.762 66.7453 111.699 66.6467 111.618 66.5664C111.537 66.4841 111.438 66.4219 111.322 66.3798C111.207 66.3358 111.079 66.3138 110.937 66.3138Z" fill="white"/>
<path d="M114.914 65.1085C114.552 65.1257 114.277 65.2328 114.088 65.4299C113.902 65.627 113.808 65.912 113.808 66.2851V67.8779H113.348V64.7325H113.775V65.3639H113.819C113.934 65.0769 114.091 64.8904 114.29 64.8043C114.49 64.7182 114.698 64.6751 114.914 64.6751V65.1085Z" fill="white"/>
<path d="M115.96 67.8779H115.5V64.7325H115.96V67.8779ZM115.486 63.8629C115.486 63.7635 115.505 63.6917 115.544 63.6477C115.585 63.6037 115.639 63.5817 115.708 63.5817H115.974V63.8629C115.974 63.9605 115.948 64.0323 115.896 64.0782C115.846 64.1241 115.786 64.1471 115.716 64.1471H115.486V63.8629Z" fill="white"/>
<path d="M118.011 67.5278C118.095 67.5278 118.173 67.5268 118.247 67.5249C118.323 67.5211 118.383 67.5125 118.427 67.4991V67.8635C118.366 67.875 118.305 67.8846 118.244 67.8922C118.192 67.8999 118.139 67.9066 118.083 67.9123C118.028 67.9181 117.982 67.9209 117.945 67.9209C117.358 67.9209 117.064 67.6005 117.064 66.9595V65.0941H116.626V64.9162L117.369 64.1471H117.524V64.7383H118.427V65.0941H117.524V66.9394C117.524 67.1308 117.567 67.2771 117.654 67.3785C117.741 67.478 117.86 67.5278 118.011 67.5278Z" fill="white"/>
<path d="M119.024 68.891C119.307 68.8718 119.512 68.6891 119.639 68.3428L119.808 67.8951L118.553 64.7325H119.063L119.769 66.5262C119.915 66.9356 120.001 67.2312 120.027 67.413H120.049C120.082 67.3154 120.137 67.1489 120.213 66.9136C120.29 66.6764 120.528 65.9493 120.925 64.7325H121.407L120.127 68.3141C119.997 68.6681 119.846 68.9187 119.672 69.066C119.501 69.2153 119.284 69.2899 119.024 69.2899C119.024 69.2899 119.024 69.1569 119.024 68.891Z" fill="white"/>
<path d="M124.61 63.8486C124.479 63.8103 124.363 63.7912 124.263 63.7912C124.09 63.7988 123.961 63.8629 123.878 63.9835C123.795 64.1021 123.754 64.2934 123.754 64.5575V64.7354H124.455V65.1085H123.754V67.8779H123.294V64.5689C123.294 63.796 123.62 63.4095 124.272 63.4095C124.373 63.4018 124.486 63.4114 124.61 63.4382V63.8486Z" fill="white"/>
<path d="M127.559 66.2995C127.561 66.8122 127.439 67.213 127.193 67.5019C126.95 67.7889 126.609 67.9334 126.171 67.9353C125.899 67.9353 125.658 67.8693 125.448 67.7373C125.239 67.6053 125.079 67.4158 124.968 67.169C124.859 66.9222 124.805 66.6333 124.805 66.3023C124.805 65.7896 124.929 65.3907 125.176 65.1056C125.424 64.8186 125.762 64.6751 126.19 64.6751C126.602 64.6732 126.933 64.8186 127.182 65.1113C127.433 65.4041 127.559 65.8001 127.559 66.2995ZM125.282 66.3023C125.282 66.7041 125.356 67.0102 125.506 67.2207C125.656 67.4311 125.881 67.5364 126.182 67.5364C126.481 67.5345 126.706 67.4292 126.855 67.2207C127.007 67.0102 127.083 66.7032 127.083 66.2995C127.083 65.8996 127.007 65.5963 126.855 65.3897C126.704 65.1812 126.478 65.0779 126.176 65.0798C125.875 65.0798 125.651 65.1821 125.503 65.3868C125.355 65.5916 125.282 65.8967 125.282 66.3023Z" fill="white"/>
<path d="M130.508 67.8808C130.508 67.6799 130.508 67.5259 130.508 67.4187H130.481C130.39 67.5699 130.247 67.6942 130.051 67.7918C129.857 67.8875 129.653 67.9353 129.439 67.9353C129.07 67.9353 128.805 67.8444 128.647 67.6627C128.49 67.479 128.411 67.1882 128.411 66.7902V64.7383H128.871V66.773C128.871 67.0294 128.913 67.2207 128.996 67.347C129.081 67.4732 129.243 67.5364 129.483 67.5364C129.858 67.5172 130.119 67.4178 130.265 67.2379C130.412 67.0581 130.486 66.7634 130.486 66.354V64.7383H130.946V67.8808H130.508Z" fill="white"/>
<path d="M133.012 64.6809C133.13 64.6809 133.236 64.6933 133.33 64.7182C133.426 64.743 133.514 64.7803 133.594 64.8301C133.673 64.8779 133.747 64.9382 133.815 65.0109C133.885 65.0836 133.954 65.1687 134.02 65.2663H134.042C134.035 65.1687 134.03 65.0664 134.026 64.9592C134.022 64.8502 134.02 64.7344 134.02 64.612V63.4124H134.48V67.875H133.153C132.915 67.875 132.711 67.8291 132.541 67.7373C132.371 67.6435 132.231 67.5201 132.122 67.3671C132.013 67.214 131.933 67.0389 131.881 66.8419C131.831 66.6448 131.806 66.441 131.806 66.2306C131.806 66.1062 131.817 65.9819 131.837 65.8575C131.857 65.7312 131.888 65.6107 131.928 65.4959C131.971 65.3811 132.024 65.274 132.089 65.1745C132.154 65.075 132.23 64.9889 132.319 64.9162C132.408 64.8435 132.509 64.7861 132.624 64.744C132.74 64.7019 132.87 64.6809 133.012 64.6809ZM133.067 65.0798C132.923 65.0798 132.801 65.1123 132.701 65.1773C132.604 65.2424 132.524 65.3275 132.463 65.4328C132.402 65.538 132.358 65.6585 132.33 65.7944C132.302 65.9302 132.289 66.068 132.289 66.2076C132.289 66.3664 132.303 66.5214 132.333 66.6725C132.364 66.8237 132.414 66.9595 132.483 67.0801C132.551 67.1987 132.64 67.2944 132.749 67.3671C132.859 67.4398 132.994 67.4761 133.153 67.4761H134.034V66.4171C134.034 66.2143 134.007 66.0307 133.954 65.8661C133.902 65.7016 133.832 65.561 133.743 65.4442C133.655 65.3275 133.552 65.2376 133.436 65.1745C133.319 65.1113 133.196 65.0798 133.067 65.0798Z" fill="white"/>
<path d="M137.363 66.4458C137.356 66.4037 137.348 66.3616 137.341 66.3196C137.335 66.2832 137.33 66.2449 137.324 66.2048C137.321 66.1627 137.319 66.1254 137.319 66.0928V65.7972C137.319 65.6576 137.298 65.5418 137.258 65.45C137.217 65.3562 137.163 65.2816 137.094 65.2261C137.028 65.1687 136.95 65.1286 136.862 65.1056C136.775 65.0826 136.683 65.0712 136.587 65.0712C136.48 65.0712 136.382 65.0779 136.294 65.0912C136.205 65.1027 136.12 65.119 136.039 65.14C135.959 65.1592 135.881 65.1812 135.803 65.206C135.727 65.2309 135.649 65.2548 135.568 65.2778V64.8444C135.647 64.8215 135.724 64.8004 135.798 64.7813C135.873 64.7603 135.951 64.7421 136.03 64.7268C136.11 64.7115 136.195 64.7 136.285 64.6923C136.376 64.6828 136.476 64.678 136.587 64.678C136.739 64.678 136.886 64.6952 137.028 64.7296C137.17 64.7622 137.296 64.8196 137.405 64.9018C137.515 64.9822 137.603 65.0903 137.668 65.2261C137.734 65.3601 137.768 65.5284 137.768 65.7312V67.8779H136.662C136.416 67.8779 136.209 67.8549 136.039 67.809C135.871 67.7631 135.734 67.6961 135.629 67.6081C135.523 67.5201 135.447 67.4139 135.399 67.2896C135.352 67.1633 135.329 67.0208 135.329 66.862C135.329 66.7127 135.354 66.5798 135.404 66.463C135.454 66.3463 135.524 66.2478 135.615 66.1674C135.705 66.0871 135.812 66.0259 135.936 65.9838C136.062 65.9417 136.199 65.9206 136.349 65.9206C136.464 65.9206 136.565 65.9293 136.654 65.9465C136.744 65.9637 136.827 65.9933 136.903 66.0354C136.979 66.0756 137.052 66.1292 137.122 66.1961C137.192 66.2631 137.265 66.3463 137.341 66.4458H137.363ZM136.385 66.3138C136.202 66.3138 136.061 66.3607 135.961 66.4544C135.861 66.5482 135.811 66.6821 135.811 66.8562C135.811 66.9653 135.823 67.06 135.848 67.1403C135.873 67.2188 135.92 67.2838 135.986 67.3355C136.053 67.3852 136.144 67.4225 136.26 67.4474C136.377 67.4704 136.526 67.4819 136.709 67.4819H137.322V67.2551C137.322 67.1097 137.299 66.9787 137.255 66.862C137.211 66.7453 137.148 66.6467 137.067 66.5664C136.985 66.4841 136.887 66.4219 136.77 66.3798C136.656 66.3358 136.527 66.3138 136.385 66.3138Z" fill="white"/>
<path d="M139.822 67.5278C139.905 67.5278 139.984 67.5268 140.058 67.5249C140.133 67.5211 140.193 67.5125 140.238 67.4991V67.8635C140.177 67.875 140.116 67.8846 140.055 67.8922C140.003 67.8999 139.95 67.9066 139.894 67.9123C139.839 67.9181 139.792 67.9209 139.756 67.9209C139.168 67.9209 138.874 67.6005 138.874 66.9595V65.0941H138.437V64.9162L139.179 64.1471H139.334V64.7383H140.238V65.0941H139.334V66.9394C139.334 67.1308 139.378 67.2771 139.465 67.3785C139.551 67.478 139.671 67.5278 139.822 67.5278Z" fill="white"/>
<path d="M141.281 67.8779H140.821V64.7325H141.281V67.8779ZM140.807 63.8629C140.807 63.7635 140.826 63.6917 140.865 63.6477C140.906 63.6037 140.96 63.5817 141.029 63.5817H141.295V63.8629C141.295 63.9605 141.269 64.0323 141.217 64.0782C141.167 64.1241 141.107 64.1471 141.037 64.1471H140.807V63.8629Z" fill="white"/>
<path d="M144.895 66.2995C144.897 66.8122 144.775 67.213 144.529 67.5019C144.286 67.7889 143.945 67.9334 143.507 67.9353C143.235 67.9353 142.994 67.8693 142.784 67.7373C142.575 67.6053 142.415 67.4158 142.305 67.169C142.196 66.9222 142.141 66.6333 142.141 66.3023C142.141 65.7896 142.265 65.3907 142.512 65.1056C142.76 64.8186 143.098 64.6751 143.526 64.6751C143.938 64.6732 144.269 64.8186 144.518 65.1113C144.77 65.4041 144.895 65.8001 144.895 66.2995ZM142.618 66.3023C142.618 66.7041 142.692 67.0102 142.842 67.2207C142.992 67.4311 143.217 67.5364 143.518 67.5364C143.817 67.5345 144.042 67.4292 144.191 67.2207C144.343 67.0102 144.419 66.7032 144.419 66.2995C144.419 65.8996 144.343 65.5963 144.191 65.3897C144.04 65.1812 143.814 65.0779 143.513 65.0798C143.211 65.0798 142.987 65.1821 142.839 65.3868C142.691 65.5916 142.618 65.8967 142.618 66.3023Z" fill="white"/>
<path d="M146.199 64.7354C146.199 64.9363 146.199 65.0903 146.199 65.1974H146.226C146.317 65.0463 146.459 64.9229 146.653 64.8272C146.849 64.7296 147.054 64.6809 147.268 64.6809C147.638 64.6809 147.901 64.7727 148.058 64.9564C148.217 65.1381 148.296 65.428 148.296 65.8259V67.8779H147.836V65.8432C147.836 65.5868 147.794 65.3955 147.709 65.2692C147.626 65.1429 147.464 65.0798 147.224 65.0798C146.849 65.0989 146.588 65.1984 146.44 65.3782C146.294 65.5581 146.221 65.8527 146.221 66.2622V67.8779H145.761V64.7354H146.199Z" fill="white"/>
<path d="M76.5244 60.4655V37.5221C77.8373 37.5221 78.9482 37.7745 79.8571 38.2793C80.766 38.7841 81.5234 39.4278 82.1293 40.2102C82.7605 40.9674 83.2655 41.7877 83.6442 42.6711C84.0481 43.5545 84.4016 44.3875 84.7046 45.1699C85.0075 45.9271 85.2979 46.5581 85.5756 47.0629C85.8786 47.5677 86.232 47.8201 86.636 47.8201C87.0652 47.8201 87.406 47.5677 87.6585 47.0629C87.911 46.5581 88.1635 45.9271 88.4159 45.1699C88.6937 44.3875 88.9966 43.5545 89.3248 42.6711C89.6531 41.7877 90.1075 40.9674 90.6882 40.2102C91.2689 39.4278 91.9884 38.7841 92.8468 38.2793C93.7305 37.7745 94.854 37.5221 96.2174 37.5221V60.4655H92.4303V49.0317C92.4303 48.9055 92.4303 48.5143 92.4303 47.858C92.4555 47.1765 92.4934 46.4698 92.5439 45.7378C92.5944 44.8797 92.6449 43.9205 92.6954 42.8604H92.0894C91.7865 43.7186 91.4456 44.6273 91.0669 45.5864C90.6882 46.5203 90.2716 47.3911 89.8172 48.1987C89.3627 49.0064 88.8578 49.6753 88.3023 50.2053C87.7469 50.7354 87.1536 51.0004 86.5224 51.0004C85.8659 51.0004 85.2474 50.7354 84.6667 50.2053C84.1113 49.6753 83.5811 49.0064 83.0761 48.1987C82.5964 47.3911 82.142 46.5203 81.7128 45.5864C81.3088 44.6273 80.9427 43.7186 80.6145 42.8604H80.0464C80.0717 43.8953 80.1095 44.8418 80.16 45.7C80.2105 46.4319 80.2484 47.1387 80.2737 47.8201C80.2989 48.4764 80.3115 48.8802 80.3115 49.0317V60.4655H76.5244Z" fill="white"/>
<path d="M109.252 47.7444C110.086 47.7192 110.856 47.6308 111.563 47.4794C112.295 47.3027 112.926 47.0503 113.456 46.7222C113.986 46.3688 114.39 45.9019 114.668 45.3214C114.971 44.7408 115.122 44.0089 115.122 43.1255C115.122 42.1916 114.794 41.5606 114.138 41.2324C113.507 40.9043 112.762 40.7403 111.903 40.7403C111.474 40.7403 110.994 40.7529 110.464 40.7781C109.934 40.8034 109.429 40.8286 108.949 40.8538C108.394 40.8791 107.839 40.9043 107.283 40.9296V60.4655H103.42V38.6201C103.9 38.4939 104.481 38.3677 105.162 38.2415C105.844 38.1153 106.576 38.0143 107.359 37.9386C108.142 37.8376 108.949 37.7619 109.783 37.7114C110.616 37.6357 111.424 37.5978 112.206 37.5978C113.115 37.5978 113.974 37.6862 114.782 37.8629C115.615 38.0143 116.334 38.292 116.94 38.6958C117.571 39.0744 118.064 39.6044 118.417 40.2859C118.796 40.9674 118.985 41.8382 118.985 42.8983C118.985 43.706 118.846 44.4884 118.569 45.2456C118.291 46.0028 117.9 46.6843 117.395 47.2901C116.915 47.8706 116.334 48.3628 115.653 48.7667C114.996 49.1453 114.277 49.3724 113.494 49.4481V49.8267C114.15 50.3568 114.807 50.9878 115.463 51.7198C116.145 52.4517 116.751 53.272 117.281 54.1807C117.837 55.0893 118.278 56.0737 118.607 57.1338C118.96 58.1939 119.137 59.3045 119.137 60.4655H115.236C115.236 59.4811 115.034 58.4337 114.63 57.3231C114.251 56.1873 113.759 55.1398 113.153 54.1807C112.547 53.1963 111.891 52.3886 111.184 51.7576C110.502 51.1014 109.858 50.7733 109.252 50.7733V47.7444Z" fill="white"/>
<path d="M124.621 60.4655V37.7493H128.597V60.4655H124.621Z" fill="white"/>
<path d="M138.563 60.4655V51.644C138.083 50.9878 137.642 50.1422 137.238 49.1074C136.834 48.0473 136.404 46.9998 135.95 45.965C135.496 44.9301 134.991 44.0215 134.435 43.239C133.905 42.4314 133.286 41.9644 132.58 41.8382V37.5978C133.514 37.5978 134.359 37.9133 135.117 38.5444C135.874 39.1501 136.569 39.9452 137.2 40.9296C137.831 41.9139 138.412 43.0245 138.942 44.2613C139.472 45.4728 139.964 46.6843 140.419 47.8959H140.798C141.479 46.3562 142.11 44.9554 142.691 43.6934C143.272 42.4314 143.84 41.346 144.395 40.4374C144.976 39.5287 145.582 38.8346 146.213 38.3551C146.844 37.8502 147.539 37.5978 148.296 37.5978V41.8382C147.665 41.9896 147.072 42.4692 146.516 43.2769C145.986 44.0846 145.481 45.0059 145.001 46.0407C144.547 47.0503 144.092 48.0852 143.638 49.1453C143.209 50.1801 142.779 51.013 142.35 51.644V60.4655H138.563Z" fill="white"/>
<rect width="59.8889" height="59.8889" fill="#FFD500"/>
<path fill-rule="evenodd" clip-rule="evenodd" d="M47.7794 39.7255L49.3901 41.3363L49.3901 42.1416L48.5848 42.1417L46.974 40.5309L46.974 39.7255L47.7794 39.7255Z" fill="#124EAD"/>
<path fill-rule="evenodd" clip-rule="evenodd" d="M48.5844 39.7255L46.9736 41.3363L46.9737 42.1416L47.779 42.1417L49.3898 40.5309L49.3898 39.7255L48.5844 39.7255Z" fill="#124EAD"/>
<path fill-rule="evenodd" clip-rule="evenodd" d="M47.7794 20.3965L49.3901 18.7858L49.3901 17.9805L48.5848 17.9804L46.974 19.5912L46.974 20.3966L47.7794 20.3965Z" fill="#124EAD"/>
<path fill-rule="evenodd" clip-rule="evenodd" d="M48.5844 20.3965L46.9736 18.7858L46.9737 17.9805L47.779 17.9804L49.3898 19.5912L49.3898 20.3966L48.5844 20.3965Z" fill="#124EAD"/>
<path fill-rule="evenodd" clip-rule="evenodd" d="M12.3427 39.7255L10.7319 41.3363L10.732 42.1416L11.5373 42.1417L13.1481 40.5309L13.1481 39.7255L12.3427 39.7255Z" fill="#124EAD"/>
<path fill-rule="evenodd" clip-rule="evenodd" d="M11.5377 39.7255L13.1484 41.3363L13.1484 42.1416L12.3431 42.1417L10.7323 40.5309L10.7323 39.7255L11.5377 39.7255Z" fill="#124EAD"/>
<path fill-rule="evenodd" clip-rule="evenodd" d="M12.3427 20.3966L10.7319 18.7858L10.732 17.9805L11.5373 17.9804L13.1481 19.5912L13.1481 20.3966L12.3427 20.3966Z" fill="#124EAD"/>
<path fill-rule="evenodd" clip-rule="evenodd" d="M11.5372 20.3966L13.1479 18.7858L13.1479 17.9805L12.3426 17.9804L10.7318 19.5912L10.7318 20.3966L11.5372 20.3966Z" fill="#124EAD"/>
<path fill-rule="evenodd" clip-rule="evenodd" d="M40.5309 46.9739L42.1416 48.5847L42.1416 49.39L41.3362 49.3901L39.7255 47.7793L39.7254 46.9739L40.5309 46.9739Z" fill="#124EAD"/>
<path fill-rule="evenodd" clip-rule="evenodd" d="M41.3363 46.9739L39.7256 48.5847L39.7256 49.39L40.531 49.3901L42.1417 47.7793L42.1418 46.9739L41.3363 46.9739Z" fill="#124EAD"/>
<path fill-rule="evenodd" clip-rule="evenodd" d="M40.5309 13.1482L42.1416 11.5374L42.1416 10.7321L41.3362 10.732L39.7255 12.3428L39.7254 13.1482L40.5309 13.1482Z" fill="#124EAD"/>
<path fill-rule="evenodd" clip-rule="evenodd" d="M41.3363 13.1482L39.7256 11.5374L39.7256 10.7321L40.531 10.732L42.1417 12.3428L42.1418 13.1482L41.3363 13.1482Z" fill="#124EAD"/>
<path fill-rule="evenodd" clip-rule="evenodd" d="M19.5912 46.9739L17.9805 48.5847L17.9805 49.39L18.7858 49.3901L20.3966 47.7793L20.3966 46.9739L19.5912 46.9739Z" fill="#124EAD"/>
<path fill-rule="evenodd" clip-rule="evenodd" d="M18.7857 46.9739L20.3965 48.5847L20.3964 49.39L19.5911 49.3901L17.9804 47.7793L17.9803 46.9739L18.7857 46.9739Z" fill="#124EAD"/>
<path fill-rule="evenodd" clip-rule="evenodd" d="M19.5912 13.1481L17.9805 11.5373L17.9805 10.732L18.7858 10.732L20.3966 12.3427L20.3966 13.1481L19.5912 13.1481Z" fill="#124EAD"/>
<path fill-rule="evenodd" clip-rule="evenodd" d="M18.7857 13.1481L20.3965 11.5373L20.3964 10.732L19.5911 10.732L17.9804 12.3427L17.9803 13.1481L18.7857 13.1481Z" fill="#124EAD"/>
<path fill-rule="evenodd" clip-rule="evenodd" d="M45.3629 44.5578L46.9736 46.1686L46.9736 46.9739L46.1683 46.9739L44.5575 45.3632L44.5575 44.5578L45.3629 44.5578Z" fill="#124EAD"/>
<path fill-rule="evenodd" clip-rule="evenodd" d="M46.1684 44.5578L44.5576 46.1686L44.5577 46.9739L45.363 46.9739L46.9737 45.3632L46.9738 44.5578L46.1684 44.5578Z" fill="#124EAD"/>
<path fill-rule="evenodd" clip-rule="evenodd" d="M45.3629 15.5643L46.9736 13.9535L46.9736 13.1482L46.1683 13.1481L44.5575 14.7589L44.5575 15.5643L45.3629 15.5643Z" fill="#124EAD"/>
<path fill-rule="evenodd" clip-rule="evenodd" d="M46.1684 15.5643L44.5576 13.9535L44.5577 13.1482L45.363 13.1481L46.9737 14.7589L46.9738 15.5643L46.1684 15.5643Z" fill="#124EAD"/>
<path fill-rule="evenodd" clip-rule="evenodd" d="M14.7592 44.5578L13.1484 46.1686L13.1485 46.9739L13.9538 46.9739L15.5646 45.3632L15.5646 44.5578L14.7592 44.5578Z" fill="#124EAD"/>
<path fill-rule="evenodd" clip-rule="evenodd" d="M13.9537 44.5578L15.5645 46.1686L15.5644 46.9739L14.7591 46.9739L13.1483 45.3632L13.1483 44.5578L13.9537 44.5578Z" fill="#124EAD"/>
<path fill-rule="evenodd" clip-rule="evenodd" d="M14.7592 15.5642L13.1484 13.9535L13.1485 13.1481L13.9538 13.1481L15.5646 14.7589L15.5646 15.5643L14.7592 15.5642Z" fill="#124EAD"/>
<path fill-rule="evenodd" clip-rule="evenodd" d="M13.9537 15.5642L15.5645 13.9535L15.5644 13.1481L14.7591 13.1481L13.1483 14.7589L13.1483 15.5643L13.9537 15.5642Z" fill="#124EAD"/>
<path fill-rule="evenodd" clip-rule="evenodd" d="M42.9469 42.1417L44.5576 43.7524L44.5576 44.5578L43.7522 44.5578L42.1415 42.947L42.1414 42.1416L42.9469 42.1417Z" fill="#124EAD"/>
<path fill-rule="evenodd" clip-rule="evenodd" d="M43.7524 42.1417L42.1416 43.7524L42.1416 44.5578L42.947 44.5578L44.5577 42.947L44.5578 42.1416L43.7524 42.1417Z" fill="#124EAD"/>
<path fill-rule="evenodd" clip-rule="evenodd" d="M42.9469 17.9804L44.5576 16.3696L44.5576 15.5643L43.7522 15.5643L42.1415 17.175L42.1414 17.9804L42.9469 17.9804Z" fill="#124EAD"/>
<path fill-rule="evenodd" clip-rule="evenodd" d="M43.7524 17.9804L42.1416 16.3696L42.1416 15.5643L42.947 15.5643L44.5577 17.175L44.5578 17.9804L43.7524 17.9804Z" fill="#124EAD"/>
<path fill-rule="evenodd" clip-rule="evenodd" d="M17.1752 42.1417L15.5645 43.7524L15.5645 44.5578L16.3698 44.5578L17.9806 42.947L17.9806 42.1416L17.1752 42.1417Z" fill="#124EAD"/>
<path fill-rule="evenodd" clip-rule="evenodd" d="M16.3697 42.1417L17.9805 43.7524L17.9804 44.5578L17.1751 44.5578L15.5643 42.947L15.5643 42.1416L16.3697 42.1417Z" fill="#124EAD"/>
<path fill-rule="evenodd" clip-rule="evenodd" d="M17.1752 17.9804L15.5645 16.3696L15.5645 15.5643L16.3698 15.5642L17.9806 17.175L17.9806 17.9804L17.1752 17.9804Z" fill="#124EAD"/>
<path fill-rule="evenodd" clip-rule="evenodd" d="M16.3697 17.9804L17.9805 16.3696L17.9804 15.5643L17.1751 15.5642L15.5643 17.175L15.5643 17.9804L16.3697 17.9804Z" fill="#124EAD"/>
<path fill-rule="evenodd" clip-rule="evenodd" d="M40.5309 39.7256L42.1416 41.3363L42.1416 42.1416L41.3362 42.1417L39.7255 40.5309L39.7254 39.7255L40.5309 39.7256Z" fill="#124EAD"/>
<path fill-rule="evenodd" clip-rule="evenodd" d="M41.3363 39.7256L39.7256 41.3363L39.7256 42.1416L40.531 42.1417L42.1417 40.5309L42.1418 39.7255L41.3363 39.7256Z" fill="#124EAD"/>
<path fill-rule="evenodd" clip-rule="evenodd" d="M40.5309 20.3966L42.1416 18.7858L42.1416 17.9805L41.3362 17.9804L39.7255 19.5912L39.7254 20.3966L40.5309 20.3966Z" fill="#124EAD"/>
<path fill-rule="evenodd" clip-rule="evenodd" d="M41.3363 20.3966L39.7256 18.7858L39.7256 17.9805L40.531 17.9804L42.1417 19.5912L42.1418 20.3966L41.3363 20.3966Z" fill="#124EAD"/>
<path fill-rule="evenodd" clip-rule="evenodd" d="M19.5912 39.7255L17.9805 41.3363L17.9805 42.1416L18.7858 42.1417L20.3966 40.5309L20.3966 39.7255L19.5912 39.7255Z" fill="#124EAD"/>
<path fill-rule="evenodd" clip-rule="evenodd" d="M18.7857 39.7255L20.3965 41.3363L20.3964 42.1416L19.5911 42.1417L17.9804 40.5309L17.9803 39.7255L18.7857 39.7255Z" fill="#124EAD"/>
<path fill-rule="evenodd" clip-rule="evenodd" d="M19.5912 20.3965L17.9805 18.7858L17.9805 17.9805L18.7858 17.9804L20.3966 19.5912L20.3966 20.3966L19.5912 20.3965Z" fill="#124EAD"/>
<path fill-rule="evenodd" clip-rule="evenodd" d="M18.7857 20.3965L20.3965 18.7858L20.3964 17.9805L19.5911 17.9804L17.9804 19.5912L17.9803 20.3966L18.7857 20.3965Z" fill="#124EAD"/>
<path fill-rule="evenodd" clip-rule="evenodd" d="M45.3629 42.1417L46.9736 43.7524L46.9736 44.5578L46.1683 44.5578L44.5575 42.947L44.5575 42.1416L45.3629 42.1417Z" fill="#0062FF"/>
<path fill-rule="evenodd" clip-rule="evenodd" d="M46.1684 42.1417L44.5576 43.7524L44.5577 44.5578L45.363 44.5578L46.9737 42.947L46.9738 42.1416L46.1684 42.1417Z" fill="#0062FF"/>
<path fill-rule="evenodd" clip-rule="evenodd" d="M45.3629 17.9804L46.9736 16.3696L46.9736 15.5643L46.1683 15.5643L44.5575 17.175L44.5575 17.9804L45.3629 17.9804Z" fill="#0062FF"/>
<path fill-rule="evenodd" clip-rule="evenodd" d="M46.1684 17.9804L44.5576 16.3696L44.5577 15.5643L45.363 15.5643L46.9737 17.175L46.9738 17.9804L46.1684 17.9804Z" fill="#0062FF"/>
<path fill-rule="evenodd" clip-rule="evenodd" d="M14.7592 42.1417L13.1484 43.7524L13.1485 44.5578L13.9538 44.5578L15.5646 42.947L15.5646 42.1416L14.7592 42.1417Z" fill="#0062FF"/>
<path fill-rule="evenodd" clip-rule="evenodd" d="M13.9537 42.1417L15.5645 43.7524L15.5644 44.5578L14.7591 44.5578L13.1483 42.947L13.1483 42.1416L13.9537 42.1417Z" fill="#0062FF"/>
<path fill-rule="evenodd" clip-rule="evenodd" d="M14.7592 17.9804L13.1484 16.3696L13.1485 15.5643L13.9538 15.5642L15.5646 17.175L15.5646 17.9804L14.7592 17.9804Z" fill="#0062FF"/>
<path fill-rule="evenodd" clip-rule="evenodd" d="M13.9537 17.9804L15.5645 16.3696L15.5644 15.5643L14.7591 15.5642L13.1483 17.175L13.1483 17.9804L13.9537 17.9804Z" fill="#0062FF"/>
<path fill-rule="evenodd" clip-rule="evenodd" d="M42.9469 44.5578L44.5576 46.1686L44.5576 46.9739L43.7522 46.9739L42.1415 45.3632L42.1414 44.5578L42.9469 44.5578Z" fill="#0062FF"/>
<path fill-rule="evenodd" clip-rule="evenodd" d="M43.7524 44.5578L42.1416 46.1686L42.1416 46.9739L42.947 46.9739L44.5577 45.3632L44.5578 44.5578L43.7524 44.5578Z" fill="#0062FF"/>
<path fill-rule="evenodd" clip-rule="evenodd" d="M42.9469 15.5643L44.5576 13.9535L44.5576 13.1482L43.7522 13.1481L42.1415 14.7589L42.1414 15.5643L42.9469 15.5643Z" fill="#0062FF"/>
<path fill-rule="evenodd" clip-rule="evenodd" d="M43.7524 15.5643L42.1416 13.9535L42.1416 13.1482L42.947 13.1481L44.5577 14.7589L44.5578 15.5643L43.7524 15.5643Z" fill="#0062FF"/>
<path fill-rule="evenodd" clip-rule="evenodd" d="M17.1752 44.5578L15.5645 46.1685L15.5645 46.9739L16.3698 46.9739L17.9806 45.3632L17.9806 44.5577L17.1752 44.5578Z" fill="#0062FF"/>
<path fill-rule="evenodd" clip-rule="evenodd" d="M16.3697 44.5578L17.9805 46.1685L17.9804 46.9739L17.1751 46.9739L15.5643 45.3632L15.5643 44.5577L16.3697 44.5578Z" fill="#0062FF"/>
<path fill-rule="evenodd" clip-rule="evenodd" d="M17.1752 15.5642L15.5645 13.9535L15.5645 13.1481L16.3698 13.1481L17.9806 14.7589L17.9806 15.5643L17.1752 15.5642Z" fill="#0062FF"/>
<path fill-rule="evenodd" clip-rule="evenodd" d="M16.3697 15.5642L17.9805 13.9535L17.9804 13.1481L17.1751 13.1481L15.5643 14.7589L15.5643 15.5643L16.3697 15.5642Z" fill="#0062FF"/>
<path fill-rule="evenodd" clip-rule="evenodd" d="M42.9469 39.7255L44.5576 41.3363L44.5576 42.1416L43.7522 42.1417L42.1415 40.5309L42.1414 39.7255L42.9469 39.7255Z" fill="#0062FF"/>
<path fill-rule="evenodd" clip-rule="evenodd" d="M43.7524 39.7255L42.1416 41.3363L42.1416 42.1416L42.947 42.1417L44.5577 40.5309L44.5578 39.7255L43.7524 39.7255Z" fill="#0062FF"/>
<path fill-rule="evenodd" clip-rule="evenodd" d="M42.9469 20.3966L44.5576 18.7858L44.5576 17.9805L43.7522 17.9804L42.1415 19.5912L42.1414 20.3966L42.9469 20.3966Z" fill="#0062FF"/>
<path fill-rule="evenodd" clip-rule="evenodd" d="M43.7524 20.3966L42.1416 18.7858L42.1416 17.9805L42.947 17.9804L44.5577 19.5912L44.5578 20.3966L43.7524 20.3966Z" fill="#0062FF"/>
<path fill-rule="evenodd" clip-rule="evenodd" d="M17.1752 39.7255L15.5645 41.3363L15.5645 42.1416L16.3698 42.1417L17.9806 40.5309L17.9806 39.7255L17.1752 39.7255Z" fill="#0062FF"/>
<path fill-rule="evenodd" clip-rule="evenodd" d="M16.3697 39.7255L17.9805 41.3363L17.9804 42.1416L17.1751 42.1417L15.5643 40.5309L15.5643 39.7255L16.3697 39.7255Z" fill="#0062FF"/>
<path fill-rule="evenodd" clip-rule="evenodd" d="M17.1752 20.3965L15.5645 18.7858L15.5645 17.9805L16.3698 17.9804L17.9806 19.5912L17.9806 20.3966L17.1752 20.3965Z" fill="#0062FF"/>
<path fill-rule="evenodd" clip-rule="evenodd" d="M16.3697 20.3965L17.9805 18.7858L17.9804 17.9805L17.1751 17.9804L15.5643 19.5912L15.5643 20.3966L16.3697 20.3965Z" fill="#0062FF"/>
<path fill-rule="evenodd" clip-rule="evenodd" d="M42.9469 34.8933L44.5576 36.504L44.5576 37.3094L43.7522 37.3094L42.1415 35.6987L42.1414 34.8932L42.9469 34.8933Z" fill="#0062FF"/>
<path fill-rule="evenodd" clip-rule="evenodd" d="M43.7524 34.8933L42.1416 36.504L42.1416 37.3094L42.947 37.3094L44.5577 35.6987L44.5578 34.8932L43.7524 34.8933Z" fill="#0062FF"/>
<path fill-rule="evenodd" clip-rule="evenodd" d="M42.9469 25.2287L44.5576 23.6179L44.5576 22.8126L43.7522 22.8126L42.1415 24.4233L42.1414 25.2287L42.9469 25.2287Z" fill="#0062FF"/>
<path fill-rule="evenodd" clip-rule="evenodd" d="M43.7524 25.2287L42.1416 23.6179L42.1416 22.8126L42.947 22.8126L44.5577 24.4233L44.5578 25.2287L43.7524 25.2287Z" fill="#0062FF"/>
<path fill-rule="evenodd" clip-rule="evenodd" d="M17.1752 34.8933L15.5645 36.504L15.5645 37.3093L16.3698 37.3094L17.9806 35.6986L17.9806 34.8932L17.1752 34.8933Z" fill="#0062FF"/>
<path fill-rule="evenodd" clip-rule="evenodd" d="M16.3697 34.8933L17.9805 36.504L17.9804 37.3093L17.1751 37.3094L15.5643 35.6986L15.5643 34.8932L16.3697 34.8933Z" fill="#0062FF"/>
<path fill-rule="evenodd" clip-rule="evenodd" d="M17.1752 25.2288L15.5645 23.618L15.5645 22.8127L16.3698 22.8127L17.9806 24.4234L17.9806 25.2288L17.1752 25.2288Z" fill="#0062FF"/>
<path fill-rule="evenodd" clip-rule="evenodd" d="M16.3697 25.2288L17.9805 23.618L17.9804 22.8127L17.1751 22.8127L15.5643 24.4234L15.5643 25.2288L16.3697 25.2288Z" fill="#0062FF"/>
<path fill-rule="evenodd" clip-rule="evenodd" d="M42.9469 32.4771L44.5576 34.0879L44.5576 34.8932L43.7522 34.8932L42.1415 33.2825L42.1414 32.4771L42.9469 32.4771Z" fill="#0062FF"/>
<path fill-rule="evenodd" clip-rule="evenodd" d="M43.7524 32.4771L42.1416 34.0879L42.1416 34.8932L42.947 34.8932L44.5577 33.2825L44.5578 32.4771L43.7524 32.4771Z" fill="#0062FF"/>
<path fill-rule="evenodd" clip-rule="evenodd" d="M42.9469 27.6448L44.5576 26.034L44.5576 25.2287L43.7522 25.2287L42.1415 26.8394L42.1414 27.6448L42.9469 27.6448Z" fill="#0062FF"/>
<path fill-rule="evenodd" clip-rule="evenodd" d="M43.7524 27.6448L42.1416 26.034L42.1416 25.2287L42.947 25.2287L44.5577 26.8394L44.5578 27.6448L43.7524 27.6448Z" fill="#0062FF"/>
<path fill-rule="evenodd" clip-rule="evenodd" d="M17.1752 32.4771L15.5645 34.0879L15.5645 34.8932L16.3698 34.8932L17.9806 33.2825L17.9806 32.4771L17.1752 32.4771Z" fill="#0062FF"/>
<path fill-rule="evenodd" clip-rule="evenodd" d="M16.3697 32.4771L17.9805 34.0879L17.9804 34.8932L17.1751 34.8932L15.5643 33.2825L15.5643 32.4771L16.3697 32.4771Z" fill="#0062FF"/>
<path fill-rule="evenodd" clip-rule="evenodd" d="M17.1752 27.6449L15.5645 26.0342L15.5645 25.2289L16.3698 25.2288L17.9806 26.8396L17.9806 27.645L17.1752 27.6449Z" fill="#0062FF"/>
<path fill-rule="evenodd" clip-rule="evenodd" d="M16.3697 27.6449L17.9805 26.0342L17.9804 25.2289L17.1751 25.2288L15.5643 26.8396L15.5643 27.645L16.3697 27.6449Z" fill="#0062FF"/>
<path fill-rule="evenodd" clip-rule="evenodd" d="M42.9469 30.061L44.5576 31.6717L44.5576 32.4771L43.7522 32.4771L42.1415 30.8664L42.1414 30.0609L42.9469 30.061Z" fill="#0062FF"/>
<path fill-rule="evenodd" clip-rule="evenodd" d="M43.7524 30.061L42.1416 31.6717L42.1416 32.4771L42.947 32.4771L44.5577 30.8664L44.5578 30.0609L43.7524 30.061Z" fill="#0062FF"/>
<path fill-rule="evenodd" clip-rule="evenodd" d="M42.9469 30.0609L44.5576 28.4502L44.5576 27.6449L43.7522 27.6448L42.1415 29.2556L42.1414 30.061L42.9469 30.0609Z" fill="#0062FF"/>
<path fill-rule="evenodd" clip-rule="evenodd" d="M43.7524 30.0609L42.1416 28.4502L42.1416 27.6449L42.947 27.6448L44.5577 29.2556L44.5578 30.061L43.7524 30.0609Z" fill="#0062FF"/>
<path fill-rule="evenodd" clip-rule="evenodd" d="M17.1752 30.061L15.5645 31.6717L15.5645 32.477L16.3698 32.4771L17.9806 30.8663L17.9806 30.0609L17.1752 30.061Z" fill="#0062FF"/>
<path fill-rule="evenodd" clip-rule="evenodd" d="M16.3697 30.061L17.9805 31.6717L17.9804 32.477L17.1751 32.4771L15.5643 30.8663L15.5643 30.0609L16.3697 30.061Z" fill="#0062FF"/>
<path fill-rule="evenodd" clip-rule="evenodd" d="M17.1752 30.0609L15.5645 28.4502L15.5645 27.6449L16.3698 27.6448L17.9806 29.2556L17.9806 30.061L17.1752 30.0609Z" fill="#0062FF"/>
<path fill-rule="evenodd" clip-rule="evenodd" d="M16.3697 30.0609L17.9805 28.4502L17.9804 27.6449L17.1751 27.6448L15.5643 29.2556L15.5643 30.061L16.3697 30.0609Z" fill="#0062FF"/>
<path fill-rule="evenodd" clip-rule="evenodd" d="M40.5309 30.061L42.1416 31.6717L42.1416 32.4771L41.3362 32.4771L39.7255 30.8664L39.7254 30.0609L40.5309 30.061Z" fill="#0062FF"/>
<path fill-rule="evenodd" clip-rule="evenodd" d="M41.3363 30.061L39.7256 31.6717L39.7256 32.4771L40.531 32.4771L42.1417 30.8664L42.1418 30.0609L41.3363 30.061Z" fill="#0062FF"/>
<path fill-rule="evenodd" clip-rule="evenodd" d="M40.5309 30.061L42.1416 28.4502L42.1416 27.6449L41.3362 27.6448L39.7255 29.2556L39.7254 30.061L40.5309 30.061Z" fill="#0062FF"/>
<path fill-rule="evenodd" clip-rule="evenodd" d="M41.3363 30.061L39.7256 28.4502L39.7256 27.6449L40.531 27.6448L42.1417 29.2556L42.1418 30.061L41.3363 30.061Z" fill="#0062FF"/>
<path fill-rule="evenodd" clip-rule="evenodd" d="M19.5912 30.0611L17.9805 31.6719L17.9805 32.4772L18.7858 32.4772L20.3966 30.8665L20.3966 30.0611L19.5912 30.0611Z" fill="#0062FF"/>
<path fill-rule="evenodd" clip-rule="evenodd" d="M18.7857 30.0611L20.3965 31.6719L20.3964 32.4772L19.5911 32.4772L17.9804 30.8665L17.9803 30.0611L18.7857 30.0611Z" fill="#0062FF"/>
<path fill-rule="evenodd" clip-rule="evenodd" d="M19.5912 30.0611L17.9805 28.4503L17.9805 27.645L18.7858 27.6449L20.3966 29.2557L20.3966 30.0611L19.5912 30.0611Z" fill="#0062FF"/>
<path fill-rule="evenodd" clip-rule="evenodd" d="M18.7857 30.0611L20.3965 28.4503L20.3964 27.645L19.5911 27.6449L17.9804 29.2557L17.9803 30.0611L18.7857 30.0611Z" fill="#0062FF"/>
<path fill-rule="evenodd" clip-rule="evenodd" d="M38.1148 30.061L39.7256 31.6717L39.7255 32.4771L38.9202 32.4771L37.3095 30.8664L37.3094 30.0609L38.1148 30.061Z" fill="#0062FF"/>
<path fill-rule="evenodd" clip-rule="evenodd" d="M38.9203 30.061L37.3096 31.6717L37.3096 32.4771L38.1149 32.4771L39.7257 30.8664L39.7257 30.0609L38.9203 30.061Z" fill="#0062FF"/>
<path fill-rule="evenodd" clip-rule="evenodd" d="M38.1148 30.061L39.7256 28.4502L39.7255 27.6449L38.9202 27.6448L37.3095 29.2556L37.3094 30.061L38.1148 30.061Z" fill="#0062FF"/>
<path fill-rule="evenodd" clip-rule="evenodd" d="M38.9203 30.061L37.3096 28.4502L37.3096 27.6449L38.1149 27.6448L39.7257 29.2556L39.7257 30.061L38.9203 30.061Z" fill="#0062FF"/>
<path fill-rule="evenodd" clip-rule="evenodd" d="M22.0072 30.0611L20.3965 31.6718L20.3965 32.4772L21.2019 32.4772L22.8126 30.8665L22.8127 30.061L22.0072 30.0611Z" fill="#0062FF"/>
<path fill-rule="evenodd" clip-rule="evenodd" d="M21.2017 30.0611L22.8125 31.6718L22.8125 32.4772L22.0071 32.4772L20.3964 30.8665L20.3963 30.061L21.2017 30.0611Z" fill="#0062FF"/>
<path fill-rule="evenodd" clip-rule="evenodd" d="M22.0072 30.061L20.3965 28.4503L20.3965 27.6449L21.2019 27.6449L22.8126 29.2556L22.8127 30.0611L22.0072 30.061Z" fill="#0062FF"/>
<path fill-rule="evenodd" clip-rule="evenodd" d="M21.2017 30.061L22.8125 28.4503L22.8125 27.6449L22.0071 27.6449L20.3964 29.2556L20.3963 30.0611L21.2017 30.061Z" fill="#0062FF"/>
<path fill-rule="evenodd" clip-rule="evenodd" d="M40.5309 34.8933L42.1416 36.504L42.1416 37.3094L41.3362 37.3094L39.7255 35.6987L39.7254 34.8932L40.5309 34.8933Z" fill="#0062FF"/>
<path fill-rule="evenodd" clip-rule="evenodd" d="M41.3363 34.8933L39.7256 36.504L39.7256 37.3094L40.531 37.3094L42.1417 35.6987L42.1418 34.8932L41.3363 34.8933Z" fill="#0062FF"/>
<path fill-rule="evenodd" clip-rule="evenodd" d="M40.5309 25.2287L42.1416 23.6179L42.1416 22.8126L41.3362 22.8126L39.7255 24.4233L39.7254 25.2287L40.5309 25.2287Z" fill="#0062FF"/>
<path fill-rule="evenodd" clip-rule="evenodd" d="M41.3363 25.2287L39.7256 23.6179L39.7256 22.8126L40.531 22.8126L42.1417 24.4233L42.1418 25.2287L41.3363 25.2287Z" fill="#0062FF"/>
<path fill-rule="evenodd" clip-rule="evenodd" d="M19.5912 34.8933L17.9805 36.504L17.9805 37.3093L18.7858 37.3094L20.3966 35.6986L20.3966 34.8932L19.5912 34.8933Z" fill="#0062FF"/>
<path fill-rule="evenodd" clip-rule="evenodd" d="M18.7857 34.8933L20.3965 36.504L20.3964 37.3093L19.5911 37.3094L17.9804 35.6986L17.9803 34.8932L18.7857 34.8933Z" fill="#0062FF"/>
<path fill-rule="evenodd" clip-rule="evenodd" d="M19.5912 25.2288L17.9805 23.618L17.9805 22.8127L18.7858 22.8127L20.3966 24.4234L20.3966 25.2288L19.5912 25.2288Z" fill="#0062FF"/>
<path fill-rule="evenodd" clip-rule="evenodd" d="M18.7857 25.2288L20.3965 23.618L20.3964 22.8127L19.5911 22.8127L17.9804 24.4234L17.9803 25.2288L18.7857 25.2288Z" fill="#0062FF"/>
<path fill-rule="evenodd" clip-rule="evenodd" d="M38.1148 34.8933L39.7256 36.5041L39.7255 37.3094L38.9202 37.3094L37.3095 35.6987L37.3094 34.8933L38.1148 34.8933Z" fill="#0062FF"/>
<path fill-rule="evenodd" clip-rule="evenodd" d="M38.9203 34.8933L37.3096 36.5041L37.3096 37.3094L38.1149 37.3094L39.7257 35.6987L39.7257 34.8933L38.9203 34.8933Z" fill="#0062FF"/>
<path fill-rule="evenodd" clip-rule="evenodd" d="M38.1148 25.2287L39.7256 23.618L39.7255 22.8126L38.9202 22.8126L37.3095 24.4233L37.3094 25.2288L38.1148 25.2287Z" fill="#0062FF"/>
<path fill-rule="evenodd" clip-rule="evenodd" d="M38.9203 25.2287L37.3096 23.618L37.3096 22.8126L38.1149 22.8126L39.7257 24.4233L39.7257 25.2288L38.9203 25.2287Z" fill="#0062FF"/>
<path fill-rule="evenodd" clip-rule="evenodd" d="M22.0072 34.8933L20.3965 36.504L20.3965 37.3093L21.2019 37.3094L22.8126 35.6986L22.8127 34.8932L22.0072 34.8933Z" fill="#0062FF"/>
<path fill-rule="evenodd" clip-rule="evenodd" d="M21.2017 34.8933L22.8125 36.504L22.8125 37.3093L22.0071 37.3094L20.3964 35.6986L20.3963 34.8932L21.2017 34.8933Z" fill="#0062FF"/>
<path fill-rule="evenodd" clip-rule="evenodd" d="M22.0072 25.2288L20.3965 23.618L20.3965 22.8127L21.2019 22.8127L22.8126 24.4234L22.8127 25.2288L22.0072 25.2288Z" fill="#0062FF"/>
<path fill-rule="evenodd" clip-rule="evenodd" d="M21.2017 25.2288L22.8125 23.618L22.8125 22.8127L22.0071 22.8127L20.3964 24.4234L20.3963 25.2288L21.2017 25.2288Z" fill="#0062FF"/>
<path fill-rule="evenodd" clip-rule="evenodd" d="M38.1148 37.3094L39.7256 38.9201L39.7255 39.7255L38.9202 39.7255L37.3095 38.1148L37.3094 37.3094L38.1148 37.3094Z" fill="#0062FF"/>
<path fill-rule="evenodd" clip-rule="evenodd" d="M38.9203 37.3094L37.3096 38.9201L37.3096 39.7255L38.1149 39.7255L39.7257 38.1148L39.7257 37.3094L38.9203 37.3094Z" fill="#0062FF"/>
<path fill-rule="evenodd" clip-rule="evenodd" d="M38.1148 22.8125L39.7256 21.2018L39.7255 20.3965L38.9202 20.3964L37.3095 22.0072L37.3094 22.8126L38.1148 22.8125Z" fill="#0062FF"/>
<path fill-rule="evenodd" clip-rule="evenodd" d="M38.9203 22.8125L37.3096 21.2018L37.3096 20.3965L38.1149 20.3964L39.7257 22.0072L39.7257 22.8126L38.9203 22.8125Z" fill="#0062FF"/>
<path fill-rule="evenodd" clip-rule="evenodd" d="M22.0072 37.3094L20.3965 38.9201L20.3965 39.7254L21.2019 39.7255L22.8126 38.1147L22.8127 37.3093L22.0072 37.3094Z" fill="#0062FF"/>
<path fill-rule="evenodd" clip-rule="evenodd" d="M21.2017 37.3094L22.8125 38.9201L22.8125 39.7254L22.0071 39.7255L20.3964 38.1147L20.3963 37.3093L21.2017 37.3094Z" fill="#0062FF"/>
<path fill-rule="evenodd" clip-rule="evenodd" d="M22.0072 22.8126L20.3965 21.2019L20.3965 20.3965L21.2019 20.3965L22.8126 22.0072L22.8127 22.8127L22.0072 22.8126Z" fill="#0062FF"/>
<path fill-rule="evenodd" clip-rule="evenodd" d="M21.2017 22.8126L22.8125 21.2019L22.8125 20.3965L22.0071 20.3965L20.3964 22.0072L20.3963 22.8127L21.2017 22.8126Z" fill="#0062FF"/>
<path fill-rule="evenodd" clip-rule="evenodd" d="M35.6988 37.3094L37.3096 38.9202L37.3095 39.7255L36.5042 39.7256L34.8934 38.1148L34.8934 37.3094L35.6988 37.3094Z" fill="#0062FF"/>
<path fill-rule="evenodd" clip-rule="evenodd" d="M36.5038 37.3094L34.8931 38.9202L34.8931 39.7255L35.6984 39.7256L37.3092 38.1148L37.3092 37.3094L36.5038 37.3094Z" fill="#0062FF"/>
<path fill-rule="evenodd" clip-rule="evenodd" d="M35.6988 22.8125L37.3096 21.2018L37.3095 20.3965L36.5042 20.3964L34.8934 22.0072L34.8934 22.8126L35.6988 22.8125Z" fill="#0062FF"/>
<path fill-rule="evenodd" clip-rule="evenodd" d="M36.5038 22.8125L34.8931 21.2018L34.8931 20.3965L35.6984 20.3964L37.3092 22.0072L37.3092 22.8126L36.5038 22.8125Z" fill="#0062FF"/>
<path fill-rule="evenodd" clip-rule="evenodd" d="M24.4233 37.3093L22.8125 38.9201L22.8125 39.7254L23.6179 39.7255L25.2286 38.1147L25.2287 37.3093L24.4233 37.3093Z" fill="#0062FF"/>
<path fill-rule="evenodd" clip-rule="evenodd" d="M23.6183 37.3093L25.229 38.9201L25.229 39.7254L24.4236 39.7255L22.8129 38.1147L22.8128 37.3093L23.6183 37.3093Z" fill="#0062FF"/>
<path fill-rule="evenodd" clip-rule="evenodd" d="M24.4233 22.8126L22.8125 21.2019L22.8125 20.3965L23.6179 20.3965L25.2286 22.0072L25.2287 22.8127L24.4233 22.8126Z" fill="#0062FF"/>
<path fill-rule="evenodd" clip-rule="evenodd" d="M23.6183 22.8126L25.229 21.2019L25.229 20.3965L24.4236 20.3965L22.8129 22.0072L22.8128 22.8127L23.6183 22.8126Z" fill="#0062FF"/>
<path fill-rule="evenodd" clip-rule="evenodd" d="M30.8663 37.3094L32.4771 38.9202L32.477 39.7255L31.6717 39.7256L30.0609 38.1148L30.0609 37.3094L30.8663 37.3094Z" fill="#0062FF"/>
<path fill-rule="evenodd" clip-rule="evenodd" d="M31.6718 37.3094L30.061 38.9202L30.0611 39.7255L30.8664 39.7256L32.4772 38.1148L32.4772 37.3094L31.6718 37.3094Z" fill="#0062FF"/>
<path fill-rule="evenodd" clip-rule="evenodd" d="M30.8663 22.8126L32.4771 21.2018L32.477 20.3965L31.6717 20.3965L30.0609 22.0072L30.0609 22.8126L30.8663 22.8126Z" fill="#0062FF"/>
<path fill-rule="evenodd" clip-rule="evenodd" d="M31.6718 22.8126L30.061 21.2018L30.0611 20.3965L30.8664 20.3965L32.4772 22.0072L32.4772 22.8126L31.6718 22.8126Z" fill="#0062FF"/>
<path fill-rule="evenodd" clip-rule="evenodd" d="M29.2558 37.3095L27.645 38.9202L27.6451 39.7256L28.4504 39.7256L30.0611 38.1149L30.0612 37.3094L29.2558 37.3095Z" fill="#0062FF"/>
<path fill-rule="evenodd" clip-rule="evenodd" d="M28.4503 37.3095L30.061 38.9202L30.061 39.7256L29.2557 39.7256L27.6449 38.1149L27.6449 37.3094L28.4503 37.3095Z" fill="#0062FF"/>
<path fill-rule="evenodd" clip-rule="evenodd" d="M29.2558 22.8126L27.645 21.2018L27.6451 20.3965L28.4504 20.3965L30.0611 22.0072L30.0612 22.8126L29.2558 22.8126Z" fill="#0062FF"/>
<path fill-rule="evenodd" clip-rule="evenodd" d="M28.4503 22.8126L30.061 21.2018L30.061 20.3965L29.2557 20.3965L27.6449 22.0072L27.6449 22.8126L28.4503 22.8126Z" fill="#0062FF"/>
<path fill-rule="evenodd" clip-rule="evenodd" d="M35.6988 39.7256L37.3096 41.3363L37.3095 42.1416L36.5042 42.1417L34.8934 40.5309L34.8934 39.7255L35.6988 39.7256Z" fill="#0062FF"/>
<path fill-rule="evenodd" clip-rule="evenodd" d="M36.5038 39.7256L34.8931 41.3363L34.8931 42.1416L35.6984 42.1417L37.3092 40.5309L37.3092 39.7255L36.5038 39.7256Z" fill="#0062FF"/>
<path fill-rule="evenodd" clip-rule="evenodd" d="M35.6988 20.3964L37.3096 18.7857L37.3095 17.9803L36.5042 17.9803L34.8934 19.591L34.8934 20.3965L35.6988 20.3964Z" fill="#0062FF"/>
<path fill-rule="evenodd" clip-rule="evenodd" d="M36.5038 20.3964L34.8931 18.7857L34.8931 17.9803L35.6984 17.9803L37.3092 19.591L37.3092 20.3965L36.5038 20.3964Z" fill="#0062FF"/>
<path fill-rule="evenodd" clip-rule="evenodd" d="M24.4233 39.7255L22.8125 41.3363L22.8125 42.1416L23.6179 42.1416L25.2286 40.5309L25.2287 39.7255L24.4233 39.7255Z" fill="#0062FF"/>
<path fill-rule="evenodd" clip-rule="evenodd" d="M23.6183 39.7255L25.229 41.3363L25.229 42.1416L24.4236 42.1416L22.8129 40.5309L22.8128 39.7255L23.6183 39.7255Z" fill="#0062FF"/>
<path fill-rule="evenodd" clip-rule="evenodd" d="M24.4233 20.3965L22.8125 18.7858L22.8125 17.9804L23.6179 17.9804L25.2286 19.5911L25.2287 20.3965L24.4233 20.3965Z" fill="#0062FF"/>
<path fill-rule="evenodd" clip-rule="evenodd" d="M23.6183 20.3965L25.229 18.7858L25.229 17.9804L24.4236 17.9804L22.8129 19.5911L22.8128 20.3965L23.6183 20.3965Z" fill="#0062FF"/>
<path fill-rule="evenodd" clip-rule="evenodd" d="M30.8663 39.7256L32.4771 41.3363L32.477 42.1417L31.6717 42.1417L30.0609 40.531L30.0609 39.7256L30.8663 39.7256Z" fill="#0062FF"/>
<path fill-rule="evenodd" clip-rule="evenodd" d="M31.6718 39.7256L30.061 41.3363L30.0611 42.1417L30.8664 42.1417L32.4772 40.531L32.4772 39.7256L31.6718 39.7256Z" fill="#0062FF"/>
<path fill-rule="evenodd" clip-rule="evenodd" d="M30.8663 20.3964L32.4771 18.7857L32.477 17.9804L31.6717 17.9803L30.0609 19.5911L30.0609 20.3965L30.8663 20.3964Z" fill="#0062FF"/>
<path fill-rule="evenodd" clip-rule="evenodd" d="M31.6718 20.3964L30.061 18.7857L30.0611 17.9804L30.8664 17.9803L32.4772 19.5911L32.4772 20.3965L31.6718 20.3964Z" fill="#0062FF"/>
<path fill-rule="evenodd" clip-rule="evenodd" d="M29.2558 39.7256L27.645 41.3363L27.6451 42.1417L28.4504 42.1417L30.0611 40.531L30.0612 39.7256L29.2558 39.7256Z" fill="#0062FF"/>
<path fill-rule="evenodd" clip-rule="evenodd" d="M28.4503 39.7256L30.061 41.3363L30.061 42.1417L29.2557 42.1417L27.6449 40.531L27.6449 39.7256L28.4503 39.7256Z" fill="#0062FF"/>
<path fill-rule="evenodd" clip-rule="evenodd" d="M29.2558 20.3965L27.645 18.7858L27.6451 17.9804L28.4504 17.9804L30.0611 19.5911L30.0612 20.3965L29.2558 20.3965Z" fill="#0062FF"/>
<path fill-rule="evenodd" clip-rule="evenodd" d="M28.4503 20.3965L30.061 18.7858L30.061 17.9804L29.2557 17.9804L27.6449 19.5911L27.6449 20.3965L28.4503 20.3965Z" fill="#0062FF"/>
<path fill-rule="evenodd" clip-rule="evenodd" d="M35.6988 42.1417L37.3096 43.7525L37.3095 44.5578L36.5042 44.5578L34.8934 42.9471L34.8934 42.1417L35.6988 42.1417Z" fill="#0062FF"/>
<path fill-rule="evenodd" clip-rule="evenodd" d="M36.5038 42.1417L34.8931 43.7525L34.8931 44.5578L35.6984 44.5578L37.3092 42.9471L37.3092 42.1417L36.5038 42.1417Z" fill="#0062FF"/>
<path fill-rule="evenodd" clip-rule="evenodd" d="M35.6988 17.9803L37.3096 16.3696L37.3095 15.5642L36.5042 15.5642L34.8934 17.1749L34.8934 17.9804L35.6988 17.9803Z" fill="#0062FF"/>
<path fill-rule="evenodd" clip-rule="evenodd" d="M36.5038 17.9803L34.8931 16.3696L34.8931 15.5642L35.6984 15.5642L37.3092 17.1749L37.3092 17.9804L36.5038 17.9803Z" fill="#0062FF"/>
<path fill-rule="evenodd" clip-rule="evenodd" d="M24.4233 42.1416L22.8125 43.7524L22.8125 44.5577L23.6179 44.5577L25.2286 42.947L25.2287 42.1416L24.4233 42.1416Z" fill="#0062FF"/>
<path fill-rule="evenodd" clip-rule="evenodd" d="M23.6183 42.1416L25.229 43.7524L25.229 44.5577L24.4236 44.5577L22.8129 42.947L22.8128 42.1416L23.6183 42.1416Z" fill="#0062FF"/>
<path fill-rule="evenodd" clip-rule="evenodd" d="M24.4233 17.9803L22.8125 16.3696L22.8125 15.5643L23.6179 15.5642L25.2286 17.175L25.2287 17.9804L24.4233 17.9803Z" fill="#0062FF"/>
<path fill-rule="evenodd" clip-rule="evenodd" d="M23.6183 17.9803L25.229 16.3696L25.229 15.5643L24.4236 15.5642L22.8129 17.175L22.8128 17.9804L23.6183 17.9803Z" fill="#0062FF"/>
<path fill-rule="evenodd" clip-rule="evenodd" d="M33.2823 42.1417L34.8931 43.7525L34.893 44.5578L34.0877 44.5578L32.4769 42.9471L32.4769 42.1417L33.2823 42.1417Z" fill="#0062FF"/>
<path fill-rule="evenodd" clip-rule="evenodd" d="M34.0878 42.1417L32.4771 43.7525L32.4771 44.5578L33.2824 44.5578L34.8932 42.9471L34.8932 42.1417L34.0878 42.1417Z" fill="#0062FF"/>
<path fill-rule="evenodd" clip-rule="evenodd" d="M33.2823 17.9803L34.8931 16.3696L34.893 15.5642L34.0877 15.5642L32.4769 17.1749L32.4769 17.9804L33.2823 17.9803Z" fill="#0062FF"/>
<path fill-rule="evenodd" clip-rule="evenodd" d="M34.0878 17.9803L32.4771 16.3696L32.4771 15.5642L33.2824 15.5642L34.8932 17.1749L34.8932 17.9804L34.0878 17.9803Z" fill="#0062FF"/>
<path fill-rule="evenodd" clip-rule="evenodd" d="M26.8398 42.1416L25.229 43.7523L25.229 44.5577L26.0344 44.5577L27.6451 42.947L27.6452 42.1415L26.8398 42.1416Z" fill="#0062FF"/>
<path fill-rule="evenodd" clip-rule="evenodd" d="M26.0343 42.1416L27.645 43.7523L27.645 44.5577L26.8396 44.5577L25.2289 42.947L25.2288 42.1415L26.0343 42.1416Z" fill="#0062FF"/>
<path fill-rule="evenodd" clip-rule="evenodd" d="M26.8398 17.9803L25.229 16.3696L25.229 15.5643L26.0344 15.5642L27.6451 17.175L27.6452 17.9804L26.8398 17.9803Z" fill="#0062FF"/>
<path fill-rule="evenodd" clip-rule="evenodd" d="M26.0343 17.9803L27.645 16.3696L27.645 15.5643L26.8396 15.5642L25.2289 17.175L25.2288 17.9804L26.0343 17.9803Z" fill="#0062FF"/>
<path fill-rule="evenodd" clip-rule="evenodd" d="M30.8663 42.1418L32.4771 43.7525L32.477 44.5578L31.6717 44.5579L30.0609 42.9471L30.0609 42.1417L30.8663 42.1418Z" fill="#0062FF"/>
<path fill-rule="evenodd" clip-rule="evenodd" d="M31.6718 42.1418L30.061 43.7525L30.0611 44.5578L30.8664 44.5579L32.4772 42.9471L32.4772 42.1417L31.6718 42.1418Z" fill="#0062FF"/>
<path fill-rule="evenodd" clip-rule="evenodd" d="M30.8663 17.9803L32.4771 16.3696L32.477 15.5642L31.6717 15.5642L30.0609 17.1749L30.0609 17.9804L30.8663 17.9803Z" fill="#0062FF"/>
<path fill-rule="evenodd" clip-rule="evenodd" d="M31.6718 17.9803L30.061 16.3696L30.0611 15.5642L30.8664 15.5642L32.4772 17.1749L32.4772 17.9804L31.6718 17.9803Z" fill="#0062FF"/>
<path fill-rule="evenodd" clip-rule="evenodd" d="M29.2558 42.1416L27.645 43.7523L27.6451 44.5577L28.4504 44.5577L30.0611 42.947L30.0612 42.1415L29.2558 42.1416Z" fill="#0062FF"/>
<path fill-rule="evenodd" clip-rule="evenodd" d="M28.4503 42.1416L30.061 43.7523L30.061 44.5577L29.2557 44.5577L27.6449 42.947L27.6449 42.1415L28.4503 42.1416Z" fill="#0062FF"/>
<path fill-rule="evenodd" clip-rule="evenodd" d="M29.2558 17.9803L27.645 16.3696L27.6451 15.5643L28.4504 15.5642L30.0611 17.175L30.0612 17.9804L29.2558 17.9803Z" fill="#0062FF"/>
<path fill-rule="evenodd" clip-rule="evenodd" d="M28.4503 17.9803L30.061 16.3696L30.061 15.5643L29.2557 15.5642L27.6449 17.175L27.6449 17.9804L28.4503 17.9803Z" fill="#0062FF"/>
<path fill-rule="evenodd" clip-rule="evenodd" d="M35.6988 34.8933L37.3096 36.5041L37.3095 37.3094L36.5042 37.3094L34.8934 35.6987L34.8934 34.8933L35.6988 34.8933Z" fill="#0062FF"/>
<path fill-rule="evenodd" clip-rule="evenodd" d="M36.5038 34.8933L34.8931 36.5041L34.8931 37.3094L35.6984 37.3094L37.3092 35.6987L37.3092 34.8933L36.5038 34.8933Z" fill="#0062FF"/>
<path fill-rule="evenodd" clip-rule="evenodd" d="M35.6988 25.2287L37.3096 23.618L37.3095 22.8126L36.5042 22.8126L34.8934 24.4233L34.8934 25.2288L35.6988 25.2287Z" fill="#0062FF"/>
<path fill-rule="evenodd" clip-rule="evenodd" d="M36.5038 25.2287L34.8931 23.618L34.8931 22.8126L35.6984 22.8126L37.3092 24.4233L37.3092 25.2288L36.5038 25.2287Z" fill="#0062FF"/>
<path fill-rule="evenodd" clip-rule="evenodd" d="M24.4233 34.8934L22.8125 36.5041L22.8125 37.3095L23.6179 37.3095L25.2286 35.6988L25.2287 34.8933L24.4233 34.8934Z" fill="#0062FF"/>
<path fill-rule="evenodd" clip-rule="evenodd" d="M23.6178 34.8934L25.2285 36.5041L25.2285 37.3095L24.4231 37.3095L22.8124 35.6988L22.8123 34.8933L23.6178 34.8934Z" fill="#0062FF"/>
<path fill-rule="evenodd" clip-rule="evenodd" d="M24.4233 25.2288L22.8125 23.618L22.8125 22.8127L23.6179 22.8127L25.2286 24.4234L25.2287 25.2288L24.4233 25.2288Z" fill="#0062FF"/>
<path fill-rule="evenodd" clip-rule="evenodd" d="M23.6183 25.2288L25.229 23.618L25.229 22.8127L24.4236 22.8127L22.8129 24.4234L22.8128 25.2288L23.6183 25.2288Z" fill="#0062FF"/>
<path fill-rule="evenodd" clip-rule="evenodd" d="M40.5309 42.1417L42.1416 43.7524L42.1416 44.5578L41.3362 44.5578L39.7255 42.947L39.7254 42.1416L40.5309 42.1417Z" fill="#0062FF"/>
<path fill-rule="evenodd" clip-rule="evenodd" d="M41.3363 42.1417L39.7256 43.7524L39.7256 44.5578L40.531 44.5578L42.1417 42.947L42.1418 42.1416L41.3363 42.1417Z" fill="#0062FF"/>
<path fill-rule="evenodd" clip-rule="evenodd" d="M40.5309 17.9804L42.1416 16.3696L42.1416 15.5643L41.3362 15.5643L39.7255 17.175L39.7254 17.9804L40.5309 17.9804Z" fill="#0062FF"/>
<path fill-rule="evenodd" clip-rule="evenodd" d="M41.3363 17.9804L39.7256 16.3696L39.7256 15.5643L40.531 15.5643L42.1417 17.175L42.1418 17.9804L41.3363 17.9804Z" fill="#0062FF"/>
<path fill-rule="evenodd" clip-rule="evenodd" d="M19.5912 42.1416L17.9805 43.7524L17.9805 44.5577L18.7858 44.5577L20.3966 42.947L20.3966 42.1416L19.5912 42.1416Z" fill="#0062FF"/>
<path fill-rule="evenodd" clip-rule="evenodd" d="M18.7857 42.1416L20.3965 43.7524L20.3964 44.5577L19.5911 44.5577L17.9804 42.947L17.9803 42.1416L18.7857 42.1416Z" fill="#0062FF"/>
<path fill-rule="evenodd" clip-rule="evenodd" d="M19.5912 17.9804L17.9805 16.3696L17.9805 15.5643L18.7858 15.5642L20.3966 17.175L20.3966 17.9804L19.5912 17.9804Z" fill="#0062FF"/>
<path fill-rule="evenodd" clip-rule="evenodd" d="M18.7857 17.9804L20.3965 16.3696L20.3964 15.5643L19.5911 15.5642L17.9804 17.175L17.9803 17.9804L18.7857 17.9804Z" fill="#0062FF"/>
<path fill-rule="evenodd" clip-rule="evenodd" d="M45.3629 37.3094L46.9736 38.9201L46.9736 39.7254L46.1683 39.7255L44.5575 38.1147L44.5575 37.3093L45.3629 37.3094Z" fill="#124EAD"/>
<path fill-rule="evenodd" clip-rule="evenodd" d="M46.1684 37.3094L44.5576 38.9201L44.5577 39.7254L45.363 39.7255L46.9737 38.1147L46.9738 37.3093L46.1684 37.3094Z" fill="#124EAD"/>
<path fill-rule="evenodd" clip-rule="evenodd" d="M45.3629 22.8127L46.9736 21.2019L46.9736 20.3966L46.1683 20.3965L44.5575 22.0073L44.5575 22.8127L45.3629 22.8127Z" fill="#124EAD"/>
<path fill-rule="evenodd" clip-rule="evenodd" d="M46.1684 22.8127L44.5576 21.2019L44.5577 20.3966L45.363 20.3965L46.9737 22.0073L46.9738 22.8127L46.1684 22.8127Z" fill="#124EAD"/>
<path fill-rule="evenodd" clip-rule="evenodd" d="M14.7592 37.3094L13.1484 38.9201L13.1485 39.7254L13.9538 39.7255L15.5646 38.1147L15.5646 37.3093L14.7592 37.3094Z" fill="#124EAD"/>
<path fill-rule="evenodd" clip-rule="evenodd" d="M13.9537 37.3094L15.5645 38.9201L15.5644 39.7254L14.7591 39.7255L13.1483 38.1147L13.1483 37.3093L13.9537 37.3094Z" fill="#124EAD"/>
<path fill-rule="evenodd" clip-rule="evenodd" d="M14.7592 22.8127L13.1484 21.2019L13.1485 20.3966L13.9538 20.3965L15.5646 22.0073L15.5646 22.8127L14.7592 22.8127Z" fill="#124EAD"/>
<path fill-rule="evenodd" clip-rule="evenodd" d="M13.9537 22.8127L15.5645 21.2019L15.5644 20.3966L14.7591 20.3965L13.1483 22.0073L13.1483 22.8127L13.9537 22.8127Z" fill="#124EAD"/>
<path fill-rule="evenodd" clip-rule="evenodd" d="M38.1148 44.5578L39.7256 46.1686L39.7255 46.9739L38.9202 46.9739L37.3095 45.3632L37.3094 44.5578L38.1148 44.5578Z" fill="#124EAD"/>
<path fill-rule="evenodd" clip-rule="evenodd" d="M38.9203 44.5578L37.3096 46.1686L37.3096 46.9739L38.1149 46.9739L39.7257 45.3632L39.7257 44.5578L38.9203 44.5578Z" fill="#124EAD"/>
<path fill-rule="evenodd" clip-rule="evenodd" d="M38.1148 15.5643L39.7256 13.9536L39.7255 13.1482L38.9202 13.1482L37.3095 14.7589L37.3094 15.5644L38.1148 15.5643Z" fill="#124EAD"/>
<path fill-rule="evenodd" clip-rule="evenodd" d="M38.9203 15.5643L37.3096 13.9536L37.3096 13.1482L38.1149 13.1482L39.7257 14.7589L39.7257 15.5644L38.9203 15.5643Z" fill="#124EAD"/>
<path fill-rule="evenodd" clip-rule="evenodd" d="M22.0072 44.5578L20.3965 46.1685L20.3965 46.9739L21.2019 46.9739L22.8126 45.3632L22.8127 44.5577L22.0072 44.5578Z" fill="#124EAD"/>
<path fill-rule="evenodd" clip-rule="evenodd" d="M21.2017 44.5578L22.8125 46.1685L22.8125 46.9739L22.0071 46.9739L20.3964 45.3632L20.3963 44.5577L21.2017 44.5578Z" fill="#124EAD"/>
<path fill-rule="evenodd" clip-rule="evenodd" d="M22.0072 15.5642L20.3965 13.9535L20.3965 13.1481L21.2019 13.1481L22.8126 14.7589L22.8127 15.5643L22.0072 15.5642Z" fill="#124EAD"/>
<path fill-rule="evenodd" clip-rule="evenodd" d="M21.2017 15.5642L22.8125 13.9535L22.8125 13.1481L22.0071 13.1481L20.3964 14.7589L20.3963 15.5643L21.2017 15.5642Z" fill="#124EAD"/>
<path fill-rule="evenodd" clip-rule="evenodd" d="M38.1148 32.4771L39.7256 34.0879L39.7255 34.8932L38.9202 34.8932L37.3095 33.2825L37.3094 32.4771L38.1148 32.4771Z" fill="#124EAD"/>
<path fill-rule="evenodd" clip-rule="evenodd" d="M38.9203 32.4771L37.3096 34.0879L37.3096 34.8932L38.1149 34.8932L39.7257 33.2825L39.7257 32.4771L38.9203 32.4771Z" fill="#124EAD"/>
<path fill-rule="evenodd" clip-rule="evenodd" d="M38.1148 27.6448L39.7256 26.034L39.7255 25.2287L38.9202 25.2287L37.3095 26.8394L37.3094 27.6448L38.1148 27.6448Z" fill="#124EAD"/>
<path fill-rule="evenodd" clip-rule="evenodd" d="M38.9203 27.6448L37.3096 26.034L37.3096 25.2287L38.1149 25.2287L39.7257 26.8394L39.7257 27.6448L38.9203 27.6448Z" fill="#124EAD"/>
<path fill-rule="evenodd" clip-rule="evenodd" d="M22.0072 32.4772L20.3965 34.0879L20.3965 34.8933L21.2019 34.8933L22.8126 33.2826L22.8127 32.4771L22.0072 32.4772Z" fill="#124EAD"/>
<path fill-rule="evenodd" clip-rule="evenodd" d="M21.2017 32.4772L22.8125 34.0879L22.8125 34.8933L22.0071 34.8933L20.3964 33.2826L20.3963 32.4771L21.2017 32.4772Z" fill="#124EAD"/>
<path fill-rule="evenodd" clip-rule="evenodd" d="M22.0072 27.6449L20.3965 26.0342L20.3965 25.2289L21.2019 25.2288L22.8126 26.8396L22.8127 27.645L22.0072 27.6449Z" fill="#124EAD"/>
<path fill-rule="evenodd" clip-rule="evenodd" d="M21.2017 27.6449L22.8125 26.0342L22.8125 25.2289L22.0071 25.2288L20.3964 26.8396L20.3963 27.645L21.2017 27.6449Z" fill="#124EAD"/>
<path fill-rule="evenodd" clip-rule="evenodd" d="M33.2823 32.4772L34.8931 34.0879L34.893 34.8932L34.0877 34.8933L32.4769 33.2825L32.4769 32.4771L33.2823 32.4772Z" fill="#124EAD"/>
<path fill-rule="evenodd" clip-rule="evenodd" d="M34.0878 32.4772L32.4771 34.0879L32.4771 34.8932L33.2824 34.8933L34.8932 33.2825L34.8932 32.4771L34.0878 32.4772Z" fill="#124EAD"/>
<path fill-rule="evenodd" clip-rule="evenodd" d="M33.2823 27.6449L34.8931 26.0341L34.893 25.2288L34.0877 25.2287L32.4769 26.8395L32.4769 27.6449L33.2823 27.6449Z" fill="#124EAD"/>
<path fill-rule="evenodd" clip-rule="evenodd" d="M34.0878 27.6449L32.4771 26.0341L32.4771 25.2288L33.2824 25.2287L34.8932 26.8395L34.8932 27.6449L34.0878 27.6449Z" fill="#124EAD"/>
<path fill-rule="evenodd" clip-rule="evenodd" d="M26.8398 32.4772L25.229 34.0879L25.229 34.8933L26.0344 34.8933L27.6451 33.2826L27.6452 32.4771L26.8398 32.4772Z" fill="#124EAD"/>
<path fill-rule="evenodd" clip-rule="evenodd" d="M26.0343 32.4772L27.645 34.0879L27.645 34.8933L26.8396 34.8933L25.2289 33.2826L25.2288 32.4771L26.0343 32.4772Z" fill="#124EAD"/>
<path fill-rule="evenodd" clip-rule="evenodd" d="M26.8398 27.6449L25.229 26.0342L25.229 25.2288L26.0344 25.2288L27.6451 26.8395L27.6452 27.645L26.8398 27.6449Z" fill="#124EAD"/>
<path fill-rule="evenodd" clip-rule="evenodd" d="M26.0343 27.6449L27.645 26.0342L27.645 25.2288L26.8396 25.2288L25.2289 26.8395L25.2288 27.645L26.0343 27.6449Z" fill="#124EAD"/>
<path fill-rule="evenodd" clip-rule="evenodd" d="M33.2823 37.3094L34.8931 38.9202L34.893 39.7255L34.0877 39.7256L32.4769 38.1148L32.4769 37.3094L33.2823 37.3094Z" fill="#124EAD"/>
<path fill-rule="evenodd" clip-rule="evenodd" d="M34.0878 37.3094L32.4771 38.9202L32.4771 39.7255L33.2824 39.7256L34.8932 38.1148L34.8932 37.3094L34.0878 37.3094Z" fill="#124EAD"/>
<path fill-rule="evenodd" clip-rule="evenodd" d="M33.2823 22.8125L34.8931 21.2018L34.893 20.3965L34.0877 20.3964L32.4769 22.0072L32.4769 22.8126L33.2823 22.8125Z" fill="#124EAD"/>
<path fill-rule="evenodd" clip-rule="evenodd" d="M34.0878 22.8125L32.4771 21.2018L32.4771 20.3965L33.2824 20.3964L34.8932 22.0072L34.8932 22.8126L34.0878 22.8125Z" fill="#124EAD"/>
<path fill-rule="evenodd" clip-rule="evenodd" d="M26.8398 37.3095L25.229 38.9202L25.229 39.7256L26.0344 39.7256L27.6451 38.1149L27.6452 37.3094L26.8398 37.3095Z" fill="#124EAD"/>
<path fill-rule="evenodd" clip-rule="evenodd" d="M26.0343 37.3095L27.645 38.9202L27.645 39.7256L26.8396 39.7256L25.2289 38.1149L25.2288 37.3094L26.0343 37.3095Z" fill="#124EAD"/>
<path fill-rule="evenodd" clip-rule="evenodd" d="M26.8398 22.8126L25.229 21.2019L25.229 20.3965L26.0344 20.3965L27.6451 22.0072L27.6452 22.8127L26.8398 22.8126Z" fill="#124EAD"/>
<path fill-rule="evenodd" clip-rule="evenodd" d="M26.0343 22.8126L27.645 21.2019L27.645 20.3965L26.8396 20.3965L25.2289 22.0072L25.2288 22.8127L26.0343 22.8126Z" fill="#124EAD"/>
<path fill-rule="evenodd" clip-rule="evenodd" d="M30.8663 34.8933L32.4771 36.5041L32.477 37.3094L31.6717 37.3094L30.0609 35.6987L30.0609 34.8933L30.8663 34.8933Z" fill="#124EAD"/>
<path fill-rule="evenodd" clip-rule="evenodd" d="M31.6718 34.8933L30.061 36.5041L30.0611 37.3094L30.8664 37.3094L32.4772 35.6987L32.4772 34.8933L31.6718 34.8933Z" fill="#124EAD"/>
<path fill-rule="evenodd" clip-rule="evenodd" d="M30.8663 25.2287L32.4771 23.618L32.477 22.8126L31.6717 22.8126L30.0609 24.4233L30.0609 25.2288L30.8663 25.2287Z" fill="#124EAD"/>
<path fill-rule="evenodd" clip-rule="evenodd" d="M31.6718 25.2287L30.061 23.618L30.0611 22.8126L30.8664 22.8126L32.4772 24.4233L32.4772 25.2288L31.6718 25.2287Z" fill="#124EAD"/>
<path fill-rule="evenodd" clip-rule="evenodd" d="M29.2558 34.8933L27.645 36.5041L27.6451 37.3094L28.4504 37.3094L30.0611 35.6987L30.0612 34.8933L29.2558 34.8933Z" fill="#124EAD"/>
<path fill-rule="evenodd" clip-rule="evenodd" d="M28.4503 34.8933L30.061 36.5041L30.061 37.3094L29.2557 37.3094L27.6449 35.6987L27.6449 34.8933L28.4503 34.8933Z" fill="#124EAD"/>
<path fill-rule="evenodd" clip-rule="evenodd" d="M29.2558 25.2287L27.645 23.618L27.6451 22.8127L28.4504 22.8126L30.0611 24.4234L30.0612 25.2288L29.2558 25.2287Z" fill="#124EAD"/>
<path fill-rule="evenodd" clip-rule="evenodd" d="M28.4503 25.2287L30.061 23.618L30.061 22.8127L29.2557 22.8126L27.6449 24.4234L27.6449 25.2288L28.4503 25.2287Z" fill="#124EAD"/>
<path fill-rule="evenodd" clip-rule="evenodd" d="M35.6988 30.061L37.3096 31.6717L37.3095 32.4771L36.5042 32.4771L34.8934 30.8664L34.8934 30.0609L35.6988 30.061Z" fill="#124EAD"/>
<path fill-rule="evenodd" clip-rule="evenodd" d="M36.5038 30.061L34.8931 31.6717L34.8931 32.4771L35.6984 32.4771L37.3092 30.8664L37.3092 30.0609L36.5038 30.061Z" fill="#124EAD"/>
<path fill-rule="evenodd" clip-rule="evenodd" d="M35.6988 30.061L37.3096 28.4502L37.3095 27.6449L36.5042 27.6448L34.8934 29.2556L34.8934 30.061L35.6988 30.061Z" fill="#124EAD"/>
<path fill-rule="evenodd" clip-rule="evenodd" d="M36.5038 30.061L34.8931 28.4502L34.8931 27.6449L35.6984 27.6448L37.3092 29.2556L37.3092 30.061L36.5038 30.061Z" fill="#124EAD"/>
<path fill-rule="evenodd" clip-rule="evenodd" d="M24.4233 30.0611L22.8125 31.6718L22.8125 32.4772L23.6179 32.4772L25.2286 30.8665L25.2287 30.061L24.4233 30.0611Z" fill="#124EAD"/>
<path fill-rule="evenodd" clip-rule="evenodd" d="M23.6178 30.0611L25.2285 31.6718L25.2285 32.4772L24.4231 32.4772L22.8124 30.8665L22.8123 30.061L23.6178 30.0611Z" fill="#124EAD"/>
<path fill-rule="evenodd" clip-rule="evenodd" d="M24.4233 30.061L22.8125 28.4503L22.8125 27.6449L23.6179 27.6449L25.2286 29.2556L25.2287 30.0611L24.4233 30.061Z" fill="#124EAD"/>
<path fill-rule="evenodd" clip-rule="evenodd" d="M23.6178 30.061L25.2285 28.4503L25.2285 27.6449L24.4231 27.6449L22.8124 29.2556L22.8123 30.0611L23.6178 30.061Z" fill="#124EAD"/>
</svg>
