<svg width="292" height="139" viewBox="0 0 292 139" fill="none" xmlns="http://www.w3.org/2000/svg">
<rect x="81" y="36" width="211" height="103" fill="#0062FF"/>
<path d="M134.939 62.6449V55.3129C134.939 54.8912 134.902 54.5558 134.827 54.3066C134.771 54.0574 134.687 53.8753 134.575 53.7603C134.463 53.6261 134.323 53.5494 134.155 53.5303C134.006 53.4919 133.829 53.4727 133.624 53.4727H130.742V62.6449H128V51.1438H134.155C134.808 51.1438 135.359 51.1917 135.806 51.2875C136.254 51.3834 136.608 51.5846 136.869 51.8913C137.149 52.1789 137.345 52.6006 137.457 53.1565C137.588 53.6932 137.653 54.412 137.653 55.3129V62.6449H134.939Z" fill="white"/>
<path d="M151.632 58.8783C151.445 59.5684 151.156 60.1626 150.764 60.661C150.391 61.1594 149.943 61.5811 149.421 61.9261C148.918 62.252 148.349 62.4916 147.714 62.6449C147.08 62.7983 146.409 62.8749 145.7 62.8749C145.196 62.8749 144.665 62.7695 144.105 62.5587C143.546 62.3478 143.033 62.0315 142.566 61.6098C142.119 61.1689 141.746 60.613 141.447 59.9421C141.149 59.2712 140.999 58.4662 140.999 57.5269C140.999 55.495 141.531 53.904 142.594 52.7539C143.657 51.5846 145.131 51 147.015 51C148.227 51 149.216 51.2396 149.981 51.7188C150.745 52.1789 151.128 52.8498 151.128 53.7315C151.128 54.5749 150.867 55.2842 150.344 55.8592C149.841 56.4151 149.207 56.8656 148.442 57.2106C147.677 57.5557 146.856 57.8048 145.98 57.9582C145.122 58.1115 144.329 58.1978 143.601 58.217C143.601 58.6003 143.685 58.9454 143.853 59.2521C144.021 59.5588 144.236 59.8176 144.497 60.0284C144.758 60.2393 145.038 60.4022 145.336 60.5172C145.653 60.6322 145.952 60.6897 146.232 60.6897C146.511 60.6897 146.8 60.6706 147.099 60.6322C147.397 60.5747 147.677 60.4789 147.938 60.3447C148.218 60.2105 148.451 60.0284 148.638 59.7984C148.843 59.5684 148.973 59.2617 149.029 58.8783H151.632ZM147.043 53.1277C146.595 53.1277 146.166 53.1852 145.756 53.3002C145.346 53.3961 144.982 53.5686 144.665 53.8178C144.348 54.067 144.086 54.3928 143.881 54.7954C143.695 55.1788 143.601 55.6676 143.601 56.2618C145.168 56.1851 146.362 55.9934 147.183 55.6867C148.022 55.38 148.442 54.8625 148.442 54.1341C148.442 53.8849 148.339 53.6549 148.134 53.444C147.929 53.2331 147.565 53.1277 147.043 53.1277Z" fill="white"/>
<path d="M153.865 68.4242V58.3895C153.865 56.9902 154.005 55.8209 154.285 54.8816C154.584 53.9232 154.994 53.1565 155.516 52.5814C156.039 52.0064 156.645 51.6038 157.335 51.3738C158.044 51.1246 158.818 51 159.657 51C160.422 51 161.084 51.115 161.644 51.345C162.222 51.5751 162.698 51.8818 163.071 52.2651C163.462 52.6485 163.751 53.0894 163.938 53.5878C164.125 54.067 164.218 54.5654 164.218 55.0829C164.218 55.6771 164.115 56.2618 163.91 56.8368C163.723 57.3927 163.481 57.9103 163.183 58.3895C162.884 58.8687 162.548 59.2904 162.175 59.6546C161.802 60.0188 161.448 60.2872 161.112 60.4597V60.7472H163.071V62.6449H156.551V68.4242H153.865ZM156.551 60.7472C157.223 60.7472 157.848 60.613 158.426 60.3447C159.023 60.0572 159.536 59.6642 159.965 59.1658C160.394 58.6483 160.73 58.0445 160.972 57.3544C161.233 56.6643 161.364 55.9072 161.364 55.0829C161.364 54.642 161.187 54.2395 160.832 53.8753C160.497 53.4919 160.058 53.3002 159.517 53.3002C159.126 53.3002 158.753 53.3865 158.398 53.559C158.044 53.7124 157.727 53.9807 157.447 54.3641C157.186 54.7475 156.971 55.2746 156.803 55.9455C156.635 56.5972 156.551 57.4119 156.551 58.3895V60.7472Z" fill="white"/>
<path d="M177.37 58.8783C177.184 59.5684 176.895 60.1626 176.503 60.661C176.13 61.1594 175.682 61.5811 175.16 61.9261C174.656 62.252 174.087 62.4916 173.453 62.6449C172.819 62.7983 172.147 62.8749 171.439 62.8749C170.935 62.8749 170.403 62.7695 169.844 62.5587C169.284 62.3478 168.771 62.0315 168.305 61.6098C167.857 61.1689 167.484 60.613 167.186 59.9421C166.887 59.2712 166.738 58.4662 166.738 57.5269C166.738 55.495 167.27 53.904 168.333 52.7539C169.396 51.5846 170.87 51 172.754 51C173.966 51 174.955 51.2396 175.719 51.7188C176.484 52.1789 176.867 52.8498 176.867 53.7315C176.867 54.5749 176.605 55.2842 176.083 55.8592C175.58 56.4151 174.945 56.8656 174.181 57.2106C173.416 57.5557 172.595 57.8048 171.718 57.9582C170.86 58.1115 170.068 58.1978 169.34 58.217C169.34 58.6003 169.424 58.9454 169.592 59.2521C169.76 59.5588 169.974 59.8176 170.235 60.0284C170.497 60.2393 170.776 60.4022 171.075 60.5172C171.392 60.6322 171.69 60.6897 171.97 60.6897C172.25 60.6897 172.539 60.6706 172.838 60.6322C173.136 60.5747 173.416 60.4789 173.677 60.3447C173.957 60.2105 174.19 60.0284 174.376 59.7984C174.582 59.5684 174.712 59.2617 174.768 58.8783H177.37ZM172.782 53.1277C172.334 53.1277 171.905 53.1852 171.495 53.3002C171.084 53.3961 170.72 53.5686 170.403 53.8178C170.086 54.067 169.825 54.3928 169.62 54.7954C169.433 55.1788 169.34 55.6676 169.34 56.2618C170.907 56.1851 172.101 55.9934 172.921 55.6867C173.761 55.38 174.181 54.8625 174.181 54.1341C174.181 53.8849 174.078 53.6549 173.873 53.444C173.668 53.2331 173.304 53.1277 172.782 53.1277Z" fill="white"/>
<path d="M178.793 51C179.147 51 179.539 51.1054 179.968 51.3163C180.397 51.508 180.826 51.7763 181.255 52.1214C181.703 52.4472 182.141 52.8306 182.57 53.2715C183.018 53.6932 183.437 54.1245 183.829 54.5654C184.202 54.1053 184.575 53.6644 184.948 53.2427C185.34 52.8018 185.722 52.4185 186.095 52.0926C186.487 51.7476 186.869 51.4792 187.242 51.2875C187.616 51.0958 187.979 51 188.334 51V53.8465C187.867 53.8465 187.336 54.0574 186.739 54.4791C186.142 54.9008 185.582 55.4279 185.06 56.0605C185.508 56.6739 185.937 57.2969 186.347 57.9294C186.776 58.5428 187.149 59.1467 187.466 59.7409C187.802 60.3159 188.063 60.8527 188.25 61.351C188.455 61.8494 188.558 62.2807 188.558 62.6449H185.76C185.76 62.4916 185.704 62.2615 185.592 61.9548C185.48 61.629 185.321 61.2648 185.116 60.8622C184.93 60.4405 184.706 59.9901 184.445 59.5109C184.183 59.0316 183.913 58.562 183.633 58.102H183.353C182.701 59.1562 182.094 60.3063 181.535 61.5523C180.994 62.7791 180.555 63.9963 180.22 65.2039L177.786 64.7726C178.009 64.0634 178.28 63.3158 178.597 62.5299C178.914 61.7248 179.259 60.9389 179.632 60.1722C180.024 59.3863 180.434 58.6387 180.863 57.9294C181.292 57.201 181.74 56.5589 182.206 56.003C181.721 55.3704 181.162 54.8529 180.527 54.4503C179.893 54.0478 179.315 53.8465 178.793 53.8465V51Z" fill="white"/>
<path d="M190.37 68.4242V58.3895C190.37 56.9902 190.509 55.8209 190.789 54.8816C191.088 53.9232 191.498 53.1565 192.02 52.5814C192.543 52.0064 193.149 51.6038 193.839 51.3738C194.548 51.1246 195.322 51 196.161 51C196.926 51 197.588 51.115 198.148 51.345C198.726 51.5751 199.202 51.8818 199.575 52.2651C199.966 52.6485 200.256 53.0894 200.442 53.5878C200.629 54.067 200.722 54.5654 200.722 55.0829C200.722 55.6771 200.619 56.2618 200.414 56.8368C200.228 57.3927 199.985 57.9103 199.687 58.3895C199.388 58.8687 199.052 59.2904 198.679 59.6546C198.306 60.0188 197.952 60.2872 197.616 60.4597V60.7472H199.575V62.6449H193.056V68.4242H190.37ZM193.056 60.7472C193.727 60.7472 194.352 60.613 194.93 60.3447C195.527 60.0572 196.04 59.6642 196.469 59.1658C196.898 58.6483 197.234 58.0445 197.476 57.3544C197.737 56.6643 197.868 55.9072 197.868 55.0829C197.868 54.642 197.691 54.2395 197.336 53.8753C197.001 53.4919 196.562 53.3002 196.021 53.3002C195.63 53.3002 195.257 53.3865 194.902 53.559C194.548 53.7124 194.231 53.9807 193.951 54.3641C193.69 54.7475 193.475 55.2746 193.307 55.9455C193.14 56.5972 193.056 57.4119 193.056 58.3895V60.7472Z" fill="white"/>
<path d="M213.874 58.8783C213.688 59.5684 213.399 60.1626 213.007 60.661C212.634 61.1594 212.186 61.5811 211.664 61.9261C211.16 62.252 210.591 62.4916 209.957 62.6449C209.323 62.7983 208.652 62.8749 207.943 62.8749C207.439 62.8749 206.908 62.7695 206.348 62.5587C205.788 62.3478 205.275 62.0315 204.809 61.6098C204.361 61.1689 203.988 60.613 203.69 59.9421C203.391 59.2712 203.242 58.4662 203.242 57.5269C203.242 55.495 203.774 53.904 204.837 52.7539C205.9 51.5846 207.374 51 209.258 51C210.47 51 211.459 51.2396 212.224 51.7188C212.988 52.1789 213.371 52.8498 213.371 53.7315C213.371 54.5749 213.11 55.2842 212.587 55.8592C212.084 56.4151 211.449 56.8656 210.685 57.2106C209.92 57.5557 209.099 57.8048 208.223 57.9582C207.364 58.1115 206.572 58.1978 205.844 58.217C205.844 58.6003 205.928 58.9454 206.096 59.2521C206.264 59.5588 206.478 59.8176 206.74 60.0284C207.001 60.2393 207.281 60.4022 207.579 60.5172C207.896 60.6322 208.195 60.6897 208.474 60.6897C208.754 60.6897 209.043 60.6706 209.342 60.6322C209.64 60.5747 209.92 60.4789 210.181 60.3447C210.461 60.2105 210.694 60.0284 210.881 59.7984C211.086 59.5684 211.216 59.2617 211.272 58.8783H213.874ZM209.286 53.1277C208.838 53.1277 208.409 53.1852 207.999 53.3002C207.588 53.3961 207.225 53.5686 206.907 53.8178C206.59 54.067 206.329 54.3928 206.124 54.7954C205.938 55.1788 205.844 55.6676 205.844 56.2618C207.411 56.1851 208.605 55.9934 209.426 55.6867C210.265 55.38 210.685 54.8625 210.685 54.1341C210.685 53.8849 210.582 53.6549 210.377 53.444C210.172 53.2331 209.808 53.1277 209.286 53.1277Z" fill="white"/>
<path d="M223.243 55.5142V53.1852H222.516C222.105 53.1852 221.695 53.2715 221.284 53.444C220.893 53.5973 220.529 53.8465 220.193 54.1916C219.876 54.5174 219.615 54.9487 219.41 55.4855C219.223 56.0222 219.13 56.6643 219.13 57.4119C219.13 57.9294 219.205 58.3799 219.354 58.7633C219.503 59.1467 219.69 59.4725 219.913 59.7409C220.137 59.9901 220.38 60.1818 220.641 60.3159C220.921 60.4309 221.173 60.4885 221.396 60.4885C222.124 60.4885 222.702 60.3543 223.131 60.0859C223.56 59.7984 223.877 59.3 224.082 58.5908H226.6C226.227 59.9901 225.565 61.0443 224.614 61.7536C223.681 62.4436 222.525 62.7887 221.145 62.7887C220.566 62.7887 219.979 62.6833 219.382 62.4724C218.804 62.2424 218.281 61.9069 217.815 61.4661C217.349 61.0252 216.966 60.4693 216.668 59.7984C216.388 59.1083 216.248 58.3128 216.248 57.4119C216.248 56.396 216.416 55.495 216.752 54.7091C217.088 53.904 217.535 53.2331 218.095 52.6964C218.673 52.1405 219.345 51.7188 220.109 51.4313C220.874 51.1438 221.685 51 222.544 51C222.917 51 223.383 51.0383 223.942 51.115C224.502 51.1725 225.052 51.2875 225.593 51.46V55.5142H223.243Z" fill="white"/>
<path d="M235.758 55.6005V53.1852H234.192V58.217C234.192 58.6387 234.21 58.9837 234.248 59.2521C234.285 59.5204 234.369 59.7409 234.499 59.9134C234.63 60.0667 234.816 60.1722 235.059 60.2297C235.32 60.2872 235.665 60.3159 236.094 60.3159V62.7887C235.012 62.7887 234.164 62.7216 233.548 62.5874C232.933 62.4341 232.476 62.1945 232.177 61.8686C231.879 61.5236 231.692 61.0827 231.618 60.546C231.543 59.9901 231.506 59.3 231.506 58.4757V53.1852H229.939V55.6005H227.589V51.1438H238.081V55.6005H235.758Z" fill="white"/>
<path d="M245.689 58.562C245.297 59.1371 244.905 59.6738 244.514 60.1722C244.141 60.6706 243.786 61.1785 243.451 61.6961C243.115 62.2136 242.807 62.7503 242.527 63.3062C242.247 63.8813 242.005 64.5043 241.8 65.1752L239.058 64.7726C239.226 64.2359 239.459 63.6992 239.757 63.1625C240.074 62.6449 240.419 62.1274 240.793 61.6098C241.184 61.0923 241.576 60.5843 241.968 60.0859C242.378 59.5684 242.77 59.0604 243.143 58.562V58.2745C242.751 58.2745 242.35 58.1978 241.94 58.0445C241.529 57.8911 241.166 57.6803 240.848 57.4119C240.531 57.1435 240.27 56.8177 240.065 56.4343C239.86 56.0318 239.757 55.5813 239.757 55.0829C239.757 54.4312 239.897 53.8561 240.177 53.3577C240.457 52.8402 240.82 52.4089 241.268 52.0639C241.734 51.7188 242.266 51.46 242.863 51.2875C243.46 51.0958 244.075 51 244.71 51C245.847 51 246.761 51.1821 247.452 51.5463C248.142 51.9105 248.673 52.4472 249.046 53.1565C249.419 53.8657 249.662 54.7379 249.774 55.773C249.904 56.8081 249.97 57.9965 249.97 59.3383V62.6449H247.34L247.312 59.3383C247.293 58.0157 247.246 56.9614 247.172 56.1755C247.097 55.3704 246.957 54.757 246.752 54.3353C246.547 53.9136 246.267 53.6357 245.913 53.5015C245.577 53.3673 245.129 53.3002 244.57 53.3002C243.936 53.3002 243.432 53.444 243.059 53.7315C242.686 53.9999 242.499 54.4312 242.499 55.0254C242.499 55.658 242.732 56.1276 243.199 56.4343C243.684 56.741 244.514 56.8943 245.689 56.8943V58.562Z" fill="white"/>
<path d="M128 110.111V72.281C130.114 72.281 131.855 72.5916 133.223 73.2128C134.653 73.834 135.928 74.7658 137.047 76.0082C138.166 77.2505 139.161 78.6482 140.032 80.2012C140.902 81.692 141.711 83.1207 142.457 84.4874C143.203 85.7918 143.918 86.91 144.602 87.8418C145.286 88.7114 146.001 89.1463 146.747 89.1463C147.556 89.1463 148.271 88.7114 148.893 87.8418C149.577 86.91 150.229 85.7918 150.851 84.4874C151.535 83.1207 152.25 81.661 152.996 80.108C153.805 78.555 154.738 77.1574 155.795 75.915C156.852 74.6726 158.002 73.7719 159.246 73.2128C160.551 72.5916 162.261 72.281 164.375 72.281V110.111H158.126V91.4757C158.126 90.5439 158.126 89.3947 158.126 88.0281C158.189 86.5994 158.251 85.2328 158.313 83.9283C158.375 82.3753 158.468 80.7913 158.593 79.1762H157.66C157.1 80.2943 156.447 81.7541 155.701 83.5556C154.955 85.357 154.085 87.1274 153.09 88.8667C152.157 90.5439 151.131 92.0037 150.012 93.2461C148.893 94.4885 147.711 95.1096 146.468 95.1096C145.224 95.1096 143.98 94.4885 142.737 93.2461C141.555 92.0037 140.436 90.5439 139.379 88.8667C138.384 87.1274 137.451 85.3881 136.581 83.6487C135.773 81.8473 135.12 80.4186 134.622 79.3626H133.689C133.752 80.9776 133.814 82.5306 133.876 84.0215C133.938 85.326 134 86.6615 134.063 88.0281C134.125 89.3947 134.156 90.5439 134.156 91.4757V110.111H128Z" fill="white"/>
<path d="M177.881 126.697V96.7868C177.881 92.1279 178.317 88.2455 179.187 85.1396C180.058 81.9715 181.301 79.4557 182.918 77.5922C184.535 75.6665 186.462 74.2999 188.701 73.4924C190.939 72.6848 193.458 72.281 196.256 72.281C198.743 72.281 200.857 72.6537 202.598 73.3992C204.339 74.0825 205.769 75.0453 206.889 76.2877C208.008 77.4679 208.816 78.8346 209.314 80.3875C209.811 81.8784 210.06 83.4313 210.06 85.0464C210.06 87.3448 209.656 89.4879 208.847 91.4757C208.039 93.4635 206.982 95.296 205.676 96.9732C204.432 98.6504 203.064 100.172 201.572 101.539C200.08 102.906 198.681 104.086 197.375 105.08V106.011H206.889V110.111H184.037V126.697H177.881ZM184.037 106.011C185.716 106.011 187.644 105.577 189.82 104.707C192.059 103.837 194.173 102.533 196.162 100.793C198.214 99.0542 199.924 96.88 201.292 94.271C202.66 91.5999 203.344 88.5251 203.344 85.0464C203.344 84.0525 203.189 83.0586 202.878 82.0647C202.567 81.0708 202.101 80.2012 201.479 79.4557C200.857 78.6482 200.049 78.027 199.054 77.5922C198.121 77.0952 197.033 76.8468 195.789 76.8468C194.111 76.8468 192.556 77.1574 191.126 77.7785C189.696 78.3997 188.452 79.4868 187.395 81.0398C186.338 82.5306 185.499 84.5495 184.877 87.0963C184.317 89.6432 184.037 92.8734 184.037 96.7868V106.011Z" fill="white"/>
<path d="M228.151 71.9083V110.111H221.808V73.7719L228.151 71.9083Z" fill="white"/>
<path d="M249.018 72.8401V91.5689C249.018 92.5007 248.987 93.6188 248.924 94.9233C248.862 96.1657 248.8 97.377 248.738 98.5572C248.614 99.9238 248.52 101.29 248.458 102.657H249.391C249.702 102.657 250.137 102.222 250.697 101.353C251.256 100.483 251.878 99.3958 252.562 98.0913C253.308 96.7247 254.054 95.2028 254.8 93.5256C255.609 91.8484 256.386 90.1712 257.132 88.494C258.065 86.4441 259.06 84.4563 260.117 82.5306C261.174 80.5428 262.355 78.8035 263.661 77.3126C264.967 75.8218 266.428 74.6416 268.045 73.7719C269.662 72.8401 271.465 72.3742 273.455 72.3742V110.111H267.112V91.4757C267.112 90.5439 267.112 89.4258 267.112 88.1213C267.174 86.8168 267.236 85.5434 267.299 84.301C267.361 82.8723 267.454 81.4435 267.578 80.0148H266.646C266.397 80.0148 265.993 80.4807 265.433 81.4125C264.936 82.3443 264.314 83.5245 263.568 84.9532C262.884 86.382 262.107 88.0281 261.236 89.8917C260.428 91.6931 259.619 93.4635 258.811 95.2028C257.816 97.2527 256.759 99.2095 255.64 101.073C254.583 102.937 253.401 104.583 252.096 106.011C250.79 107.378 249.36 108.496 247.805 109.366C246.251 110.173 244.541 110.577 242.675 110.577V72.8401H249.018ZM271.589 57C270.843 58.7393 270.097 60.137 269.351 61.193C268.667 62.249 267.983 63.1497 267.299 63.8952C266.677 64.5785 266.055 65.1997 265.433 65.7587C264.811 66.2557 264.19 66.8769 263.568 67.6223C262.946 68.3677 262.324 69.2995 261.702 70.4176C261.143 71.4736 260.583 72.9024 260.024 74.7038H254.8C255.733 71.7842 256.604 69.6101 257.412 68.1814C258.22 66.6905 258.998 65.4792 259.744 64.5474C260.552 63.5535 261.392 62.5596 262.262 61.5657C263.133 60.5097 264.096 58.9878 265.153 57H271.589Z" fill="white"/>
<path d="M197.047 119.713C196.898 119.768 196.723 119.803 196.521 119.817C196.32 119.829 196.109 119.839 195.889 119.847C195.673 119.853 195.456 119.865 195.239 119.882C195.026 119.897 194.831 119.934 194.656 119.995C194.481 120.053 194.334 120.141 194.215 120.26C194.097 120.376 194.027 120.54 194.006 120.751C194.006 120.908 194.011 121.074 194.019 121.251C194.028 121.428 194.049 121.594 194.082 121.751H194.104C194.267 121.644 194.441 121.552 194.625 121.477C194.812 121.402 195.017 121.364 195.239 121.364C195.583 121.364 195.885 121.429 196.143 121.56C196.404 121.687 196.621 121.857 196.793 122.068C196.968 122.28 197.099 122.52 197.185 122.789C197.271 123.056 197.314 123.33 197.314 123.611C197.314 123.802 197.293 123.993 197.251 124.184C197.21 124.373 197.148 124.552 197.064 124.723C196.984 124.894 196.882 125.054 196.757 125.201C196.636 125.346 196.493 125.472 196.33 125.579C196.167 125.687 195.981 125.771 195.773 125.831C195.569 125.892 195.343 125.923 195.097 125.923C194.732 125.923 194.417 125.866 194.153 125.753C193.892 125.637 193.675 125.484 193.503 125.293C193.331 125.101 193.203 124.883 193.12 124.636C193.04 124.387 193 124.129 193 123.863C193 123.715 193.013 123.566 193.04 123.415C193.067 123.262 193.105 123.113 193.156 122.968C193.209 122.82 193.272 122.678 193.343 122.542C193.417 122.406 193.502 122.278 193.597 122.159C193.51 121.959 193.442 121.757 193.392 121.551C193.341 121.345 193.316 121.134 193.316 120.916C193.316 120.635 193.356 120.401 193.436 120.212C193.516 120.024 193.625 119.871 193.761 119.752C193.898 119.633 194.057 119.542 194.238 119.478C194.419 119.414 194.61 119.366 194.812 119.335C195.014 119.303 195.22 119.281 195.431 119.269C195.644 119.258 195.851 119.245 196.049 119.23C196.248 119.213 196.434 119.188 196.606 119.156C196.778 119.125 196.926 119.072 197.051 119L197.047 119.713ZM195.248 121.951C194.999 121.951 194.779 122.001 194.589 122.103C194.399 122.204 194.241 122.339 194.113 122.507C193.985 122.672 193.889 122.86 193.824 123.072C193.761 123.281 193.73 123.493 193.73 123.711C193.73 123.916 193.758 124.116 193.815 124.31C193.874 124.502 193.962 124.673 194.077 124.823C194.193 124.971 194.338 125.091 194.514 125.184C194.689 125.274 194.895 125.319 195.132 125.319C195.376 125.319 195.585 125.272 195.76 125.18C195.938 125.087 196.085 124.964 196.201 124.81C196.317 124.657 196.401 124.481 196.455 124.284C196.511 124.087 196.539 123.886 196.539 123.68C196.539 123.466 196.509 123.256 196.45 123.05C196.394 122.842 196.311 122.656 196.201 122.494C196.091 122.332 195.956 122.201 195.796 122.103C195.635 122.001 195.453 121.951 195.248 121.951Z" fill="white"/>
<path d="M202.328 125.862H201.594V122.629C201.591 121.983 201.318 121.667 200.775 121.681H200.214L199.217 125.127C199.163 125.307 199.104 125.448 199.039 125.549C198.973 125.648 198.895 125.721 198.803 125.771C198.714 125.82 198.61 125.85 198.491 125.862C198.372 125.873 198.234 125.879 198.077 125.879V125.258H198.095C198.145 125.258 198.19 125.255 198.228 125.249C198.27 125.243 198.307 125.23 198.34 125.21C198.375 125.19 198.407 125.159 198.433 125.119C198.46 125.078 198.484 125.023 198.504 124.954L199.662 121.099H200.766C201.303 121.102 201.698 121.226 201.95 121.473C202.202 121.719 202.328 122.088 202.328 122.581V125.862Z" fill="white"/>
<path d="M206.867 123.693C206.861 123.647 206.857 123.598 206.854 123.546C206.848 123.502 206.843 123.454 206.84 123.402C206.84 123.347 206.84 123.295 206.84 123.246V122.711C206.84 122.5 206.808 122.324 206.742 122.185C206.677 122.043 206.589 121.93 206.48 121.846C206.373 121.76 206.248 121.699 206.106 121.664C205.966 121.629 205.819 121.612 205.665 121.612C205.493 121.612 205.336 121.622 205.193 121.642C205.051 121.66 204.914 121.684 204.784 121.716C204.656 121.745 204.53 121.778 204.405 121.816C204.283 121.854 204.157 121.89 204.027 121.925V121.268C204.154 121.234 204.278 121.202 204.396 121.173C204.518 121.141 204.643 121.113 204.77 121.09C204.898 121.067 205.034 121.05 205.18 121.038C205.325 121.024 205.487 121.016 205.665 121.016C205.908 121.016 206.144 121.042 206.373 121.095C206.601 121.144 206.803 121.231 206.978 121.355C207.156 121.477 207.297 121.641 207.401 121.846C207.508 122.049 207.561 122.304 207.561 122.611V125.862H205.785C205.39 125.862 205.057 125.827 204.784 125.758C204.513 125.688 204.294 125.587 204.125 125.453C203.956 125.32 203.832 125.159 203.755 124.971C203.681 124.78 203.644 124.564 203.644 124.324C203.644 124.098 203.684 123.896 203.764 123.719C203.844 123.543 203.957 123.394 204.102 123.272C204.248 123.15 204.42 123.057 204.619 122.994C204.821 122.93 205.042 122.898 205.282 122.898C205.466 122.898 205.628 122.911 205.767 122.937C205.907 122.963 206.034 123.008 206.15 123.072C206.266 123.133 206.377 123.214 206.484 123.315C206.594 123.417 206.71 123.543 206.831 123.693H206.867ZM205.34 123.493C205.046 123.493 204.819 123.564 204.659 123.706C204.499 123.848 204.418 124.051 204.418 124.315C204.418 124.48 204.438 124.623 204.476 124.745C204.518 124.864 204.592 124.962 204.699 125.041C204.806 125.116 204.953 125.172 205.14 125.21C205.327 125.245 205.567 125.262 205.861 125.262H206.845V124.919C206.845 124.699 206.809 124.5 206.738 124.324C206.667 124.147 206.566 123.998 206.435 123.876C206.305 123.751 206.146 123.657 205.959 123.593C205.775 123.527 205.569 123.493 205.34 123.493Z" fill="white"/>
<path d="M212.158 121.716H209.959V125.862H209.22V121.099H212.158V121.716Z" fill="white"/>
<path d="M216.928 123.472C216.931 124.248 216.735 124.855 216.34 125.293C215.948 125.727 215.401 125.946 214.697 125.949C214.261 125.949 213.874 125.849 213.535 125.649C213.2 125.449 212.943 125.162 212.765 124.789C212.59 124.415 212.503 123.977 212.503 123.476C212.503 122.7 212.701 122.096 213.099 121.664C213.497 121.229 214.04 121.012 214.729 121.012C215.39 121.009 215.922 121.229 216.322 121.673C216.726 122.116 216.928 122.716 216.928 123.472ZM213.268 123.476C213.268 124.085 213.389 124.548 213.629 124.867C213.869 125.185 214.231 125.345 214.715 125.345C215.196 125.342 215.557 125.183 215.797 124.867C216.04 124.548 216.162 124.083 216.162 123.472C216.162 122.866 216.04 122.407 215.797 122.094C215.554 121.778 215.19 121.622 214.706 121.625C214.222 121.625 213.862 121.78 213.624 122.09C213.387 122.4 213.268 122.862 213.268 123.476Z" fill="white"/>
<path d="M220.108 121.668L218.733 125.262H221.337V122.629C221.322 121.983 221.043 121.667 220.5 121.681L220.108 121.668ZM222.031 127.166V125.862H217.584V125.24H217.967L219.534 121.099H220.491C221.028 121.102 221.423 121.226 221.675 121.473C221.928 121.719 222.054 122.088 222.054 122.581V125.24H222.748V127.166H222.031Z" fill="white"/>
<path d="M224.535 125.862H223.796V121.099H224.535V125.862ZM223.774 119.782C223.774 119.632 223.805 119.523 223.868 119.456C223.933 119.39 224.021 119.356 224.13 119.356H224.558V119.782C224.558 119.93 224.516 120.039 224.433 120.108C224.353 120.178 224.256 120.212 224.144 120.212H223.774V119.782Z" fill="white"/>
<path d="M229.354 119.343L228.046 121.299H227.934V120.443L228.664 119.343H229.354ZM226.946 121.099V124.119C226.946 124.206 226.94 124.309 226.928 124.428C226.916 124.547 226.903 124.661 226.888 124.771C226.873 124.899 226.855 125.028 226.835 125.158H226.879L229.337 121.099H230.258V125.862H229.524V122.95C229.524 122.858 229.528 122.746 229.537 122.616C229.549 122.482 229.562 122.356 229.577 122.238C229.592 122.099 229.61 121.957 229.63 121.812H229.586L227.129 125.862H226.207V121.099H226.946Z" fill="white"/>
<path d="M232.691 121.099V122.138L235.175 123.746V121.099H235.914V125.862H235.175V124.41L232.691 122.803V125.862H231.952V121.099H232.691Z" fill="white"/>
<path d="M238.347 121.099V124.119C238.347 124.206 238.341 124.309 238.329 124.428C238.317 124.547 238.304 124.661 238.289 124.771C238.274 124.899 238.256 125.028 238.235 125.158H238.28L240.737 121.099H241.659V125.862H240.924V122.95C240.924 122.858 240.929 122.746 240.938 122.616C240.949 122.482 240.963 122.356 240.978 122.238C240.992 122.099 241.01 121.957 241.031 121.812H240.987L238.529 125.862H237.608V121.099H238.347Z" fill="white"/>
<path d="M246.5 119.343L245.191 121.299H245.08V120.443L245.81 119.343H246.5ZM244.092 121.099V124.119C244.092 124.206 244.086 124.309 244.074 124.428C244.062 124.547 244.049 124.661 244.034 124.771C244.019 124.899 244.001 125.028 243.98 125.158H244.025L246.482 121.099H247.404V125.862H246.669V122.95C246.669 122.858 246.674 122.746 246.682 122.616C246.694 122.482 246.708 122.356 246.723 122.238C246.737 122.099 246.755 121.957 246.776 121.812H246.731L244.274 125.862H243.353V121.099H244.092Z" fill="white"/>
<path d="M256.979 123.476C256.979 124.197 256.768 124.773 256.347 125.201C256.243 125.309 256.118 125.403 255.973 125.484C255.831 125.565 255.675 125.634 255.506 125.692C255.336 125.75 255.158 125.798 254.971 125.836C254.787 125.871 254.602 125.895 254.415 125.91V128H253.685V125.91C253.501 125.895 253.317 125.871 253.133 125.836C252.952 125.801 252.777 125.755 252.608 125.697C252.441 125.636 252.285 125.565 252.14 125.484C251.998 125.4 251.873 125.303 251.766 125.193C251.339 124.755 251.125 124.183 251.125 123.476C251.125 122.758 251.337 122.184 251.762 121.755C251.869 121.648 251.995 121.554 252.14 121.473C252.285 121.392 252.443 121.322 252.612 121.264C252.781 121.203 252.959 121.155 253.146 121.121C253.333 121.086 253.522 121.061 253.712 121.047V119.1H254.415V121.047C254.602 121.064 254.787 121.092 254.971 121.129C255.155 121.167 255.33 121.216 255.497 121.277C255.666 121.338 255.822 121.41 255.964 121.494C256.11 121.578 256.236 121.674 256.343 121.781C256.767 122.219 256.979 122.784 256.979 123.476ZM251.9 123.476C251.9 123.757 251.941 124.012 252.024 124.241C252.107 124.47 252.226 124.665 252.38 124.828C252.538 124.99 252.728 125.116 252.95 125.206C253.176 125.293 253.43 125.336 253.712 125.336V121.634C253.43 121.634 253.176 121.676 252.95 121.76C252.728 121.841 252.538 121.959 252.38 122.116C252.226 122.272 252.107 122.465 252.024 122.694C251.941 122.923 251.9 123.183 251.9 123.476ZM256.213 123.476C256.213 123.195 256.17 122.942 256.084 122.716C256.001 122.49 255.881 122.297 255.724 122.138C255.569 121.978 255.381 121.857 255.158 121.773C254.936 121.686 254.688 121.642 254.415 121.642V125.336C254.688 125.336 254.936 125.293 255.158 125.206C255.381 125.116 255.569 124.99 255.724 124.828C255.881 124.665 256.001 124.47 256.084 124.241C256.17 124.012 256.213 123.757 256.213 123.476Z" fill="white"/>
<path d="M262.524 123.472C262.527 124.248 262.331 124.855 261.936 125.293C261.544 125.727 260.997 125.946 260.293 125.949C259.857 125.949 259.47 125.849 259.131 125.649C258.796 125.449 258.539 125.162 258.361 124.789C258.186 124.415 258.099 123.977 258.099 123.476C258.099 122.7 258.297 122.096 258.695 121.664C259.093 121.229 259.636 121.012 260.324 121.012C260.986 121.009 261.518 121.229 261.918 121.673C262.322 122.116 262.524 122.716 262.524 123.472ZM258.864 123.476C258.864 124.085 258.985 124.548 259.225 124.867C259.465 125.185 259.827 125.345 260.311 125.345C260.792 125.342 261.153 125.183 261.393 124.867C261.636 124.548 261.758 124.083 261.758 123.472C261.758 122.866 261.636 122.407 261.393 122.094C261.15 121.778 260.786 121.622 260.302 121.625C259.818 121.625 259.458 121.78 259.22 122.09C258.983 122.4 258.864 122.862 258.864 123.476Z" fill="white"/>
<path d="M264.676 121.099V122.138L267.16 123.746V121.099H267.899V125.862H267.16V124.41L264.676 122.803V125.862H263.937V121.099H264.676Z" fill="white"/>
<path d="M271.36 121.668L269.985 125.262H272.589V122.629C272.574 121.983 272.295 121.667 271.752 121.681L271.36 121.668ZM273.283 127.166V125.862H268.836V125.24H269.219L270.786 121.099H271.743C272.28 121.102 272.675 121.226 272.927 121.473C273.179 121.719 273.306 122.088 273.306 122.581V125.24H274V127.166H273.283Z" fill="white"/>
<rect x="7" y="7" width="103" height="103" fill="#FFD500"/>
<path fill-rule="evenodd" clip-rule="evenodd" d="M88.1671 74.4012L90.9203 77.1543L90.9202 78.5308L89.5437 78.5309L86.7906 75.7777L86.7905 74.4011L88.1671 74.4012Z" fill="#124EAD"/>
<path fill-rule="evenodd" clip-rule="evenodd" d="M89.5437 74.4012L86.7906 77.1543L86.7907 78.5308L88.1672 78.5309L90.9203 75.7777L90.9204 74.4011L89.5437 74.4012Z" fill="#124EAD"/>
<path fill-rule="evenodd" clip-rule="evenodd" d="M88.167 41.3634L90.9202 38.6102L90.9201 37.2337L89.5436 37.2336L86.7904 39.9868L86.7904 41.3634L88.167 41.3634Z" fill="#124EAD"/>
<path fill-rule="evenodd" clip-rule="evenodd" d="M89.5436 41.3634L86.7905 38.6102L86.7905 37.2337L88.167 37.2336L90.9202 39.9868L90.9203 41.3634L89.5436 41.3634Z" fill="#124EAD"/>
<path fill-rule="evenodd" clip-rule="evenodd" d="M27.5979 74.4012L24.8448 77.1543L24.8449 78.5308L26.2214 78.5309L28.9745 75.7777L28.9746 74.4011L27.5979 74.4012Z" fill="#124EAD"/>
<path fill-rule="evenodd" clip-rule="evenodd" d="M26.2213 74.4012L28.9745 77.1543L28.9744 78.5308L27.5979 78.5309L24.8448 75.7777L24.8447 74.4011L26.2213 74.4012Z" fill="#124EAD"/>
<path fill-rule="evenodd" clip-rule="evenodd" d="M27.5979 41.3634L24.8447 38.6102L24.8448 37.2338L26.2213 37.2337L28.9745 39.9868L28.9745 41.3635L27.5979 41.3634Z" fill="#124EAD"/>
<path fill-rule="evenodd" clip-rule="evenodd" d="M26.2213 41.3634L28.9744 38.6102L28.9743 37.2338L27.5979 37.2337L24.8447 39.9868L24.8446 41.3635L26.2213 41.3634Z" fill="#124EAD"/>
<path fill-rule="evenodd" clip-rule="evenodd" d="M75.7779 86.7904L78.531 89.5436L78.5309 90.9201L77.1544 90.9202L74.4013 88.167L74.4012 86.7904L75.7779 86.7904Z" fill="#124EAD"/>
<path fill-rule="evenodd" clip-rule="evenodd" d="M77.1545 86.7904L74.4013 89.5436L74.4014 90.9201L75.7779 90.9202L78.531 88.167L78.5311 86.7904L77.1545 86.7904Z" fill="#124EAD"/>
<path fill-rule="evenodd" clip-rule="evenodd" d="M75.7779 28.9742L78.531 26.221L78.5309 24.8445L77.1544 24.8445L74.4013 27.5976L74.4012 28.9743L75.7779 28.9742Z" fill="#124EAD"/>
<path fill-rule="evenodd" clip-rule="evenodd" d="M77.1545 28.9742L74.4013 26.221L74.4014 24.8445L75.7779 24.8445L78.531 27.5976L78.5311 28.9743L77.1545 28.9742Z" fill="#124EAD"/>
<path fill-rule="evenodd" clip-rule="evenodd" d="M39.9872 86.7904L37.234 89.5435L37.2341 90.92L38.6106 90.9201L41.3637 88.167L41.3638 86.7903L39.9872 86.7904Z" fill="#124EAD"/>
<path fill-rule="evenodd" clip-rule="evenodd" d="M38.6106 86.7904L41.3637 89.5435L41.3636 90.92L39.9871 90.9201L37.234 88.167L37.2339 86.7903L38.6106 86.7904Z" fill="#124EAD"/>
<path fill-rule="evenodd" clip-rule="evenodd" d="M39.9872 28.9741L37.234 26.2209L37.2341 24.8444L38.6106 24.8444L41.3637 27.5975L41.3638 28.9742L39.9872 28.9741Z" fill="#124EAD"/>
<path fill-rule="evenodd" clip-rule="evenodd" d="M38.6106 28.9741L41.3637 26.2209L41.3636 24.8444L39.9871 24.8444L37.234 27.5975L37.2339 28.9742L38.6106 28.9741Z" fill="#124EAD"/>
<path fill-rule="evenodd" clip-rule="evenodd" d="M84.0374 82.6607L86.7905 85.4138L86.7904 86.7903L85.414 86.7904L82.6608 84.0373L82.6607 82.6606L84.0374 82.6607Z" fill="#124EAD"/>
<path fill-rule="evenodd" clip-rule="evenodd" d="M85.414 82.6607L82.6608 85.4138L82.6609 86.7903L84.0374 86.7904L86.7906 84.0373L86.7906 82.6606L85.414 82.6607Z" fill="#124EAD"/>
<path fill-rule="evenodd" clip-rule="evenodd" d="M84.0373 33.1039L86.7905 30.3508L86.7904 28.9743L85.4139 28.9742L82.6607 31.7273L82.6607 33.104L84.0373 33.1039Z" fill="#124EAD"/>
<path fill-rule="evenodd" clip-rule="evenodd" d="M85.4139 33.1039L82.6608 30.3508L82.6608 28.9743L84.0373 28.9742L86.7905 31.7273L86.7906 33.104L85.4139 33.1039Z" fill="#124EAD"/>
<path fill-rule="evenodd" clip-rule="evenodd" d="M31.7277 82.6607L28.9745 85.4138L28.9746 86.7903L30.3511 86.7904L33.1043 84.0373L33.1044 82.6606L31.7277 82.6607Z" fill="#124EAD"/>
<path fill-rule="evenodd" clip-rule="evenodd" d="M30.3511 82.6607L33.1042 85.4138L33.1042 86.7903L31.7277 86.7904L28.9745 84.0373L28.9744 82.6606L30.3511 82.6607Z" fill="#124EAD"/>
<path fill-rule="evenodd" clip-rule="evenodd" d="M31.7276 33.1039L28.9745 30.3507L28.9746 28.9742L30.3511 28.9742L33.1042 31.7273L33.1043 33.104L31.7276 33.1039Z" fill="#124EAD"/>
<path fill-rule="evenodd" clip-rule="evenodd" d="M30.351 33.1039L33.1042 30.3507L33.1041 28.9742L31.7276 28.9742L28.9745 31.7273L28.9744 33.104L30.351 33.1039Z" fill="#124EAD"/>
<path fill-rule="evenodd" clip-rule="evenodd" d="M79.9076 78.5309L82.6608 81.2841L82.6607 82.6606L81.2842 82.6606L78.531 79.9075L78.531 78.5308L79.9076 78.5309Z" fill="#124EAD"/>
<path fill-rule="evenodd" clip-rule="evenodd" d="M81.2842 78.5309L78.5311 81.2841L78.5311 82.6606L79.9076 82.6606L82.6608 79.9075L82.6609 78.5308L81.2842 78.5309Z" fill="#124EAD"/>
<path fill-rule="evenodd" clip-rule="evenodd" d="M79.9076 37.2337L82.6607 34.4805L82.6606 33.104L81.2841 33.1039L78.531 35.8571L78.5309 37.2337L79.9076 37.2337Z" fill="#124EAD"/>
<path fill-rule="evenodd" clip-rule="evenodd" d="M81.2842 37.2337L78.531 34.4805L78.5311 33.104L79.9076 33.1039L82.6607 35.8571L82.6608 37.2337L81.2842 37.2337Z" fill="#124EAD"/>
<path fill-rule="evenodd" clip-rule="evenodd" d="M35.8575 78.5309L33.1043 81.2841L33.1044 82.6606L34.4809 82.6606L37.234 79.9075L37.2341 78.5308L35.8575 78.5309Z" fill="#124EAD"/>
<path fill-rule="evenodd" clip-rule="evenodd" d="M34.4809 78.5309L37.234 81.2841L37.2339 82.6606L35.8574 82.6606L33.1043 79.9075L33.1042 78.5308L34.4809 78.5309Z" fill="#124EAD"/>
<path fill-rule="evenodd" clip-rule="evenodd" d="M35.8574 37.2336L33.1042 34.4805L33.1043 33.104L34.4808 33.1039L37.234 35.857L37.2341 37.2337L35.8574 37.2336Z" fill="#124EAD"/>
<path fill-rule="evenodd" clip-rule="evenodd" d="M34.4808 37.2336L37.2339 34.4805L37.2339 33.104L35.8574 33.1039L33.1042 35.857L33.1041 37.2337L34.4808 37.2336Z" fill="#124EAD"/>
<path fill-rule="evenodd" clip-rule="evenodd" d="M75.7779 74.4012L78.5311 77.1544L78.531 78.5309L77.1545 78.5309L74.4013 75.7778L74.4013 74.4011L75.7779 74.4012Z" fill="#124EAD"/>
<path fill-rule="evenodd" clip-rule="evenodd" d="M77.1545 74.4012L74.4014 77.1544L74.4014 78.5309L75.7779 78.5309L78.5311 75.7778L78.5312 74.4011L77.1545 74.4012Z" fill="#124EAD"/>
<path fill-rule="evenodd" clip-rule="evenodd" d="M75.7778 41.3634L78.5309 38.6103L78.5309 37.2338L77.1544 37.2337L74.4012 39.9869L74.4011 41.3635L75.7778 41.3634Z" fill="#124EAD"/>
<path fill-rule="evenodd" clip-rule="evenodd" d="M77.1544 41.3634L74.4012 38.6103L74.4013 37.2338L75.7778 37.2337L78.531 39.9869L78.5311 41.3635L77.1544 41.3634Z" fill="#124EAD"/>
<path fill-rule="evenodd" clip-rule="evenodd" d="M39.9872 74.4012L37.2341 77.1543L37.2341 78.5308L38.6106 78.5309L41.3638 75.7777L41.3639 74.4011L39.9872 74.4012Z" fill="#124EAD"/>
<path fill-rule="evenodd" clip-rule="evenodd" d="M38.6106 74.4012L41.3638 77.1543L41.3637 78.5308L39.9872 78.5309L37.234 75.7777L37.234 74.4011L38.6106 74.4012Z" fill="#124EAD"/>
<path fill-rule="evenodd" clip-rule="evenodd" d="M39.9872 41.3634L37.234 38.6102L37.2341 37.2337L38.6106 37.2336L41.3637 39.9868L41.3638 41.3634L39.9872 41.3634Z" fill="#124EAD"/>
<path fill-rule="evenodd" clip-rule="evenodd" d="M38.6106 41.3634L41.3637 38.6102L41.3636 37.2337L39.9871 37.2336L37.234 39.9868L37.2339 41.3634L38.6106 41.3634Z" fill="#124EAD"/>
<path fill-rule="evenodd" clip-rule="evenodd" d="M84.0374 78.5309L86.7905 81.2841L86.7904 82.6606L85.414 82.6606L82.6608 79.9075L82.6607 78.5308L84.0374 78.5309Z" fill="#0062FF"/>
<path fill-rule="evenodd" clip-rule="evenodd" d="M85.414 78.5309L82.6608 81.2841L82.6609 82.6606L84.0374 82.6606L86.7906 79.9075L86.7906 78.5308L85.414 78.5309Z" fill="#0062FF"/>
<path fill-rule="evenodd" clip-rule="evenodd" d="M84.0373 37.2337L86.7905 34.4805L86.7904 33.104L85.4139 33.1039L82.6607 35.8571L82.6607 37.2337L84.0373 37.2337Z" fill="#0062FF"/>
<path fill-rule="evenodd" clip-rule="evenodd" d="M85.4139 37.2337L82.6608 34.4805L82.6608 33.104L84.0373 33.1039L86.7905 35.8571L86.7906 37.2337L85.4139 37.2337Z" fill="#0062FF"/>
<path fill-rule="evenodd" clip-rule="evenodd" d="M31.7277 78.5309L28.9745 81.2841L28.9746 82.6606L30.3511 82.6606L33.1043 79.9075L33.1044 78.5308L31.7277 78.5309Z" fill="#0062FF"/>
<path fill-rule="evenodd" clip-rule="evenodd" d="M30.3511 78.5309L33.1042 81.2841L33.1042 82.6606L31.7277 82.6606L28.9745 79.9075L28.9744 78.5308L30.3511 78.5309Z" fill="#0062FF"/>
<path fill-rule="evenodd" clip-rule="evenodd" d="M31.7276 37.2336L28.9745 34.4805L28.9746 33.104L30.3511 33.1039L33.1042 35.857L33.1043 37.2337L31.7276 37.2336Z" fill="#0062FF"/>
<path fill-rule="evenodd" clip-rule="evenodd" d="M30.351 37.2336L33.1042 34.4805L33.1041 33.104L31.7276 33.1039L28.9745 35.857L28.9744 37.2337L30.351 37.2336Z" fill="#0062FF"/>
<path fill-rule="evenodd" clip-rule="evenodd" d="M79.9076 82.6607L82.6608 85.4138L82.6607 86.7903L81.2842 86.7904L78.531 84.0373L78.531 82.6606L79.9076 82.6607Z" fill="#0062FF"/>
<path fill-rule="evenodd" clip-rule="evenodd" d="M81.2842 82.6607L78.5311 85.4138L78.5311 86.7903L79.9076 86.7904L82.6608 84.0373L82.6609 82.6606L81.2842 82.6607Z" fill="#0062FF"/>
<path fill-rule="evenodd" clip-rule="evenodd" d="M79.9076 33.1039L82.6607 30.3508L82.6606 28.9743L81.2841 28.9742L78.531 31.7273L78.5309 33.104L79.9076 33.1039Z" fill="#0062FF"/>
<path fill-rule="evenodd" clip-rule="evenodd" d="M81.2842 33.1039L78.531 30.3508L78.5311 28.9743L79.9076 28.9742L82.6607 31.7273L82.6608 33.104L81.2842 33.1039Z" fill="#0062FF"/>
<path fill-rule="evenodd" clip-rule="evenodd" d="M35.8574 82.6606L33.1042 85.4138L33.1043 86.7903L34.4808 86.7903L37.234 84.0372L37.2341 82.6605L35.8574 82.6606Z" fill="#0062FF"/>
<path fill-rule="evenodd" clip-rule="evenodd" d="M34.4808 82.6606L37.2339 85.4138L37.2339 86.7903L35.8574 86.7903L33.1042 84.0372L33.1041 82.6605L34.4808 82.6606Z" fill="#0062FF"/>
<path fill-rule="evenodd" clip-rule="evenodd" d="M35.8574 33.1039L33.1042 30.3507L33.1043 28.9742L34.4808 28.9742L37.234 31.7273L37.2341 33.104L35.8574 33.1039Z" fill="#0062FF"/>
<path fill-rule="evenodd" clip-rule="evenodd" d="M34.4808 33.1039L37.2339 30.3507L37.2339 28.9742L35.8574 28.9742L33.1042 31.7273L33.1041 33.104L34.4808 33.1039Z" fill="#0062FF"/>
<path fill-rule="evenodd" clip-rule="evenodd" d="M79.9076 74.4012L82.6608 77.1543L82.6607 78.5308L81.2842 78.5309L78.531 75.7777L78.531 74.4011L79.9076 74.4012Z" fill="#0062FF"/>
<path fill-rule="evenodd" clip-rule="evenodd" d="M81.2842 74.4012L78.5311 77.1543L78.5311 78.5308L79.9076 78.5309L82.6608 75.7777L82.6609 74.4011L81.2842 74.4012Z" fill="#0062FF"/>
<path fill-rule="evenodd" clip-rule="evenodd" d="M79.9076 41.3634L82.6607 38.6103L82.6606 37.2338L81.2841 37.2337L78.531 39.9869L78.5309 41.3635L79.9076 41.3634Z" fill="#0062FF"/>
<path fill-rule="evenodd" clip-rule="evenodd" d="M81.2842 41.3634L78.531 38.6103L78.5311 37.2338L79.9076 37.2337L82.6607 39.9869L82.6608 41.3635L81.2842 41.3634Z" fill="#0062FF"/>
<path fill-rule="evenodd" clip-rule="evenodd" d="M35.8575 74.4012L33.1043 77.1543L33.1044 78.5308L34.4809 78.5309L37.234 75.7777L37.2341 74.4011L35.8575 74.4012Z" fill="#0062FF"/>
<path fill-rule="evenodd" clip-rule="evenodd" d="M34.4809 74.4012L37.234 77.1543L37.2339 78.5308L35.8574 78.5309L33.1043 75.7777L33.1042 74.4011L34.4809 74.4012Z" fill="#0062FF"/>
<path fill-rule="evenodd" clip-rule="evenodd" d="M35.8574 41.3634L33.1042 38.6102L33.1043 37.2337L34.4808 37.2336L37.234 39.9868L37.2341 41.3634L35.8574 41.3634Z" fill="#0062FF"/>
<path fill-rule="evenodd" clip-rule="evenodd" d="M34.4808 41.3634L37.2339 38.6102L37.2339 37.2337L35.8574 37.2336L33.1042 39.9868L33.1041 41.3634L34.4808 41.3634Z" fill="#0062FF"/>
<path fill-rule="evenodd" clip-rule="evenodd" d="M79.9077 66.1417L82.6608 68.8948L82.6607 70.2713L81.2843 70.2714L78.5311 67.5183L78.531 66.1416L79.9077 66.1417Z" fill="#0062FF"/>
<path fill-rule="evenodd" clip-rule="evenodd" d="M81.2843 66.1417L78.5311 68.8948L78.5312 70.2713L79.9077 70.2714L82.6609 67.5183L82.6609 66.1416L81.2843 66.1417Z" fill="#0062FF"/>
<path fill-rule="evenodd" clip-rule="evenodd" d="M79.9077 49.6226L82.6609 46.8695L82.6608 45.493L81.2843 45.4929L78.5312 48.2461L78.5311 49.6227L79.9077 49.6226Z" fill="#0062FF"/>
<path fill-rule="evenodd" clip-rule="evenodd" d="M81.2843 49.6226L78.5312 46.8695L78.5313 45.493L79.9078 45.4929L82.6609 48.2461L82.661 49.6227L81.2843 49.6226Z" fill="#0062FF"/>
<path fill-rule="evenodd" clip-rule="evenodd" d="M35.8575 66.1416L33.1043 68.8948L33.1044 70.2713L34.4809 70.2714L37.234 67.5182L37.2341 66.1416L35.8575 66.1416Z" fill="#0062FF"/>
<path fill-rule="evenodd" clip-rule="evenodd" d="M34.4809 66.1416L37.234 68.8948L37.2339 70.2713L35.8574 70.2714L33.1043 67.5182L33.1042 66.1416L34.4809 66.1416Z" fill="#0062FF"/>
<path fill-rule="evenodd" clip-rule="evenodd" d="M35.8573 49.6228L33.1041 46.8697L33.1042 45.4932L34.4807 45.4931L37.2339 48.2463L37.2339 49.6229L35.8573 49.6228Z" fill="#0062FF"/>
<path fill-rule="evenodd" clip-rule="evenodd" d="M34.4807 49.6228L37.2338 46.8697L37.2337 45.4932L35.8572 45.4931L33.1041 48.2463L33.104 49.6229L34.4807 49.6228Z" fill="#0062FF"/>
<path fill-rule="evenodd" clip-rule="evenodd" d="M79.9077 62.0119L82.6608 64.7651L82.6607 66.1416L81.2843 66.1417L78.5311 63.3885L78.531 62.0119L79.9077 62.0119Z" fill="#0062FF"/>
<path fill-rule="evenodd" clip-rule="evenodd" d="M81.2843 62.0119L78.5311 64.7651L78.5312 66.1416L79.9077 66.1417L82.6609 63.3885L82.6609 62.0119L81.2843 62.0119Z" fill="#0062FF"/>
<path fill-rule="evenodd" clip-rule="evenodd" d="M79.9077 53.7524L82.6609 50.9993L82.6608 49.6228L81.2843 49.6227L78.5312 52.3758L78.5311 53.7525L79.9077 53.7524Z" fill="#0062FF"/>
<path fill-rule="evenodd" clip-rule="evenodd" d="M81.2843 53.7524L78.5312 50.9993L78.5313 49.6228L79.9078 49.6227L82.6609 52.3758L82.661 53.7525L81.2843 53.7524Z" fill="#0062FF"/>
<path fill-rule="evenodd" clip-rule="evenodd" d="M35.8575 62.0119L33.1044 64.7651L33.1044 66.1416L34.4809 66.1417L37.2341 63.3885L37.2342 62.0119L35.8575 62.0119Z" fill="#0062FF"/>
<path fill-rule="evenodd" clip-rule="evenodd" d="M34.4809 62.0119L37.2341 64.7651L37.234 66.1416L35.8575 66.1417L33.1043 63.3885L33.1043 62.0119L34.4809 62.0119Z" fill="#0062FF"/>
<path fill-rule="evenodd" clip-rule="evenodd" d="M35.8573 53.7526L33.1041 50.9994L33.1042 49.6229L34.4807 49.6229L37.2339 52.376L37.2339 53.7527L35.8573 53.7526Z" fill="#0062FF"/>
<path fill-rule="evenodd" clip-rule="evenodd" d="M34.4807 53.7526L37.2338 50.9994L37.2337 49.6229L35.8572 49.6229L33.1041 52.376L33.104 53.7527L34.4807 53.7526Z" fill="#0062FF"/>
<path fill-rule="evenodd" clip-rule="evenodd" d="M79.9077 57.8822L82.6609 60.6354L82.6608 62.0119L81.2843 62.012L78.5312 59.2588L78.5311 57.8822L79.9077 57.8822Z" fill="#0062FF"/>
<path fill-rule="evenodd" clip-rule="evenodd" d="M81.2843 57.8822L78.5312 60.6354L78.5313 62.0119L79.9078 62.012L82.6609 59.2588L82.661 57.8822L81.2843 57.8822Z" fill="#0062FF"/>
<path fill-rule="evenodd" clip-rule="evenodd" d="M79.9077 57.8821L82.6608 55.129L82.6607 53.7525L81.2843 53.7524L78.5311 56.5055L78.531 57.8822L79.9077 57.8821Z" fill="#0062FF"/>
<path fill-rule="evenodd" clip-rule="evenodd" d="M81.2843 57.8821L78.5311 55.129L78.5312 53.7525L79.9077 53.7524L82.6609 56.5055L82.6609 57.8822L81.2843 57.8821Z" fill="#0062FF"/>
<path fill-rule="evenodd" clip-rule="evenodd" d="M35.8575 57.8822L33.1044 60.6353L33.1044 62.0118L34.4809 62.0119L37.2341 59.2588L37.2342 57.8821L35.8575 57.8822Z" fill="#0062FF"/>
<path fill-rule="evenodd" clip-rule="evenodd" d="M34.4809 57.8822L37.2341 60.6353L37.234 62.0118L35.8575 62.0119L33.1043 59.2588L33.1043 57.8821L34.4809 57.8822Z" fill="#0062FF"/>
<path fill-rule="evenodd" clip-rule="evenodd" d="M35.8575 57.8821L33.1044 55.129L33.1044 53.7525L34.4809 53.7524L37.2341 56.5055L37.2342 57.8822L35.8575 57.8821Z" fill="#0062FF"/>
<path fill-rule="evenodd" clip-rule="evenodd" d="M34.4809 57.8821L37.2341 55.129L37.234 53.7525L35.8575 53.7524L33.1043 56.5055L33.1043 57.8822L34.4809 57.8821Z" fill="#0062FF"/>
<path fill-rule="evenodd" clip-rule="evenodd" d="M75.778 57.8822L78.5311 60.6354L78.531 62.0119L77.1546 62.012L74.4014 59.2588L74.4013 57.8822L75.778 57.8822Z" fill="#0062FF"/>
<path fill-rule="evenodd" clip-rule="evenodd" d="M77.1546 57.8822L74.4014 60.6354L74.4015 62.0119L75.778 62.012L78.5312 59.2588L78.5312 57.8822L77.1546 57.8822Z" fill="#0062FF"/>
<path fill-rule="evenodd" clip-rule="evenodd" d="M75.778 57.8822L78.5311 55.129L78.531 53.7525L77.1546 53.7524L74.4014 56.5056L74.4013 57.8822L75.778 57.8822Z" fill="#0062FF"/>
<path fill-rule="evenodd" clip-rule="evenodd" d="M77.1546 57.8822L74.4014 55.129L74.4015 53.7525L75.778 53.7524L78.5312 56.5056L78.5312 57.8822L77.1546 57.8822Z" fill="#0062FF"/>
<path fill-rule="evenodd" clip-rule="evenodd" d="M39.987 57.8824L37.2339 60.6356L37.234 62.0121L38.6105 62.0121L41.3636 59.259L41.3637 57.8823L39.987 57.8824Z" fill="#0062FF"/>
<path fill-rule="evenodd" clip-rule="evenodd" d="M38.6104 57.8824L41.3636 60.6356L41.3635 62.0121L39.987 62.0121L37.2339 59.259L37.2338 57.8823L38.6104 57.8824Z" fill="#0062FF"/>
<path fill-rule="evenodd" clip-rule="evenodd" d="M39.9871 57.8824L37.2339 55.1292L37.234 53.7527L38.6105 53.7526L41.3637 56.5058L41.3638 57.8824L39.9871 57.8824Z" fill="#0062FF"/>
<path fill-rule="evenodd" clip-rule="evenodd" d="M38.6105 57.8824L41.3636 55.1292L41.3636 53.7527L39.9871 53.7526L37.2339 56.5058L37.2338 57.8824L38.6105 57.8824Z" fill="#0062FF"/>
<path fill-rule="evenodd" clip-rule="evenodd" d="M71.6482 57.8822L74.4014 60.6354L74.4013 62.0119L73.0248 62.012L70.2716 59.2588L70.2716 57.8822L71.6482 57.8822Z" fill="#0062FF"/>
<path fill-rule="evenodd" clip-rule="evenodd" d="M73.0248 57.8822L70.2717 60.6354L70.2717 62.0119L71.6482 62.012L74.4014 59.2588L74.4015 57.8822L73.0248 57.8822Z" fill="#0062FF"/>
<path fill-rule="evenodd" clip-rule="evenodd" d="M71.6482 57.8822L74.4014 55.129L74.4013 53.7525L73.0248 53.7524L70.2716 56.5056L70.2716 57.8822L71.6482 57.8822Z" fill="#0062FF"/>
<path fill-rule="evenodd" clip-rule="evenodd" d="M73.0248 57.8822L70.2717 55.129L70.2717 53.7525L71.6482 53.7524L74.4014 56.5056L74.4015 57.8822L73.0248 57.8822Z" fill="#0062FF"/>
<path fill-rule="evenodd" clip-rule="evenodd" d="M44.1168 57.8824L41.3636 60.6355L41.3637 62.012L42.7402 62.0121L45.4934 59.2589L45.4935 57.8823L44.1168 57.8824Z" fill="#0062FF"/>
<path fill-rule="evenodd" clip-rule="evenodd" d="M42.7402 57.8824L45.4933 60.6355L45.4933 62.012L44.1168 62.0121L41.3636 59.2589L41.3635 57.8823L42.7402 57.8824Z" fill="#0062FF"/>
<path fill-rule="evenodd" clip-rule="evenodd" d="M44.1168 57.8823L41.3636 55.1291L41.3637 53.7526L42.7402 53.7526L45.4934 56.5057L45.4935 57.8824L44.1168 57.8823Z" fill="#0062FF"/>
<path fill-rule="evenodd" clip-rule="evenodd" d="M42.7402 57.8823L45.4933 55.1291L45.4933 53.7526L44.1168 53.7526L41.3636 56.5057L41.3635 57.8824L42.7402 57.8823Z" fill="#0062FF"/>
<path fill-rule="evenodd" clip-rule="evenodd" d="M75.7779 66.1417L78.5311 68.8948L78.531 70.2713L77.1545 70.2714L74.4013 67.5183L74.4013 66.1416L75.7779 66.1417Z" fill="#0062FF"/>
<path fill-rule="evenodd" clip-rule="evenodd" d="M77.1545 66.1417L74.4014 68.8948L74.4014 70.2713L75.7779 70.2714L78.5311 67.5183L78.5312 66.1416L77.1545 66.1417Z" fill="#0062FF"/>
<path fill-rule="evenodd" clip-rule="evenodd" d="M75.778 49.6226L78.5311 46.8695L78.531 45.493L77.1546 45.4929L74.4014 48.2461L74.4013 49.6227L75.778 49.6226Z" fill="#0062FF"/>
<path fill-rule="evenodd" clip-rule="evenodd" d="M77.1546 49.6226L74.4014 46.8695L74.4015 45.493L75.778 45.4929L78.5312 48.2461L78.5312 49.6227L77.1546 49.6226Z" fill="#0062FF"/>
<path fill-rule="evenodd" clip-rule="evenodd" d="M39.9872 66.1416L37.2341 68.8948L37.2341 70.2713L38.6106 70.2714L41.3638 67.5182L41.3639 66.1416L39.9872 66.1416Z" fill="#0062FF"/>
<path fill-rule="evenodd" clip-rule="evenodd" d="M38.6106 66.1416L41.3638 68.8948L41.3637 70.2713L39.9872 70.2714L37.234 67.5182L37.234 66.1416L38.6106 66.1416Z" fill="#0062FF"/>
<path fill-rule="evenodd" clip-rule="evenodd" d="M39.987 49.6228L37.2339 46.8697L37.234 45.4932L38.6105 45.4931L41.3636 48.2463L41.3637 49.6229L39.987 49.6228Z" fill="#0062FF"/>
<path fill-rule="evenodd" clip-rule="evenodd" d="M38.6104 49.6228L41.3636 46.8697L41.3635 45.4932L39.987 45.4931L37.2339 48.2463L37.2338 49.6229L38.6104 49.6228Z" fill="#0062FF"/>
<path fill-rule="evenodd" clip-rule="evenodd" d="M71.6482 66.1418L74.4014 68.8949L74.4013 70.2714L73.0248 70.2715L70.2716 67.5183L70.2716 66.1417L71.6482 66.1418Z" fill="#0062FF"/>
<path fill-rule="evenodd" clip-rule="evenodd" d="M73.0248 66.1418L70.2717 68.8949L70.2717 70.2714L71.6482 70.2715L74.4014 67.5183L74.4015 66.1417L73.0248 66.1418Z" fill="#0062FF"/>
<path fill-rule="evenodd" clip-rule="evenodd" d="M71.6483 49.6227L74.4014 46.8696L74.4014 45.4931L73.0249 45.493L70.2717 48.2461L70.2716 49.6228L71.6483 49.6227Z" fill="#0062FF"/>
<path fill-rule="evenodd" clip-rule="evenodd" d="M73.0249 49.6227L70.2717 46.8696L70.2718 45.4931L71.6483 45.493L74.4015 48.2461L74.4015 49.6228L73.0249 49.6227Z" fill="#0062FF"/>
<path fill-rule="evenodd" clip-rule="evenodd" d="M44.117 66.1416L41.3638 68.8948L41.3639 70.2713L42.7404 70.2714L45.4936 67.5182L45.4936 66.1416L44.117 66.1416Z" fill="#0062FF"/>
<path fill-rule="evenodd" clip-rule="evenodd" d="M42.7404 66.1416L45.4935 68.8948L45.4935 70.2713L44.117 70.2714L41.3638 67.5182L41.3637 66.1416L42.7404 66.1416Z" fill="#0062FF"/>
<path fill-rule="evenodd" clip-rule="evenodd" d="M44.1169 49.6228L41.3637 46.8697L41.3638 45.4932L42.7403 45.4931L45.4934 48.2463L45.4935 49.6229L44.1169 49.6228Z" fill="#0062FF"/>
<path fill-rule="evenodd" clip-rule="evenodd" d="M42.7403 49.6228L45.4934 46.8697L45.4933 45.4932L44.1168 45.4931L41.3637 48.2463L41.3636 49.6229L42.7403 49.6228Z" fill="#0062FF"/>
<path fill-rule="evenodd" clip-rule="evenodd" d="M71.6482 70.2715L74.4013 73.0246L74.4012 74.4011L73.0247 74.4012L70.2716 71.648L70.2715 70.2714L71.6482 70.2715Z" fill="#0062FF"/>
<path fill-rule="evenodd" clip-rule="evenodd" d="M73.0248 70.2715L70.2716 73.0246L70.2717 74.4011L71.6482 74.4012L74.4013 71.648L74.4014 70.2714L73.0248 70.2715Z" fill="#0062FF"/>
<path fill-rule="evenodd" clip-rule="evenodd" d="M71.6483 45.4929L74.4014 42.7398L74.4014 41.3633L73.0249 41.3632L70.2717 44.1164L70.2716 45.493L71.6483 45.4929Z" fill="#0062FF"/>
<path fill-rule="evenodd" clip-rule="evenodd" d="M73.0249 45.4929L70.2717 42.7398L70.2718 41.3633L71.6483 41.3632L74.4015 44.1164L74.4015 45.493L73.0249 45.4929Z" fill="#0062FF"/>
<path fill-rule="evenodd" clip-rule="evenodd" d="M44.117 70.2714L41.3638 73.0245L41.3639 74.401L42.7404 74.4011L45.4936 71.648L45.4936 70.2713L44.117 70.2714Z" fill="#0062FF"/>
<path fill-rule="evenodd" clip-rule="evenodd" d="M42.7404 70.2714L45.4935 73.0245L45.4935 74.401L44.117 74.4011L41.3638 71.648L41.3637 70.2713L42.7404 70.2714Z" fill="#0062FF"/>
<path fill-rule="evenodd" clip-rule="evenodd" d="M44.1169 45.4931L41.3637 42.7399L41.3638 41.3634L42.7403 41.3633L45.4934 44.1165L45.4935 45.4931L44.1169 45.4931Z" fill="#0062FF"/>
<path fill-rule="evenodd" clip-rule="evenodd" d="M42.7403 45.4931L45.4934 42.7399L45.4933 41.3634L44.1168 41.3633L41.3637 44.1165L41.3636 45.4931L42.7403 45.4931Z" fill="#0062FF"/>
<path fill-rule="evenodd" clip-rule="evenodd" d="M67.5185 70.2715L70.2716 73.0247L70.2715 74.4012L68.895 74.4012L66.1419 71.6481L66.1418 70.2714L67.5185 70.2715Z" fill="#0062FF"/>
<path fill-rule="evenodd" clip-rule="evenodd" d="M68.8951 70.2715L66.1419 73.0247L66.142 74.4012L67.5185 74.4012L70.2716 71.6481L70.2717 70.2714L68.8951 70.2715Z" fill="#0062FF"/>
<path fill-rule="evenodd" clip-rule="evenodd" d="M67.5185 45.4929L70.2717 42.7398L70.2716 41.3633L68.8951 41.3632L66.1419 44.1164L66.1419 45.493L67.5185 45.4929Z" fill="#0062FF"/>
<path fill-rule="evenodd" clip-rule="evenodd" d="M68.8951 45.4929L66.142 42.7398L66.142 41.3633L67.5185 41.3632L70.2717 44.1164L70.2718 45.493L68.8951 45.4929Z" fill="#0062FF"/>
<path fill-rule="evenodd" clip-rule="evenodd" d="M48.2467 70.2713L45.4935 73.0245L45.4936 74.401L46.8701 74.4011L49.6233 71.6479L49.6233 70.2713L48.2467 70.2713Z" fill="#0062FF"/>
<path fill-rule="evenodd" clip-rule="evenodd" d="M46.8701 70.2713L49.6232 73.0245L49.6232 74.401L48.2467 74.4011L45.4935 71.6479L45.4934 70.2713L46.8701 70.2713Z" fill="#0062FF"/>
<path fill-rule="evenodd" clip-rule="evenodd" d="M48.2466 45.4931L45.4935 42.7399L45.4935 41.3634L46.87 41.3633L49.6232 44.1165L49.6233 45.4931L48.2466 45.4931Z" fill="#0062FF"/>
<path fill-rule="evenodd" clip-rule="evenodd" d="M46.87 45.4931L49.6232 42.7399L49.6231 41.3634L48.2466 41.3633L45.4934 44.1165L45.4934 45.4931L46.87 45.4931Z" fill="#0062FF"/>
<path fill-rule="evenodd" clip-rule="evenodd" d="M59.2589 70.2715L62.0121 73.0247L62.012 74.4012L60.6355 74.4012L57.8824 71.6481L57.8823 70.2714L59.2589 70.2715Z" fill="#0062FF"/>
<path fill-rule="evenodd" clip-rule="evenodd" d="M60.6355 70.2715L57.8824 73.0247L57.8825 74.4012L59.259 74.4012L62.0121 71.6481L62.0122 70.2714L60.6355 70.2715Z" fill="#0062FF"/>
<path fill-rule="evenodd" clip-rule="evenodd" d="M59.2591 45.493L62.0122 42.7399L62.0121 41.3634L60.6356 41.3633L57.8825 44.1164L57.8824 45.4931L59.2591 45.493Z" fill="#0062FF"/>
<path fill-rule="evenodd" clip-rule="evenodd" d="M60.6357 45.493L57.8825 42.7399L57.8826 41.3634L59.2591 41.3633L62.0122 44.1164L62.0123 45.4931L60.6357 45.493Z" fill="#0062FF"/>
<path fill-rule="evenodd" clip-rule="evenodd" d="M56.506 70.2716L53.7529 73.0247L53.7529 74.4012L55.1294 74.4013L57.8826 71.6482L57.8827 70.2715L56.506 70.2716Z" fill="#0062FF"/>
<path fill-rule="evenodd" clip-rule="evenodd" d="M55.1294 70.2716L57.8826 73.0247L57.8825 74.4012L56.506 74.4013L53.7528 71.6482L53.7528 70.2715L55.1294 70.2716Z" fill="#0062FF"/>
<path fill-rule="evenodd" clip-rule="evenodd" d="M56.5061 45.493L53.7529 42.7399L53.753 41.3634L55.1295 41.3633L57.8827 44.1164L57.8827 45.4931L56.5061 45.493Z" fill="#0062FF"/>
<path fill-rule="evenodd" clip-rule="evenodd" d="M55.1295 45.493L57.8826 42.7399L57.8826 41.3634L56.5061 41.3633L53.7529 44.1164L53.7528 45.4931L55.1295 45.493Z" fill="#0062FF"/>
<path fill-rule="evenodd" clip-rule="evenodd" d="M67.5184 74.4012L70.2715 77.1544L70.2715 78.5309L68.895 78.5309L66.1418 75.7778L66.1417 74.4011L67.5184 74.4012Z" fill="#0062FF"/>
<path fill-rule="evenodd" clip-rule="evenodd" d="M68.895 74.4012L66.1418 77.1544L66.1419 78.5309L67.5184 78.5309L70.2716 75.7778L70.2717 74.4011L68.895 74.4012Z" fill="#0062FF"/>
<path fill-rule="evenodd" clip-rule="evenodd" d="M67.5185 41.3632L70.2717 38.61L70.2716 37.2335L68.8951 37.2335L66.1419 39.9866L66.1419 41.3633L67.5185 41.3632Z" fill="#0062FF"/>
<path fill-rule="evenodd" clip-rule="evenodd" d="M68.8951 41.3632L66.142 38.61L66.142 37.2335L67.5185 37.2335L70.2717 39.9866L70.2718 41.3633L68.8951 41.3632Z" fill="#0062FF"/>
<path fill-rule="evenodd" clip-rule="evenodd" d="M48.2467 74.4011L45.4935 77.1542L45.4936 78.5307L46.8701 78.5308L49.6233 75.7777L49.6233 74.401L48.2467 74.4011Z" fill="#0062FF"/>
<path fill-rule="evenodd" clip-rule="evenodd" d="M46.8701 74.4011L49.6232 77.1542L49.6232 78.5307L48.2467 78.5308L45.4935 75.7777L45.4934 74.401L46.8701 74.4011Z" fill="#0062FF"/>
<path fill-rule="evenodd" clip-rule="evenodd" d="M48.2466 41.3633L45.4935 38.6102L45.4935 37.2337L46.87 37.2336L49.6232 39.9867L49.6233 41.3634L48.2466 41.3633Z" fill="#0062FF"/>
<path fill-rule="evenodd" clip-rule="evenodd" d="M46.87 41.3633L49.6232 38.6102L49.6231 37.2337L48.2466 37.2336L45.4934 39.9867L45.4934 41.3634L46.87 41.3633Z" fill="#0062FF"/>
<path fill-rule="evenodd" clip-rule="evenodd" d="M59.2589 74.4013L62.0121 77.1544L62.012 78.5309L60.6355 78.531L57.8824 75.7779L57.8823 74.4012L59.2589 74.4013Z" fill="#0062FF"/>
<path fill-rule="evenodd" clip-rule="evenodd" d="M60.6355 74.4013L57.8824 77.1544L57.8825 78.5309L59.259 78.531L62.0121 75.7779L62.0122 74.4012L60.6355 74.4013Z" fill="#0062FF"/>
<path fill-rule="evenodd" clip-rule="evenodd" d="M59.2591 41.3632L62.0122 38.6101L62.0121 37.2336L60.6356 37.2335L57.8825 39.9867L57.8824 41.3633L59.2591 41.3632Z" fill="#0062FF"/>
<path fill-rule="evenodd" clip-rule="evenodd" d="M60.6357 41.3632L57.8825 38.6101L57.8826 37.2336L59.2591 37.2335L62.0122 39.9867L62.0123 41.3633L60.6357 41.3632Z" fill="#0062FF"/>
<path fill-rule="evenodd" clip-rule="evenodd" d="M56.506 74.4013L53.7528 77.1544L53.7529 78.5309L55.1294 78.531L57.8825 75.7779L57.8826 74.4012L56.506 74.4013Z" fill="#0062FF"/>
<path fill-rule="evenodd" clip-rule="evenodd" d="M55.1294 74.4013L57.8825 77.1544L57.8824 78.5309L56.5059 78.531L53.7528 75.7779L53.7527 74.4012L55.1294 74.4013Z" fill="#0062FF"/>
<path fill-rule="evenodd" clip-rule="evenodd" d="M56.5061 41.3633L53.7529 38.6102L53.753 37.2337L55.1295 37.2336L57.8827 39.9867L57.8827 41.3634L56.5061 41.3633Z" fill="#0062FF"/>
<path fill-rule="evenodd" clip-rule="evenodd" d="M55.1295 41.3633L57.8826 38.6102L57.8826 37.2337L56.5061 37.2336L53.7529 39.9867L53.7528 41.3634L55.1295 41.3633Z" fill="#0062FF"/>
<path fill-rule="evenodd" clip-rule="evenodd" d="M67.5184 78.531L70.2715 81.2841L70.2715 82.6606L68.895 82.6607L66.1418 79.9076L66.1417 78.5309L67.5184 78.531Z" fill="#0062FF"/>
<path fill-rule="evenodd" clip-rule="evenodd" d="M68.895 78.531L66.1418 81.2841L66.1419 82.6606L67.5184 82.6607L70.2716 79.9076L70.2717 78.5309L68.895 78.531Z" fill="#0062FF"/>
<path fill-rule="evenodd" clip-rule="evenodd" d="M67.5186 37.2335L70.2717 34.4803L70.2717 33.1038L68.8952 33.1038L66.142 35.8569L66.1419 37.2336L67.5186 37.2335Z" fill="#0062FF"/>
<path fill-rule="evenodd" clip-rule="evenodd" d="M68.8952 37.2335L66.142 34.4803L66.1421 33.1038L67.5186 33.1038L70.2718 35.8569L70.2718 37.2336L68.8952 37.2335Z" fill="#0062FF"/>
<path fill-rule="evenodd" clip-rule="evenodd" d="M48.2467 78.5309L45.4935 81.284L45.4936 82.6605L46.8701 82.6606L49.6233 79.9074L49.6233 78.5308L48.2467 78.5309Z" fill="#0062FF"/>
<path fill-rule="evenodd" clip-rule="evenodd" d="M46.8701 78.5309L49.6232 81.284L49.6232 82.6605L48.2467 82.6606L45.4935 79.9074L45.4934 78.5308L46.8701 78.5309Z" fill="#0062FF"/>
<path fill-rule="evenodd" clip-rule="evenodd" d="M48.2466 37.2335L45.4935 34.4804L45.4935 33.1039L46.87 33.1038L49.6232 35.857L49.6233 37.2336L48.2466 37.2335Z" fill="#0062FF"/>
<path fill-rule="evenodd" clip-rule="evenodd" d="M46.87 37.2335L49.6232 34.4804L49.6231 33.1039L48.2466 33.1038L45.4934 35.857L45.4934 37.2336L46.87 37.2335Z" fill="#0062FF"/>
<path fill-rule="evenodd" clip-rule="evenodd" d="M63.3886 78.531L66.1418 81.2841L66.1417 82.6606L64.7652 82.6607L62.0121 79.9076L62.012 78.5309L63.3886 78.531Z" fill="#0062FF"/>
<path fill-rule="evenodd" clip-rule="evenodd" d="M64.7652 78.531L62.0121 81.2841L62.0122 82.6606L63.3887 82.6607L66.1418 79.9076L66.1419 78.5309L64.7652 78.531Z" fill="#0062FF"/>
<path fill-rule="evenodd" clip-rule="evenodd" d="M63.3888 37.2335L66.142 34.4803L66.1419 33.1038L64.7654 33.1038L62.0122 35.8569L62.0122 37.2336L63.3888 37.2335Z" fill="#0062FF"/>
<path fill-rule="evenodd" clip-rule="evenodd" d="M64.7654 37.2335L62.0123 34.4803L62.0123 33.1038L63.3888 33.1038L66.142 35.8569L66.1421 37.2336L64.7654 37.2335Z" fill="#0062FF"/>
<path fill-rule="evenodd" clip-rule="evenodd" d="M52.3764 78.5308L49.6233 81.2839L49.6234 82.6604L50.9999 82.6605L53.753 79.9074L53.7531 78.5307L52.3764 78.5308Z" fill="#0062FF"/>
<path fill-rule="evenodd" clip-rule="evenodd" d="M50.9998 78.5308L53.753 81.2839L53.7529 82.6604L52.3764 82.6605L49.6233 79.9074L49.6232 78.5307L50.9998 78.5308Z" fill="#0062FF"/>
<path fill-rule="evenodd" clip-rule="evenodd" d="M52.3763 37.2335L49.6232 34.4804L49.6232 33.1039L50.9997 33.1038L53.7529 35.857L53.753 37.2336L52.3763 37.2335Z" fill="#0062FF"/>
<path fill-rule="evenodd" clip-rule="evenodd" d="M50.9997 37.2335L53.7529 34.4804L53.7528 33.1039L52.3763 33.1038L49.6231 35.857L49.6231 37.2336L50.9997 37.2335Z" fill="#0062FF"/>
<path fill-rule="evenodd" clip-rule="evenodd" d="M59.2589 78.531L62.0121 81.2842L62.012 82.6607L60.6355 82.6608L57.8824 79.9076L57.8823 78.531L59.2589 78.531Z" fill="#0062FF"/>
<path fill-rule="evenodd" clip-rule="evenodd" d="M60.6355 78.531L57.8824 81.2842L57.8825 82.6607L59.259 82.6608L62.0121 79.9076L62.0122 78.531L60.6355 78.531Z" fill="#0062FF"/>
<path fill-rule="evenodd" clip-rule="evenodd" d="M59.2591 37.2335L62.0122 34.4803L62.0121 33.1038L60.6356 33.1038L57.8825 35.8569L57.8824 37.2336L59.2591 37.2335Z" fill="#0062FF"/>
<path fill-rule="evenodd" clip-rule="evenodd" d="M60.6357 37.2335L57.8825 34.4803L57.8826 33.1038L59.2591 33.1038L62.0122 35.8569L62.0123 37.2336L60.6357 37.2335Z" fill="#0062FF"/>
<path fill-rule="evenodd" clip-rule="evenodd" d="M56.5062 78.5308L53.7531 81.2839L53.7531 82.6604L55.1296 82.6605L57.8828 79.9074L57.8829 78.5307L56.5062 78.5308Z" fill="#0062FF"/>
<path fill-rule="evenodd" clip-rule="evenodd" d="M55.1296 78.5308L57.8828 81.2839L57.8827 82.6604L56.5062 82.6605L53.753 79.9074L53.7529 78.5307L55.1296 78.5308Z" fill="#0062FF"/>
<path fill-rule="evenodd" clip-rule="evenodd" d="M56.5061 37.2335L53.753 34.4804L53.7531 33.1039L55.1296 33.1038L57.8827 35.857L57.8828 37.2336L56.5061 37.2335Z" fill="#0062FF"/>
<path fill-rule="evenodd" clip-rule="evenodd" d="M55.1295 37.2335L57.8827 34.4804L57.8826 33.1039L56.5061 33.1038L53.753 35.857L53.7529 37.2336L55.1295 37.2335Z" fill="#0062FF"/>
<path fill-rule="evenodd" clip-rule="evenodd" d="M67.5185 66.1418L70.2716 68.8949L70.2715 70.2714L68.895 70.2715L66.1419 67.5183L66.1418 66.1417L67.5185 66.1418Z" fill="#0062FF"/>
<path fill-rule="evenodd" clip-rule="evenodd" d="M68.8951 66.1418L66.1419 68.8949L66.142 70.2714L67.5185 70.2715L70.2716 67.5183L70.2717 66.1417L68.8951 66.1418Z" fill="#0062FF"/>
<path fill-rule="evenodd" clip-rule="evenodd" d="M67.5185 49.6227L70.2717 46.8696L70.2716 45.4931L68.8951 45.493L66.1419 48.2461L66.1419 49.6228L67.5185 49.6227Z" fill="#0062FF"/>
<path fill-rule="evenodd" clip-rule="evenodd" d="M68.8951 49.6227L66.142 46.8696L66.142 45.4931L67.5185 45.493L70.2717 48.2461L70.2718 49.6228L68.8951 49.6227Z" fill="#0062FF"/>
<path fill-rule="evenodd" clip-rule="evenodd" d="M48.2466 66.1419L45.4934 68.895L45.4935 70.2715L46.87 70.2716L49.6231 67.5185L49.6232 66.1418L48.2466 66.1419Z" fill="#0062FF"/>
<path fill-rule="evenodd" clip-rule="evenodd" d="M46.87 66.1419L49.6231 68.895L49.623 70.2715L48.2465 70.2716L45.4934 67.5185L45.4933 66.1418L46.87 66.1419Z" fill="#0062FF"/>
<path fill-rule="evenodd" clip-rule="evenodd" d="M48.2466 49.6228L45.4935 46.8697L45.4935 45.4932L46.87 45.4931L49.6232 48.2463L49.6233 49.6229L48.2466 49.6228Z" fill="#0062FF"/>
<path fill-rule="evenodd" clip-rule="evenodd" d="M46.87 49.6228L49.6232 46.8697L49.6231 45.4932L48.2466 45.4931L45.4934 48.2463L45.4934 49.6229L46.87 49.6228Z" fill="#0062FF"/>
<path fill-rule="evenodd" clip-rule="evenodd" d="M75.7779 78.5309L78.531 81.2841L78.5309 82.6606L77.1544 82.6606L74.4013 79.9075L74.4012 78.5308L75.7779 78.5309Z" fill="#0062FF"/>
<path fill-rule="evenodd" clip-rule="evenodd" d="M77.1545 78.5309L74.4013 81.2841L74.4014 82.6606L75.7779 82.6606L78.531 79.9075L78.5311 78.5308L77.1545 78.5309Z" fill="#0062FF"/>
<path fill-rule="evenodd" clip-rule="evenodd" d="M75.7778 37.2337L78.5309 34.4805L78.5309 33.104L77.1544 33.1039L74.4012 35.8571L74.4011 37.2337L75.7778 37.2337Z" fill="#0062FF"/>
<path fill-rule="evenodd" clip-rule="evenodd" d="M77.1544 37.2337L74.4012 34.4805L74.4013 33.104L75.7778 33.1039L78.531 35.8571L78.5311 37.2337L77.1544 37.2337Z" fill="#0062FF"/>
<path fill-rule="evenodd" clip-rule="evenodd" d="M39.9872 78.5309L37.234 81.284L37.2341 82.6605L38.6106 82.6606L41.3637 79.9074L41.3638 78.5308L39.9872 78.5309Z" fill="#0062FF"/>
<path fill-rule="evenodd" clip-rule="evenodd" d="M38.6106 78.5309L41.3637 81.284L41.3636 82.6605L39.9871 82.6606L37.234 79.9074L37.2339 78.5308L38.6106 78.5309Z" fill="#0062FF"/>
<path fill-rule="evenodd" clip-rule="evenodd" d="M39.9872 37.2336L37.234 34.4805L37.2341 33.104L38.6106 33.1039L41.3637 35.857L41.3638 37.2337L39.9872 37.2336Z" fill="#0062FF"/>
<path fill-rule="evenodd" clip-rule="evenodd" d="M38.6106 37.2336L41.3637 34.4805L41.3636 33.104L39.9871 33.1039L37.234 35.857L37.2339 37.2337L38.6106 37.2336Z" fill="#0062FF"/>
<path fill-rule="evenodd" clip-rule="evenodd" d="M84.0374 70.2714L86.7905 73.0245L86.7904 74.401L85.414 74.4011L82.6608 71.648L82.6607 70.2713L84.0374 70.2714Z" fill="#124EAD"/>
<path fill-rule="evenodd" clip-rule="evenodd" d="M85.414 70.2714L82.6608 73.0245L82.6609 74.401L84.0374 74.4011L86.7906 71.648L86.7906 70.2713L85.414 70.2714Z" fill="#124EAD"/>
<path fill-rule="evenodd" clip-rule="evenodd" d="M84.0373 45.4931L86.7904 42.74L86.7903 41.3635L85.4138 41.3634L82.6607 44.1166L82.6606 45.4932L84.0373 45.4931Z" fill="#124EAD"/>
<path fill-rule="evenodd" clip-rule="evenodd" d="M85.4139 45.4931L82.6607 42.74L82.6608 41.3635L84.0373 41.3634L86.7904 44.1166L86.7905 45.4932L85.4139 45.4931Z" fill="#124EAD"/>
<path fill-rule="evenodd" clip-rule="evenodd" d="M31.7277 70.2714L28.9745 73.0245L28.9746 74.401L30.3511 74.4011L33.1043 71.648L33.1044 70.2713L31.7277 70.2714Z" fill="#124EAD"/>
<path fill-rule="evenodd" clip-rule="evenodd" d="M30.3511 70.2714L33.1042 73.0245L33.1042 74.401L31.7277 74.4011L28.9745 71.648L28.9744 70.2713L30.3511 70.2714Z" fill="#124EAD"/>
<path fill-rule="evenodd" clip-rule="evenodd" d="M31.7276 45.4931L28.9744 42.74L28.9745 41.3635L30.351 41.3634L33.1042 44.1166L33.1042 45.4932L31.7276 45.4931Z" fill="#124EAD"/>
<path fill-rule="evenodd" clip-rule="evenodd" d="M30.351 45.4931L33.1041 42.74L33.104 41.3635L31.7276 41.3634L28.9744 44.1166L28.9743 45.4932L30.351 45.4931Z" fill="#124EAD"/>
<path fill-rule="evenodd" clip-rule="evenodd" d="M71.6481 82.6607L74.4012 85.4138L74.4012 86.7903L73.0247 86.7904L70.2715 84.0373L70.2714 82.6606L71.6481 82.6607Z" fill="#124EAD"/>
<path fill-rule="evenodd" clip-rule="evenodd" d="M73.0247 82.6607L70.2715 85.4138L70.2716 86.7903L71.6481 86.7904L74.4013 84.0373L74.4014 82.6606L73.0247 82.6607Z" fill="#124EAD"/>
<path fill-rule="evenodd" clip-rule="evenodd" d="M71.6481 33.104L74.4012 30.3508L74.4012 28.9743L73.0247 28.9742L70.2715 31.7274L70.2714 33.104L71.6481 33.104Z" fill="#124EAD"/>
<path fill-rule="evenodd" clip-rule="evenodd" d="M73.0247 33.104L70.2715 30.3508L70.2716 28.9743L71.6481 28.9742L74.4013 31.7274L74.4014 33.104L73.0247 33.104Z" fill="#124EAD"/>
<path fill-rule="evenodd" clip-rule="evenodd" d="M44.1169 82.6606L41.3638 85.4138L41.3638 86.7903L42.7403 86.7903L45.4935 84.0372L45.4936 82.6605L44.1169 82.6606Z" fill="#124EAD"/>
<path fill-rule="evenodd" clip-rule="evenodd" d="M42.7403 82.6606L45.4935 85.4138L45.4934 86.7903L44.1169 86.7903L41.3637 84.0372L41.3637 82.6605L42.7403 82.6606Z" fill="#124EAD"/>
<path fill-rule="evenodd" clip-rule="evenodd" d="M44.1169 33.1038L41.3638 30.3507L41.3638 28.9742L42.7403 28.9741L45.4935 31.7273L45.4936 33.1039L44.1169 33.1038Z" fill="#124EAD"/>
<path fill-rule="evenodd" clip-rule="evenodd" d="M42.7403 33.1038L45.4935 30.3507L45.4934 28.9742L44.1169 28.9741L41.3637 31.7273L41.3637 33.1039L42.7403 33.1038Z" fill="#124EAD"/>
<path fill-rule="evenodd" clip-rule="evenodd" d="M71.6482 62.012L74.4014 64.7651L74.4013 66.1416L73.0248 66.1417L70.2716 63.3886L70.2716 62.0119L71.6482 62.012Z" fill="#124EAD"/>
<path fill-rule="evenodd" clip-rule="evenodd" d="M73.0248 62.012L70.2717 64.7651L70.2717 66.1416L71.6482 66.1417L74.4014 63.3886L74.4015 62.0119L73.0248 62.012Z" fill="#124EAD"/>
<path fill-rule="evenodd" clip-rule="evenodd" d="M71.6482 53.7524L74.4014 50.9993L74.4013 49.6228L73.0248 49.6227L70.2716 52.3758L70.2716 53.7525L71.6482 53.7524Z" fill="#124EAD"/>
<path fill-rule="evenodd" clip-rule="evenodd" d="M73.0248 53.7524L70.2717 50.9993L70.2717 49.6228L71.6482 49.6227L74.4014 52.3758L74.4015 53.7525L73.0248 53.7524Z" fill="#124EAD"/>
<path fill-rule="evenodd" clip-rule="evenodd" d="M44.1167 62.0121L41.3636 64.7653L41.3637 66.1418L42.7402 66.1418L45.4933 63.3887L45.4934 62.012L44.1167 62.0121Z" fill="#124EAD"/>
<path fill-rule="evenodd" clip-rule="evenodd" d="M42.7401 62.0121L45.4933 64.7653L45.4932 66.1418L44.1167 66.1418L41.3636 63.3887L41.3635 62.012L42.7401 62.0121Z" fill="#124EAD"/>
<path fill-rule="evenodd" clip-rule="evenodd" d="M44.1169 53.7526L41.3637 50.9994L41.3638 49.6229L42.7403 49.6229L45.4934 52.376L45.4935 53.7527L44.1169 53.7526Z" fill="#124EAD"/>
<path fill-rule="evenodd" clip-rule="evenodd" d="M42.7403 53.7526L45.4934 50.9994L45.4933 49.6229L44.1168 49.6229L41.3637 52.376L41.3636 53.7527L42.7403 53.7526Z" fill="#124EAD"/>
<path fill-rule="evenodd" clip-rule="evenodd" d="M63.3887 62.012L66.1418 64.7651L66.1418 66.1416L64.7653 66.1417L62.0121 63.3886L62.012 62.0119L63.3887 62.012Z" fill="#124EAD"/>
<path fill-rule="evenodd" clip-rule="evenodd" d="M64.7653 62.012L62.0121 64.7651L62.0122 66.1416L63.3887 66.1417L66.1419 63.3886L66.142 62.0119L64.7653 62.012Z" fill="#124EAD"/>
<path fill-rule="evenodd" clip-rule="evenodd" d="M63.3888 53.7525L66.1419 50.9993L66.1418 49.6228L64.7653 49.6227L62.0122 52.3759L62.0121 53.7525L63.3888 53.7525Z" fill="#124EAD"/>
<path fill-rule="evenodd" clip-rule="evenodd" d="M64.7654 53.7525L62.0122 50.9993L62.0123 49.6228L63.3888 49.6227L66.1419 52.3759L66.142 53.7525L64.7654 53.7525Z" fill="#124EAD"/>
<path fill-rule="evenodd" clip-rule="evenodd" d="M52.3763 62.0121L49.6232 64.7653L49.6232 66.1418L50.9997 66.1418L53.7529 63.3887L53.753 62.012L52.3763 62.0121Z" fill="#124EAD"/>
<path fill-rule="evenodd" clip-rule="evenodd" d="M50.9997 62.0121L53.7529 64.7653L53.7528 66.1418L52.3763 66.1418L49.6231 63.3887L49.6231 62.012L50.9997 62.0121Z" fill="#124EAD"/>
<path fill-rule="evenodd" clip-rule="evenodd" d="M52.3763 53.7525L49.6232 50.9994L49.6232 49.6229L50.9997 49.6228L53.7529 52.376L53.753 53.7526L52.3763 53.7525Z" fill="#124EAD"/>
<path fill-rule="evenodd" clip-rule="evenodd" d="M50.9997 53.7525L53.7529 50.9994L53.7528 49.6229L52.3763 49.6228L49.6231 52.376L49.6231 53.7526L50.9997 53.7525Z" fill="#124EAD"/>
<path fill-rule="evenodd" clip-rule="evenodd" d="M63.3887 70.2715L66.1418 73.0247L66.1418 74.4012L64.7653 74.4012L62.0121 71.6481L62.012 70.2714L63.3887 70.2715Z" fill="#124EAD"/>
<path fill-rule="evenodd" clip-rule="evenodd" d="M64.7653 70.2715L62.0121 73.0247L62.0122 74.4012L63.3887 74.4012L66.1419 71.6481L66.142 70.2714L64.7653 70.2715Z" fill="#124EAD"/>
<path fill-rule="evenodd" clip-rule="evenodd" d="M63.3888 45.4929L66.1419 42.7398L66.1418 41.3633L64.7653 41.3632L62.0122 44.1164L62.0121 45.493L63.3888 45.4929Z" fill="#124EAD"/>
<path fill-rule="evenodd" clip-rule="evenodd" d="M64.7654 45.4929L62.0122 42.7398L62.0123 41.3633L63.3888 41.3632L66.1419 44.1164L66.142 45.493L64.7654 45.4929Z" fill="#124EAD"/>
<path fill-rule="evenodd" clip-rule="evenodd" d="M52.3763 70.2716L49.6231 73.0247L49.6232 74.4012L50.9997 74.4013L53.7528 71.6482L53.7529 70.2715L52.3763 70.2716Z" fill="#124EAD"/>
<path fill-rule="evenodd" clip-rule="evenodd" d="M50.9997 70.2716L53.7528 73.0247L53.7527 74.4012L52.3762 74.4013L49.6231 71.6482L49.623 70.2715L50.9997 70.2716Z" fill="#124EAD"/>
<path fill-rule="evenodd" clip-rule="evenodd" d="M52.3764 45.4931L49.6232 42.7399L49.6233 41.3634L50.9998 41.3633L53.753 44.1165L53.753 45.4931L52.3764 45.4931Z" fill="#124EAD"/>
<path fill-rule="evenodd" clip-rule="evenodd" d="M50.9998 45.4931L53.7529 42.7399L53.7529 41.3634L52.3764 41.3633L49.6232 44.1165L49.6231 45.4931L50.9998 45.4931Z" fill="#124EAD"/>
<path fill-rule="evenodd" clip-rule="evenodd" d="M59.2589 66.1418L62.0121 68.8949L62.012 70.2714L60.6355 70.2715L57.8824 67.5183L57.8823 66.1417L59.2589 66.1418Z" fill="#124EAD"/>
<path fill-rule="evenodd" clip-rule="evenodd" d="M60.6355 66.1418L57.8824 68.8949L57.8825 70.2714L59.259 70.2715L62.0121 67.5183L62.0122 66.1417L60.6355 66.1418Z" fill="#124EAD"/>
<path fill-rule="evenodd" clip-rule="evenodd" d="M59.259 49.6227L62.0121 46.8696L62.0121 45.4931L60.6356 45.493L57.8824 48.2461L57.8823 49.6228L59.259 49.6227Z" fill="#124EAD"/>
<path fill-rule="evenodd" clip-rule="evenodd" d="M60.6356 49.6227L57.8824 46.8696L57.8825 45.4931L59.259 45.493L62.0122 48.2461L62.0123 49.6228L60.6356 49.6227Z" fill="#124EAD"/>
<path fill-rule="evenodd" clip-rule="evenodd" d="M56.506 66.1418L53.7529 68.895L53.7529 70.2715L55.1294 70.2715L57.8826 67.5184L57.8827 66.1417L56.506 66.1418Z" fill="#124EAD"/>
<path fill-rule="evenodd" clip-rule="evenodd" d="M55.1294 66.1418L57.8826 68.895L57.8825 70.2715L56.506 70.2715L53.7528 67.5184L53.7528 66.1417L55.1294 66.1418Z" fill="#124EAD"/>
<path fill-rule="evenodd" clip-rule="evenodd" d="M56.5061 49.6228L53.7529 46.8696L53.753 45.4931L55.1295 45.493L57.8827 48.2462L57.8827 49.6228L56.5061 49.6228Z" fill="#124EAD"/>
<path fill-rule="evenodd" clip-rule="evenodd" d="M55.1295 49.6228L57.8826 46.8696L57.8826 45.4931L56.5061 45.493L53.7529 48.2462L53.7528 49.6228L55.1295 49.6228Z" fill="#124EAD"/>
<path fill-rule="evenodd" clip-rule="evenodd" d="M67.5185 57.8822L70.2716 60.6354L70.2715 62.0119L68.895 62.012L66.1419 59.2588L66.1418 57.8822L67.5185 57.8822Z" fill="#124EAD"/>
<path fill-rule="evenodd" clip-rule="evenodd" d="M68.8951 57.8822L66.1419 60.6354L66.142 62.0119L67.5185 62.012L70.2716 59.2588L70.2717 57.8822L68.8951 57.8822Z" fill="#124EAD"/>
<path fill-rule="evenodd" clip-rule="evenodd" d="M67.5185 57.8822L70.2716 55.129L70.2715 53.7525L68.895 53.7524L66.1419 56.5056L66.1418 57.8822L67.5185 57.8822Z" fill="#124EAD"/>
<path fill-rule="evenodd" clip-rule="evenodd" d="M68.8951 57.8822L66.1419 55.129L66.142 53.7525L67.5185 53.7524L70.2716 56.5056L70.2717 57.8822L68.8951 57.8822Z" fill="#124EAD"/>
<path fill-rule="evenodd" clip-rule="evenodd" d="M48.2466 57.8824L45.4934 60.6355L45.4935 62.012L46.87 62.0121L49.6231 59.2589L49.6232 57.8823L48.2466 57.8824Z" fill="#124EAD"/>
<path fill-rule="evenodd" clip-rule="evenodd" d="M46.87 57.8824L49.6231 60.6355L49.623 62.012L48.2465 62.0121L45.4934 59.2589L45.4933 57.8823L46.87 57.8824Z" fill="#124EAD"/>
<path fill-rule="evenodd" clip-rule="evenodd" d="M48.2466 57.8823L45.4934 55.1291L45.4935 53.7526L46.87 53.7526L49.6231 56.5057L49.6232 57.8824L48.2466 57.8823Z" fill="#124EAD"/>
<path fill-rule="evenodd" clip-rule="evenodd" d="M46.87 57.8823L49.6231 55.1291L49.623 53.7526L48.2465 53.7526L45.4934 56.5057L45.4933 57.8824L46.87 57.8823Z" fill="#124EAD"/>
</svg>
