<svg width="40" height="40" viewBox="0 0 40 40" fill="none" xmlns="http://www.w3.org/2000/svg">
<path d="M11.481 12.1698C9.76959 10.3684 8.9825 8.00921 9.11902 5.69908C9.18727 4.54393 10.1054 3.62566 11.2605 3.55721C13.6409 3.41615 16.0734 4.2557 17.8943 6.07663C18.5431 6.72543 19.0674 7.45188 19.4671 8.22593C19.4918 8.14661 19.5171 8.06775 19.5433 7.98936C20.1026 6.31095 21.0979 4.57641 22.8524 3.84538C23.4898 3.57986 24.2216 3.8812 24.4871 4.51846C24.7526 5.15571 24.4513 5.88755 23.8139 6.15308C23.0684 6.4637 22.3971 7.33333 21.9149 8.77993C21.5161 9.97623 21.3134 11.3779 21.2628 12.6777L21.2679 12.6766L24.4381 12.0198C29.2684 11.019 33.9384 14.3108 34.6196 19.1963C35.1669 23.1222 34.3601 27.1173 32.3319 30.523L31.7469 31.5055C31.7253 31.5418 31.7018 31.5772 31.6764 31.6112L29.3166 34.789C27.1891 37.6538 22.9976 37.9203 20.5244 35.3482C20.2381 35.0505 19.7616 35.0505 19.4754 35.3482C17.0021 37.9203 12.8106 37.6538 10.6832 34.789L8.32325 31.6112C8.298 31.5772 8.27449 31.5418 8.2528 31.5055L7.66779 30.523C5.6397 27.1173 4.83282 23.1222 5.38017 19.1963C5.86317 15.7321 8.35179 13.0692 11.481 12.1698Z" fill="#FFD500"/>
</svg>
