<svg width="40" height="40" viewBox="0 0 40 40" fill="none" xmlns="http://www.w3.org/2000/svg">
<path fill-rule="evenodd" clip-rule="evenodd" d="M25.4167 5.00024H14.5833L14.4137 5.01166C13.8036 5.09443 13.3333 5.61741 13.3333 6.25024V11.6669H10.4167C7.42512 11.6669 5 14.092 5 17.0836V27.9169C5 30.9084 7.42512 33.3336 10.4167 33.3336H29.5833C32.5748 33.3336 35 30.9084 35 27.9169V17.0836C35 14.092 32.5748 11.6669 29.5833 11.6669H26.6667V6.25024L26.6553 6.08063C26.5725 5.47049 26.0495 5.00024 25.4167 5.00024ZM15.8333 7.50024H24.1667V11.6669H15.8333V7.50024ZM19.1667 17.917V20.8337H16.25C15.5597 20.8337 15 21.3933 15 22.0837C15 22.774 15.5597 23.3337 16.25 23.3337H19.1667V26.2503C19.1667 26.9407 19.7263 27.5003 20.4167 27.5003C21.107 27.5003 21.6667 26.9407 21.6667 26.2503V23.3337H24.5833C25.2737 23.3337 25.8333 22.774 25.8333 22.0837C25.8333 21.3933 25.2737 20.8337 24.5833 20.8337H21.6667V17.917C21.6667 17.2267 21.107 16.667 20.4167 16.667C19.7263 16.667 19.1667 17.2267 19.1667 17.917Z" fill="#FFD500"/>
</svg>
