<svg width="96" height="96" viewBox="0 0 96 96" fill="none" xmlns="http://www.w3.org/2000/svg">
<path fill-rule="evenodd" clip-rule="evenodd" d="M4.00011 24L0.000114441 20L0.00022769 18.0001L2.00011 18L6.00011 22L6.00023 24.0001L4.00011 24Z" fill="black"/>
<path fill-rule="evenodd" clip-rule="evenodd" d="M2.00011 24L6.00011 20L6 18.0001L4.00011 18L0.000114441 22L9.53674e-07 24.0001L2.00011 24Z" fill="black"/>
<path fill-rule="evenodd" clip-rule="evenodd" d="M4.00011 72.0001L0.000114441 76.0001L0.00022769 78L2.00011 78.0001L6.00011 74.0001L6.00023 72L4.00011 72.0001Z" fill="black"/>
<path fill-rule="evenodd" clip-rule="evenodd" d="M2.00011 72.0001L6.00011 76.0001L6 78L4.00011 78.0001L0.000114441 74.0001L9.53674e-07 72L2.00011 72.0001Z" fill="black"/>
<path fill-rule="evenodd" clip-rule="evenodd" d="M91.9999 24L95.9999 20L95.9998 18.0001L93.9999 18L89.9999 22L89.9998 24.0001L91.9999 24Z" fill="black"/>
<path fill-rule="evenodd" clip-rule="evenodd" d="M93.9999 24L89.9999 20L90 18.0001L91.9999 18L95.9999 22L96 24.0001L93.9999 24Z" fill="black"/>
<path fill-rule="evenodd" clip-rule="evenodd" d="M91.9999 72.0001L95.9999 76.0001L95.9998 78L93.9999 78.0001L89.9999 74.0001L89.9998 72L91.9999 72.0001Z" fill="black"/>
<path fill-rule="evenodd" clip-rule="evenodd" d="M93.9999 72.0001L89.9999 76.0001L90 78L91.9999 78.0001L95.9999 74.0001L96 72L93.9999 72.0001Z" fill="black"/>
<path fill-rule="evenodd" clip-rule="evenodd" d="M22.0001 6L18.0001 2L18.0002 0.000113249L20.0001 0L24.0001 4L24.0002 6.00011L22.0001 6Z" fill="black"/>
<path fill-rule="evenodd" clip-rule="evenodd" d="M20.0001 6L24.0001 2L24 0.000113249L22.0001 0L18.0001 4L18 6.00011L20.0001 6Z" fill="black"/>
<path fill-rule="evenodd" clip-rule="evenodd" d="M22.0001 90.0001L18.0001 94.0001L18.0002 96L20.0001 96.0001L24.0001 92.0001L24.0002 90L22.0001 90.0001Z" fill="black"/>
<path fill-rule="evenodd" clip-rule="evenodd" d="M20.0001 90.0001L24.0001 94.0001L24 96L22.0001 96.0001L18.0001 92.0001L18 90L20.0001 90.0001Z" fill="black"/>
<path fill-rule="evenodd" clip-rule="evenodd" d="M73.9999 6L77.9999 2L77.9998 0.000113249L75.9999 0L71.9999 4L71.9998 6.00011L73.9999 6Z" fill="black"/>
<path fill-rule="evenodd" clip-rule="evenodd" d="M75.9999 6L71.9999 2L72 0.000113249L73.9999 0L77.9999 4L78 6.00011L75.9999 6Z" fill="black"/>
<path fill-rule="evenodd" clip-rule="evenodd" d="M73.9999 90.0001L77.9999 94.0001L77.9998 96L75.9999 96.0001L71.9999 92.0001L71.9998 90L73.9999 90.0001Z" fill="black"/>
<path fill-rule="evenodd" clip-rule="evenodd" d="M75.9999 90.0001L71.9999 94.0001L72 96L73.9999 96.0001L77.9999 92.0001L78 90L75.9999 90.0001Z" fill="black"/>
<path fill-rule="evenodd" clip-rule="evenodd" d="M10.0001 12L6.00011 8L6.00023 6.00011L8.00011 6L12.0001 10L12.0002 12.0001L10.0001 12Z" fill="black"/>
<path fill-rule="evenodd" clip-rule="evenodd" d="M8.00011 12L12.0001 8L12 6.00011L10.0001 6L6.00011 10L6 12.0001L8.00011 12Z" fill="black"/>
<path fill-rule="evenodd" clip-rule="evenodd" d="M10.0001 84.0001L6.00011 88.0001L6.00023 90L8.00011 90.0001L12.0001 86.0001L12.0002 84L10.0001 84.0001Z" fill="black"/>
<path fill-rule="evenodd" clip-rule="evenodd" d="M8.00011 84.0001L12.0001 88.0001L12 90L10.0001 90.0001L6.00011 86.0001L6 84L8.00011 84.0001Z" fill="black"/>
<path fill-rule="evenodd" clip-rule="evenodd" d="M85.9999 12L89.9999 8L89.9998 6.00011L87.9999 6L83.9999 10L83.9998 12.0001L85.9999 12Z" fill="black"/>
<path fill-rule="evenodd" clip-rule="evenodd" d="M87.9999 12L83.9999 8L84 6.00011L85.9999 6L89.9999 10L90 12.0001L87.9999 12Z" fill="black"/>
<path fill-rule="evenodd" clip-rule="evenodd" d="M85.9999 84.0001L89.9999 88.0001L89.9998 90L87.9999 90.0001L83.9999 86.0001L83.9998 84L85.9999 84.0001Z" fill="black"/>
<path fill-rule="evenodd" clip-rule="evenodd" d="M87.9999 84.0001L83.9999 88.0001L84 90L85.9999 90.0001L89.9999 86.0001L90 84L87.9999 84.0001Z" fill="black"/>
<path fill-rule="evenodd" clip-rule="evenodd" d="M16.0001 18L12.0001 14L12.0002 12.0001L14.0001 12L18.0001 16L18.0002 18.0001L16.0001 18Z" fill="black"/>
<path fill-rule="evenodd" clip-rule="evenodd" d="M14.0001 18L18.0001 14L18 12.0001L16.0001 12L12.0001 16L12 18.0001L14.0001 18Z" fill="black"/>
<path fill-rule="evenodd" clip-rule="evenodd" d="M16.0001 78.0001L12.0001 82.0001L12.0002 84L14.0001 84.0001L18.0001 80.0001L18.0002 78L16.0001 78.0001Z" fill="black"/>
<path fill-rule="evenodd" clip-rule="evenodd" d="M14.0001 78.0001L18.0001 82.0001L18 84L16.0001 84.0001L12.0001 80.0001L12 78L14.0001 78.0001Z" fill="black"/>
<path fill-rule="evenodd" clip-rule="evenodd" d="M79.9999 18L83.9999 14L83.9998 12.0001L81.9999 12L77.9999 16L77.9998 18.0001L79.9999 18Z" fill="black"/>
<path fill-rule="evenodd" clip-rule="evenodd" d="M81.9999 18L77.9999 14L78 12.0001L79.9999 12L83.9999 16L84 18.0001L81.9999 18Z" fill="black"/>
<path fill-rule="evenodd" clip-rule="evenodd" d="M79.9999 78.0001L83.9999 82.0001L83.9998 84L81.9999 84.0001L77.9999 80.0001L77.9998 78L79.9999 78.0001Z" fill="black"/>
<path fill-rule="evenodd" clip-rule="evenodd" d="M81.9999 78.0001L77.9999 82.0001L78 84L79.9999 84.0001L83.9999 80.0001L84 78L81.9999 78.0001Z" fill="black"/>
<path fill-rule="evenodd" clip-rule="evenodd" d="M22.0001 24L18.0001 20L18.0002 18.0001L20.0001 18L24.0001 22L24.0002 24.0001L22.0001 24Z" fill="black"/>
<path fill-rule="evenodd" clip-rule="evenodd" d="M20.0001 24L24.0001 20L24 18.0001L22.0001 18L18.0001 22L18 24.0001L20.0001 24Z" fill="black"/>
<path fill-rule="evenodd" clip-rule="evenodd" d="M22.0001 72.0001L18.0001 76.0001L18.0002 78L20.0001 78.0001L24.0001 74.0001L24.0002 72L22.0001 72.0001Z" fill="black"/>
<path fill-rule="evenodd" clip-rule="evenodd" d="M20.0001 72.0001L24.0001 76.0001L24 78L22.0001 78.0001L18.0001 74.0001L18 72L20.0001 72.0001Z" fill="black"/>
<path fill-rule="evenodd" clip-rule="evenodd" d="M73.9999 24L77.9999 20L77.9998 18.0001L75.9999 18L71.9999 22L71.9998 24.0001L73.9999 24Z" fill="black"/>
<path fill-rule="evenodd" clip-rule="evenodd" d="M75.9999 24L71.9999 20L72 18.0001L73.9999 18L77.9999 22L78 24.0001L75.9999 24Z" fill="black"/>
<path fill-rule="evenodd" clip-rule="evenodd" d="M73.9999 72.0001L77.9999 76.0001L77.9998 78L75.9999 78.0001L71.9999 74.0001L71.9998 72L73.9999 72.0001Z" fill="black"/>
<path fill-rule="evenodd" clip-rule="evenodd" d="M75.9999 72.0001L71.9999 76.0001L72 78L73.9999 78.0001L77.9999 74.0001L78 72L75.9999 72.0001Z" fill="black"/>
<path fill-rule="evenodd" clip-rule="evenodd" d="M10.0001 18L6.00011 14L6.00023 12.0001L8.00011 12L12.0001 16L12.0002 18.0001L10.0001 18Z" fill="#FF0000"/>
<path fill-rule="evenodd" clip-rule="evenodd" d="M8.00011 18L12.0001 14L12 12.0001L10.0001 12L6.00011 16L6 18.0001L8.00011 18Z" fill="#FF0000"/>
<path fill-rule="evenodd" clip-rule="evenodd" d="M10.0001 78.0001L6.00011 82.0001L6.00023 84L8.00011 84.0001L12.0001 80.0001L12.0002 78L10.0001 78.0001Z" fill="#FF0000"/>
<path fill-rule="evenodd" clip-rule="evenodd" d="M8.00011 78.0001L12.0001 82.0001L12 84L10.0001 84.0001L6.00011 80.0001L6 78L8.00011 78.0001Z" fill="#FF0000"/>
<path fill-rule="evenodd" clip-rule="evenodd" d="M85.9999 18L89.9999 14L89.9998 12.0001L87.9999 12L83.9999 16L83.9998 18.0001L85.9999 18Z" fill="#FF0000"/>
<path fill-rule="evenodd" clip-rule="evenodd" d="M87.9999 18L83.9999 14L84 12.0001L85.9999 12L89.9999 16L90 18.0001L87.9999 18Z" fill="#FF0000"/>
<path fill-rule="evenodd" clip-rule="evenodd" d="M85.9999 78.0001L89.9999 82.0001L89.9998 84L87.9999 84.0001L83.9999 80.0001L83.9998 78L85.9999 78.0001Z" fill="#FF0000"/>
<path fill-rule="evenodd" clip-rule="evenodd" d="M87.9999 78.0001L83.9999 82.0001L84 84L85.9999 84.0001L89.9999 80.0001L90 78L87.9999 78.0001Z" fill="#FF0000"/>
<path fill-rule="evenodd" clip-rule="evenodd" d="M16.0001 12L12.0001 8L12.0002 6.00011L14.0001 6L18.0001 10L18.0002 12.0001L16.0001 12Z" fill="#FF0000"/>
<path fill-rule="evenodd" clip-rule="evenodd" d="M14.0001 12L18.0001 8L18 6.00011L16.0001 6L12.0001 10L12 12.0001L14.0001 12Z" fill="#FF0000"/>
<path fill-rule="evenodd" clip-rule="evenodd" d="M16.0001 84.0001L12.0001 88.0001L12.0002 90L14.0001 90.0001L18.0001 86.0001L18.0002 84L16.0001 84.0001Z" fill="#FF0000"/>
<path fill-rule="evenodd" clip-rule="evenodd" d="M14.0001 84.0001L18.0001 88.0001L18 90L16.0001 90.0001L12.0001 86.0001L12 84L14.0001 84.0001Z" fill="#FF0000"/>
<path fill-rule="evenodd" clip-rule="evenodd" d="M79.9999 12L83.9999 8L83.9998 6.00011L81.9999 6L77.9999 10L77.9998 12.0001L79.9999 12Z" fill="#FF0000"/>
<path fill-rule="evenodd" clip-rule="evenodd" d="M81.9999 12L77.9999 8L78 6.00011L79.9999 6L83.9999 10L84 12.0001L81.9999 12Z" fill="#FF0000"/>
<path fill-rule="evenodd" clip-rule="evenodd" d="M79.9999 84.0001L83.9999 88.0001L83.9998 90L81.9999 90.0001L77.9999 86.0001L77.9998 84L79.9999 84.0001Z" fill="#FF0000"/>
<path fill-rule="evenodd" clip-rule="evenodd" d="M81.9999 84.0001L77.9999 88.0001L78 90L79.9999 90.0001L83.9999 86.0001L84 84L81.9999 84.0001Z" fill="#FF0000"/>
<path fill-rule="evenodd" clip-rule="evenodd" d="M16.0001 24L12.0001 20L12.0002 18.0001L14.0001 18L18.0001 22L18.0002 24.0001L16.0001 24Z" fill="#FF0000"/>
<path fill-rule="evenodd" clip-rule="evenodd" d="M14.0001 24L18.0001 20L18 18.0001L16.0001 18L12.0001 22L12 24.0001L14.0001 24Z" fill="#FF0000"/>
<path fill-rule="evenodd" clip-rule="evenodd" d="M16.0001 72.0001L12.0001 76.0001L12.0002 78L14.0001 78.0001L18.0001 74.0001L18.0002 72L16.0001 72.0001Z" fill="#FF0000"/>
<path fill-rule="evenodd" clip-rule="evenodd" d="M14.0001 72.0001L18.0001 76.0001L18 78L16.0001 78.0001L12.0001 74.0001L12 72L14.0001 72.0001Z" fill="#FF0000"/>
<path fill-rule="evenodd" clip-rule="evenodd" d="M79.9999 24L83.9999 20L83.9998 18.0001L81.9999 18L77.9999 22L77.9998 24.0001L79.9999 24Z" fill="#FF0000"/>
<path fill-rule="evenodd" clip-rule="evenodd" d="M81.9999 24L77.9999 20L78 18.0001L79.9999 18L83.9999 22L84 24.0001L81.9999 24Z" fill="#FF0000"/>
<path fill-rule="evenodd" clip-rule="evenodd" d="M79.9999 72.0001L83.9999 76.0001L83.9998 78L81.9999 78.0001L77.9999 74.0001L77.9998 72L79.9999 72.0001Z" fill="#FF0000"/>
<path fill-rule="evenodd" clip-rule="evenodd" d="M81.9999 72.0001L77.9999 76.0001L78 78L79.9999 78.0001L83.9999 74.0001L84 72L81.9999 72.0001Z" fill="#FF0000"/>
<path fill-rule="evenodd" clip-rule="evenodd" d="M16.0001 36L12.0001 32L12.0002 30.0001L14.0001 30L18.0001 34L18.0002 36.0001L16.0001 36Z" fill="#FF0000"/>
<path fill-rule="evenodd" clip-rule="evenodd" d="M14.0001 36L18.0001 32L18 30.0001L16.0001 30L12.0001 34L12 36.0001L14.0001 36Z" fill="#FF0000"/>
<path fill-rule="evenodd" clip-rule="evenodd" d="M16.0001 60.0001L12.0001 64.0001L12.0002 66L14.0001 66.0001L18.0001 62.0001L18.0002 60L16.0001 60.0001Z" fill="#FF0000"/>
<path fill-rule="evenodd" clip-rule="evenodd" d="M14.0001 60.0001L18.0001 64.0001L18 66L16.0001 66.0001L12.0001 62.0001L12 60L14.0001 60.0001Z" fill="#FF0000"/>
<path fill-rule="evenodd" clip-rule="evenodd" d="M79.9999 36L83.9999 32L83.9998 30.0001L81.9999 30L77.9999 34L77.9998 36.0001L79.9999 36Z" fill="#FF0000"/>
<path fill-rule="evenodd" clip-rule="evenodd" d="M81.9999 36L77.9999 32L78 30.0001L79.9999 30L83.9999 34L84 36.0001L81.9999 36Z" fill="#FF0000"/>
<path fill-rule="evenodd" clip-rule="evenodd" d="M79.9999 60.0001L83.9999 64.0001L83.9998 66L81.9999 66.0001L77.9999 62.0001L77.9998 60L79.9999 60.0001Z" fill="#FF0000"/>
<path fill-rule="evenodd" clip-rule="evenodd" d="M81.9999 60.0001L77.9999 64.0001L78 66L79.9999 66.0001L83.9999 62.0001L84 60L81.9999 60.0001Z" fill="#FF0000"/>
<path fill-rule="evenodd" clip-rule="evenodd" d="M16.0001 42L12.0001 38L12.0002 36.0001L14.0001 36L18.0001 40L18.0002 42.0001L16.0001 42Z" fill="#FF0000"/>
<path fill-rule="evenodd" clip-rule="evenodd" d="M14.0001 42L18.0001 38L18 36.0001L16.0001 36L12.0001 40L12 42.0001L14.0001 42Z" fill="#FF0000"/>
<path fill-rule="evenodd" clip-rule="evenodd" d="M16.0001 54.0001L12.0001 58.0001L12.0002 60L14.0001 60.0001L18.0001 56.0001L18.0002 54L16.0001 54.0001Z" fill="#FF0000"/>
<path fill-rule="evenodd" clip-rule="evenodd" d="M14.0001 54.0001L18.0001 58.0001L18 60L16.0001 60.0001L12.0001 56.0001L12 54L14.0001 54.0001Z" fill="#FF0000"/>
<path fill-rule="evenodd" clip-rule="evenodd" d="M79.9999 42L83.9999 38L83.9998 36.0001L81.9999 36L77.9999 40L77.9998 42.0001L79.9999 42Z" fill="#FF0000"/>
<path fill-rule="evenodd" clip-rule="evenodd" d="M81.9999 42L77.9999 38L78 36.0001L79.9999 36L83.9999 40L84 42.0001L81.9999 42Z" fill="#FF0000"/>
<path fill-rule="evenodd" clip-rule="evenodd" d="M79.9999 54.0001L83.9999 58.0001L83.9998 60L81.9999 60.0001L77.9999 56.0001L77.9998 54L79.9999 54.0001Z" fill="#FF0000"/>
<path fill-rule="evenodd" clip-rule="evenodd" d="M81.9999 54.0001L77.9999 58.0001L78 60L79.9999 60.0001L83.9999 56.0001L84 54L81.9999 54.0001Z" fill="#FF0000"/>
<path fill-rule="evenodd" clip-rule="evenodd" d="M16.0001 48L12.0001 44L12.0002 42.0001L14.0001 42L18.0001 46L18.0002 48.0001L16.0001 48Z" fill="#FF0000"/>
<path fill-rule="evenodd" clip-rule="evenodd" d="M14.0001 48L18.0001 44L18 42.0001L16.0001 42L12.0001 46L12 48.0001L14.0001 48Z" fill="#FF0000"/>
<path fill-rule="evenodd" clip-rule="evenodd" d="M16.0001 48.0001L12.0001 52.0001L12.0002 54L14.0001 54.0001L18.0001 50.0001L18.0002 48L16.0001 48.0001Z" fill="#FF0000"/>
<path fill-rule="evenodd" clip-rule="evenodd" d="M14.0001 48.0001L18.0001 52.0001L18 54L16.0001 54.0001L12.0001 50.0001L12 48L14.0001 48.0001Z" fill="#FF0000"/>
<path fill-rule="evenodd" clip-rule="evenodd" d="M79.9999 48L83.9999 44L83.9998 42.0001L81.9999 42L77.9999 46L77.9998 48.0001L79.9999 48Z" fill="#FF0000"/>
<path fill-rule="evenodd" clip-rule="evenodd" d="M81.9999 48L77.9999 44L78 42.0001L79.9999 42L83.9999 46L84 48.0001L81.9999 48Z" fill="#FF0000"/>
<path fill-rule="evenodd" clip-rule="evenodd" d="M79.9999 48.0001L83.9999 52.0001L83.9998 54L81.9999 54.0001L77.9999 50.0001L77.9998 48L79.9999 48.0001Z" fill="#FF0000"/>
<path fill-rule="evenodd" clip-rule="evenodd" d="M81.9999 48.0001L77.9999 52.0001L78 54L79.9999 54.0001L83.9999 50.0001L84 48L81.9999 48.0001Z" fill="#FF0000"/>
<path fill-rule="evenodd" clip-rule="evenodd" d="M22.0001 48L18.0001 44L18.0002 42.0001L20.0001 42L24.0001 46L24.0002 48.0001L22.0001 48Z" fill="#FF0000"/>
<path fill-rule="evenodd" clip-rule="evenodd" d="M20.0001 48L24.0001 44L24 42.0001L22.0001 42L18.0001 46L18 48.0001L20.0001 48Z" fill="#FF0000"/>
<path fill-rule="evenodd" clip-rule="evenodd" d="M22.0001 48.0001L18.0001 52.0001L18.0002 54L20.0001 54.0001L24.0001 50.0001L24.0002 48L22.0001 48.0001Z" fill="#FF0000"/>
<path fill-rule="evenodd" clip-rule="evenodd" d="M20.0001 48.0001L24.0001 52.0001L24 54L22.0001 54.0001L18.0001 50.0001L18 48L20.0001 48.0001Z" fill="#FF0000"/>
<path fill-rule="evenodd" clip-rule="evenodd" d="M73.9999 48L77.9999 44L77.9998 42.0001L75.9999 42L71.9999 46L71.9998 48.0001L73.9999 48Z" fill="#FF0000"/>
<path fill-rule="evenodd" clip-rule="evenodd" d="M75.9999 48L71.9999 44L72 42.0001L73.9999 42L77.9999 46L78 48.0001L75.9999 48Z" fill="#FF0000"/>
<path fill-rule="evenodd" clip-rule="evenodd" d="M73.9999 48.0001L77.9999 52.0001L77.9998 54L75.9999 54.0001L71.9999 50.0001L71.9998 48L73.9999 48.0001Z" fill="#FF0000"/>
<path fill-rule="evenodd" clip-rule="evenodd" d="M75.9999 48.0001L71.9999 52.0001L72 54L73.9999 54.0001L77.9999 50.0001L78 48L75.9999 48.0001Z" fill="#FF0000"/>
<path fill-rule="evenodd" clip-rule="evenodd" d="M28.0001 48L24.0001 44L24.0002 42.0001L26.0001 42L30.0001 46L30.0002 48.0001L28.0001 48Z" fill="#FF0000"/>
<path fill-rule="evenodd" clip-rule="evenodd" d="M26.0001 48L30.0001 44L30 42.0001L28.0001 42L24.0001 46L24 48.0001L26.0001 48Z" fill="#FF0000"/>
<path fill-rule="evenodd" clip-rule="evenodd" d="M28.0001 48.0001L24.0001 52.0001L24.0002 54L26.0001 54.0001L30.0001 50.0001L30.0002 48L28.0001 48.0001Z" fill="#FF0000"/>
<path fill-rule="evenodd" clip-rule="evenodd" d="M26.0001 48.0001L30.0001 52.0001L30 54L28.0001 54.0001L24.0001 50.0001L24 48L26.0001 48.0001Z" fill="#FF0000"/>
<path fill-rule="evenodd" clip-rule="evenodd" d="M67.9999 48L71.9999 44L71.9998 42.0001L69.9999 42L65.9999 46L65.9998 48.0001L67.9999 48Z" fill="#FF0000"/>
<path fill-rule="evenodd" clip-rule="evenodd" d="M69.9999 48L65.9999 44L66 42.0001L67.9999 42L71.9999 46L72 48.0001L69.9999 48Z" fill="#FF0000"/>
<path fill-rule="evenodd" clip-rule="evenodd" d="M67.9999 48.0001L71.9999 52.0001L71.9998 54L69.9999 54.0001L65.9999 50.0001L65.9998 48L67.9999 48.0001Z" fill="#FF0000"/>
<path fill-rule="evenodd" clip-rule="evenodd" d="M69.9999 48.0001L65.9999 52.0001L66 54L67.9999 54.0001L71.9999 50.0001L72 48L69.9999 48.0001Z" fill="#FF0000"/>
<path fill-rule="evenodd" clip-rule="evenodd" d="M22.0001 36L18.0001 32L18.0002 30.0001L20.0001 30L24.0001 34L24.0002 36.0001L22.0001 36Z" fill="#FF0000"/>
<path fill-rule="evenodd" clip-rule="evenodd" d="M20.0001 36L24.0001 32L24 30.0001L22.0001 30L18.0001 34L18 36.0001L20.0001 36Z" fill="#FF0000"/>
<path fill-rule="evenodd" clip-rule="evenodd" d="M22.0001 60.0001L18.0001 64.0001L18.0002 66L20.0001 66.0001L24.0001 62.0001L24.0002 60L22.0001 60.0001Z" fill="#FF0000"/>
<path fill-rule="evenodd" clip-rule="evenodd" d="M20.0001 60.0001L24.0001 64.0001L24 66L22.0001 66.0001L18.0001 62.0001L18 60L20.0001 60.0001Z" fill="#FF0000"/>
<path fill-rule="evenodd" clip-rule="evenodd" d="M73.9999 36L77.9999 32L77.9998 30.0001L75.9999 30L71.9999 34L71.9998 36.0001L73.9999 36Z" fill="#FF0000"/>
<path fill-rule="evenodd" clip-rule="evenodd" d="M75.9999 36L71.9999 32L72 30.0001L73.9999 30L77.9999 34L78 36.0001L75.9999 36Z" fill="#FF0000"/>
<path fill-rule="evenodd" clip-rule="evenodd" d="M73.9999 60.0001L77.9999 64.0001L77.9998 66L75.9999 66.0001L71.9999 62.0001L71.9998 60L73.9999 60.0001Z" fill="#FF0000"/>
<path fill-rule="evenodd" clip-rule="evenodd" d="M75.9999 60.0001L71.9999 64.0001L72 66L73.9999 66.0001L77.9999 62.0001L78 60L75.9999 60.0001Z" fill="#FF0000"/>
<path fill-rule="evenodd" clip-rule="evenodd" d="M28.0001 36L24.0001 32L24.0002 30.0001L26.0001 30L30.0001 34L30.0002 36.0001L28.0001 36Z" fill="#FF0000"/>
<path fill-rule="evenodd" clip-rule="evenodd" d="M26.0001 36L30.0001 32L30 30.0001L28.0001 30L24.0001 34L24 36.0001L26.0001 36Z" fill="#FF0000"/>
<path fill-rule="evenodd" clip-rule="evenodd" d="M28.0001 60.0001L24.0001 64.0001L24.0002 66L26.0001 66.0001L30.0001 62.0001L30.0002 60L28.0001 60.0001Z" fill="#FF0000"/>
<path fill-rule="evenodd" clip-rule="evenodd" d="M26.0001 60.0001L30.0001 64.0001L30 66L28.0001 66.0001L24.0001 62.0001L24 60L26.0001 60.0001Z" fill="#FF0000"/>
<path fill-rule="evenodd" clip-rule="evenodd" d="M67.9999 36L71.9999 32L71.9998 30.0001L69.9999 30L65.9999 34L65.9998 36.0001L67.9999 36Z" fill="#FF0000"/>
<path fill-rule="evenodd" clip-rule="evenodd" d="M69.9999 36L65.9999 32L66 30.0001L67.9999 30L71.9999 34L72 36.0001L69.9999 36Z" fill="#FF0000"/>
<path fill-rule="evenodd" clip-rule="evenodd" d="M67.9999 60.0001L71.9999 64.0001L71.9998 66L69.9999 66.0001L65.9999 62.0001L65.9998 60L67.9999 60.0001Z" fill="#FF0000"/>
<path fill-rule="evenodd" clip-rule="evenodd" d="M69.9999 60.0001L65.9999 64.0001L66 66L67.9999 66.0001L71.9999 62.0001L72 60L69.9999 60.0001Z" fill="#FF0000"/>
<path fill-rule="evenodd" clip-rule="evenodd" d="M28.0001 30L24.0001 26L24.0002 24.0001L26.0001 24L30.0001 28L30.0002 30.0001L28.0001 30Z" fill="#FF0000"/>
<path fill-rule="evenodd" clip-rule="evenodd" d="M26.0001 30L30.0001 26L30 24.0001L28.0001 24L24.0001 28L24 30.0001L26.0001 30Z" fill="#FF0000"/>
<path fill-rule="evenodd" clip-rule="evenodd" d="M28.0001 66.0001L24.0001 70.0001L24.0002 72L26.0001 72.0001L30.0001 68.0001L30.0002 66L28.0001 66.0001Z" fill="#FF0000"/>
<path fill-rule="evenodd" clip-rule="evenodd" d="M26.0001 66.0001L30.0001 70.0001L30 72L28.0001 72.0001L24.0001 68.0001L24 66L26.0001 66.0001Z" fill="#FF0000"/>
<path fill-rule="evenodd" clip-rule="evenodd" d="M67.9999 30L71.9999 26L71.9998 24.0001L69.9999 24L65.9999 28L65.9998 30.0001L67.9999 30Z" fill="#FF0000"/>
<path fill-rule="evenodd" clip-rule="evenodd" d="M69.9999 30L65.9999 26L66 24.0001L67.9999 24L71.9999 28L72 30.0001L69.9999 30Z" fill="#FF0000"/>
<path fill-rule="evenodd" clip-rule="evenodd" d="M67.9999 66.0001L71.9999 70.0001L71.9998 72L69.9999 72.0001L65.9999 68.0001L65.9998 66L67.9999 66.0001Z" fill="#FF0000"/>
<path fill-rule="evenodd" clip-rule="evenodd" d="M69.9999 66.0001L65.9999 70.0001L66 72L67.9999 72.0001L71.9999 68.0001L72 66L69.9999 66.0001Z" fill="#FF0000"/>
<path fill-rule="evenodd" clip-rule="evenodd" d="M34.0001 30L30.0001 26L30.0002 24.0001L32.0001 24L36.0001 28L36.0002 30.0001L34.0001 30Z" fill="#FF0000"/>
<path fill-rule="evenodd" clip-rule="evenodd" d="M32.0001 30L36.0001 26L36 24.0001L34.0001 24L30.0001 28L30 30.0001L32.0001 30Z" fill="#FF0000"/>
<path fill-rule="evenodd" clip-rule="evenodd" d="M34.0001 66.0001L30.0001 70.0001L30.0002 72L32.0001 72.0001L36.0001 68.0001L36.0002 66L34.0001 66.0001Z" fill="#FF0000"/>
<path fill-rule="evenodd" clip-rule="evenodd" d="M32.0001 66.0001L36.0001 70.0001L36 72L34.0001 72.0001L30.0001 68.0001L30 66L32.0001 66.0001Z" fill="#FF0000"/>
<path fill-rule="evenodd" clip-rule="evenodd" d="M61.9999 30L65.9999 26L65.9998 24.0001L63.9999 24L59.9999 28L59.9998 30.0001L61.9999 30Z" fill="#FF0000"/>
<path fill-rule="evenodd" clip-rule="evenodd" d="M63.9999 30L59.9999 26L60 24.0001L61.9999 24L65.9999 28L66 30.0001L63.9999 30Z" fill="#FF0000"/>
<path fill-rule="evenodd" clip-rule="evenodd" d="M61.9999 66.0001L65.9999 70.0001L65.9998 72L63.9999 72.0001L59.9999 68.0001L59.9998 66L61.9999 66.0001Z" fill="#FF0000"/>
<path fill-rule="evenodd" clip-rule="evenodd" d="M63.9999 66.0001L59.9999 70.0001L60 72L61.9999 72.0001L65.9999 68.0001L66 66L63.9999 66.0001Z" fill="#FF0000"/>
<path fill-rule="evenodd" clip-rule="evenodd" d="M46.0001 30L42.0001 26L42.0002 24.0001L44.0001 24L48.0001 28L48.0002 30.0001L46.0001 30Z" fill="#FF0000"/>
<path fill-rule="evenodd" clip-rule="evenodd" d="M44.0001 30L48.0001 26L48 24.0001L46.0001 24L42.0001 28L42 30.0001L44.0001 30Z" fill="#FF0000"/>
<path fill-rule="evenodd" clip-rule="evenodd" d="M46.0001 66.0001L42.0001 70.0001L42.0002 72L44.0001 72.0001L48.0001 68.0001L48.0002 66L46.0001 66.0001Z" fill="#FF0000"/>
<path fill-rule="evenodd" clip-rule="evenodd" d="M44.0001 66.0001L48.0001 70.0001L48 72L46.0001 72.0001L42.0001 68.0001L42 66L44.0001 66.0001Z" fill="#FF0000"/>
<path fill-rule="evenodd" clip-rule="evenodd" d="M49.9999 30L53.9999 26L53.9998 24.0001L51.9999 24L47.9999 28L47.9998 30.0001L49.9999 30Z" fill="#FF0000"/>
<path fill-rule="evenodd" clip-rule="evenodd" d="M51.9999 30L47.9999 26L48 24.0001L49.9999 24L53.9999 28L54 30.0001L51.9999 30Z" fill="#FF0000"/>
<path fill-rule="evenodd" clip-rule="evenodd" d="M49.9999 66.0001L53.9999 70.0001L53.9998 72L51.9999 72.0001L47.9999 68.0001L47.9998 66L49.9999 66.0001Z" fill="#FF0000"/>
<path fill-rule="evenodd" clip-rule="evenodd" d="M51.9999 66.0001L47.9999 70.0001L48 72L49.9999 72.0001L53.9999 68.0001L54 66L51.9999 66.0001Z" fill="#FF0000"/>
<path fill-rule="evenodd" clip-rule="evenodd" d="M34.0001 24L30.0001 20L30.0002 18.0001L32.0001 18L36.0001 22L36.0002 24.0001L34.0001 24Z" fill="#FF0000"/>
<path fill-rule="evenodd" clip-rule="evenodd" d="M32.0001 24L36.0001 20L36 18.0001L34.0001 18L30.0001 22L30 24.0001L32.0001 24Z" fill="#FF0000"/>
<path fill-rule="evenodd" clip-rule="evenodd" d="M34.0001 72.0001L30.0001 76.0001L30.0002 78L32.0001 78.0001L36.0001 74.0001L36.0002 72L34.0001 72.0001Z" fill="#FF0000"/>
<path fill-rule="evenodd" clip-rule="evenodd" d="M32.0001 72.0001L36.0001 76.0001L36 78L34.0001 78.0001L30.0001 74.0001L30 72L32.0001 72.0001Z" fill="#FF0000"/>
<path fill-rule="evenodd" clip-rule="evenodd" d="M61.9999 24L65.9999 20L65.9998 18.0001L63.9999 18L59.9999 22L59.9998 24.0001L61.9999 24Z" fill="#FF0000"/>
<path fill-rule="evenodd" clip-rule="evenodd" d="M63.9999 24L59.9999 20L60 18.0001L61.9999 18L65.9999 22L66 24.0001L63.9999 24Z" fill="#FF0000"/>
<path fill-rule="evenodd" clip-rule="evenodd" d="M61.9999 72.0001L65.9999 76.0001L65.9998 78L63.9999 78.0001L59.9999 74.0001L59.9998 72L61.9999 72.0001Z" fill="#FF0000"/>
<path fill-rule="evenodd" clip-rule="evenodd" d="M63.9999 72.0001L59.9999 76.0001L60 78L61.9999 78.0001L65.9999 74.0001L66 72L63.9999 72.0001Z" fill="#FF0000"/>
<path fill-rule="evenodd" clip-rule="evenodd" d="M46.0001 24L42.0001 20L42.0002 18.0001L44.0001 18L48.0001 22L48.0002 24.0001L46.0001 24Z" fill="#FF0000"/>
<path fill-rule="evenodd" clip-rule="evenodd" d="M44.0001 24L48.0001 20L48 18.0001L46.0001 18L42.0001 22L42 24.0001L44.0001 24Z" fill="#FF0000"/>
<path fill-rule="evenodd" clip-rule="evenodd" d="M46.0001 72.0001L42.0001 76.0001L42.0002 78L44.0001 78.0001L48.0001 74.0001L48.0002 72L46.0001 72.0001Z" fill="#FF0000"/>
<path fill-rule="evenodd" clip-rule="evenodd" d="M44.0001 72.0001L48.0001 76.0001L48 78L46.0001 78.0001L42.0001 74.0001L42 72L44.0001 72.0001Z" fill="#FF0000"/>
<path fill-rule="evenodd" clip-rule="evenodd" d="M49.9999 24L53.9999 20L53.9998 18.0001L51.9999 18L47.9999 22L47.9998 24.0001L49.9999 24Z" fill="#FF0000"/>
<path fill-rule="evenodd" clip-rule="evenodd" d="M51.9999 24L47.9999 20L48 18.0001L49.9999 18L53.9999 22L54 24.0001L51.9999 24Z" fill="#FF0000"/>
<path fill-rule="evenodd" clip-rule="evenodd" d="M49.9999 72.0001L53.9999 76.0001L53.9998 78L51.9999 78.0001L47.9999 74.0001L47.9998 72L49.9999 72.0001Z" fill="#FF0000"/>
<path fill-rule="evenodd" clip-rule="evenodd" d="M51.9999 72.0001L47.9999 76.0001L48 78L49.9999 78.0001L53.9999 74.0001L54 72L51.9999 72.0001Z" fill="#FF0000"/>
<path fill-rule="evenodd" clip-rule="evenodd" d="M34.0001 18L30.0001 14L30.0002 12.0001L32.0001 12L36.0001 16L36.0002 18.0001L34.0001 18Z" fill="#FF0000"/>
<path fill-rule="evenodd" clip-rule="evenodd" d="M32.0001 18L36.0001 14L36 12.0001L34.0001 12L30.0001 16L30 18.0001L32.0001 18Z" fill="#FF0000"/>
<path fill-rule="evenodd" clip-rule="evenodd" d="M34.0001 78.0001L30.0001 82.0001L30.0002 84L32.0001 84.0001L36.0001 80.0001L36.0002 78L34.0001 78.0001Z" fill="#FF0000"/>
<path fill-rule="evenodd" clip-rule="evenodd" d="M32.0001 78.0001L36.0001 82.0001L36 84L34.0001 84.0001L30.0001 80.0001L30 78L32.0001 78.0001Z" fill="#FF0000"/>
<path fill-rule="evenodd" clip-rule="evenodd" d="M61.9999 18L65.9999 14L65.9998 12.0001L63.9999 12L59.9999 16L59.9998 18.0001L61.9999 18Z" fill="#FF0000"/>
<path fill-rule="evenodd" clip-rule="evenodd" d="M63.9999 18L59.9999 14L60 12.0001L61.9999 12L65.9999 16L66 18.0001L63.9999 18Z" fill="#FF0000"/>
<path fill-rule="evenodd" clip-rule="evenodd" d="M61.9999 78.0001L65.9999 82.0001L65.9998 84L63.9999 84.0001L59.9999 80.0001L59.9998 78L61.9999 78.0001Z" fill="#FF0000"/>
<path fill-rule="evenodd" clip-rule="evenodd" d="M63.9999 78.0001L59.9999 82.0001L60 84L61.9999 84.0001L65.9999 80.0001L66 78L63.9999 78.0001Z" fill="#FF0000"/>
<path fill-rule="evenodd" clip-rule="evenodd" d="M40.0001 18L36.0001 14L36.0002 12.0001L38.0001 12L42.0001 16L42.0002 18.0001L40.0001 18Z" fill="#FF0000"/>
<path fill-rule="evenodd" clip-rule="evenodd" d="M38.0001 18L42.0001 14L42 12.0001L40.0001 12L36.0001 16L36 18.0001L38.0001 18Z" fill="#FF0000"/>
<path fill-rule="evenodd" clip-rule="evenodd" d="M40.0001 78.0001L36.0001 82.0001L36.0002 84L38.0001 84.0001L42.0001 80.0001L42.0002 78L40.0001 78.0001Z" fill="#FF0000"/>
<path fill-rule="evenodd" clip-rule="evenodd" d="M38.0001 78.0001L42.0001 82.0001L42 84L40.0001 84.0001L36.0001 80.0001L36 78L38.0001 78.0001Z" fill="#FF0000"/>
<path fill-rule="evenodd" clip-rule="evenodd" d="M55.9999 18L59.9999 14L59.9998 12.0001L57.9999 12L53.9999 16L53.9998 18.0001L55.9999 18Z" fill="#FF0000"/>
<path fill-rule="evenodd" clip-rule="evenodd" d="M57.9999 18L53.9999 14L54 12.0001L55.9999 12L59.9999 16L60 18.0001L57.9999 18Z" fill="#FF0000"/>
<path fill-rule="evenodd" clip-rule="evenodd" d="M55.9999 78.0001L59.9999 82.0001L59.9998 84L57.9999 84.0001L53.9999 80.0001L53.9998 78L55.9999 78.0001Z" fill="#FF0000"/>
<path fill-rule="evenodd" clip-rule="evenodd" d="M57.9999 78.0001L53.9999 82.0001L54 84L55.9999 84.0001L59.9999 80.0001L60 78L57.9999 78.0001Z" fill="#FF0000"/>
<path fill-rule="evenodd" clip-rule="evenodd" d="M46.0001 18L42.0001 14L42.0002 12.0001L44.0001 12L48.0001 16L48.0002 18.0001L46.0001 18Z" fill="#FF0000"/>
<path fill-rule="evenodd" clip-rule="evenodd" d="M44.0001 18L48.0001 14L48 12.0001L46.0001 12L42.0001 16L42 18.0001L44.0001 18Z" fill="#FF0000"/>
<path fill-rule="evenodd" clip-rule="evenodd" d="M46.0001 78.0001L42.0001 82.0001L42.0002 84L44.0001 84.0001L48.0001 80.0001L48.0002 78L46.0001 78.0001Z" fill="#FF0000"/>
<path fill-rule="evenodd" clip-rule="evenodd" d="M44.0001 78.0001L48.0001 82.0001L48 84L46.0001 84.0001L42.0001 80.0001L42 78L44.0001 78.0001Z" fill="#FF0000"/>
<path fill-rule="evenodd" clip-rule="evenodd" d="M49.9999 18L53.9999 14L53.9998 12.0001L51.9999 12L47.9999 16L47.9998 18.0001L49.9999 18Z" fill="#FF0000"/>
<path fill-rule="evenodd" clip-rule="evenodd" d="M51.9999 18L47.9999 14L48 12.0001L49.9999 12L53.9999 16L54 18.0001L51.9999 18Z" fill="#FF0000"/>
<path fill-rule="evenodd" clip-rule="evenodd" d="M49.9999 78.0001L53.9999 82.0001L53.9998 84L51.9999 84.0001L47.9999 80.0001L47.9998 78L49.9999 78.0001Z" fill="#FF0000"/>
<path fill-rule="evenodd" clip-rule="evenodd" d="M51.9999 78.0001L47.9999 82.0001L48 84L49.9999 84.0001L53.9999 80.0001L54 78L51.9999 78.0001Z" fill="#FF0000"/>
<path fill-rule="evenodd" clip-rule="evenodd" d="M34.0001 36L30.0001 32L30.0002 30.0001L32.0001 30L36.0001 34L36.0002 36.0001L34.0001 36Z" fill="#FF0000"/>
<path fill-rule="evenodd" clip-rule="evenodd" d="M32.0001 36L36.0001 32L36 30.0001L34.0001 30L30.0001 34L30 36.0001L32.0001 36Z" fill="#FF0000"/>
<path fill-rule="evenodd" clip-rule="evenodd" d="M34.0001 60.0001L30.0001 64.0001L30.0002 66L32.0001 66.0001L36.0001 62.0001L36.0002 60L34.0001 60.0001Z" fill="#FF0000"/>
<path fill-rule="evenodd" clip-rule="evenodd" d="M32.0001 60.0001L36.0001 64.0001L36 66L34.0001 66.0001L30.0001 62.0001L30 60L32.0001 60.0001Z" fill="#FF0000"/>
<path fill-rule="evenodd" clip-rule="evenodd" d="M61.9999 36L65.9999 32L65.9998 30.0001L63.9999 30L59.9999 34L59.9998 36.0001L61.9999 36Z" fill="#FF0000"/>
<path fill-rule="evenodd" clip-rule="evenodd" d="M63.9999 36L59.9999 32L60 30.0001L61.9999 30L65.9999 34L66 36.0001L63.9999 36Z" fill="#FF0000"/>
<path fill-rule="evenodd" clip-rule="evenodd" d="M61.9999 60.0001L65.9999 64.0001L65.9998 66L63.9999 66.0001L59.9999 62.0001L59.9998 60L61.9999 60.0001Z" fill="#FF0000"/>
<path fill-rule="evenodd" clip-rule="evenodd" d="M63.9999 60.0001L59.9999 64.0001L60 66L61.9999 66.0001L65.9999 62.0001L66 60L63.9999 60.0001Z" fill="#FF0000"/>
<path fill-rule="evenodd" clip-rule="evenodd" d="M22.0001 18L18.0001 14L18.0002 12.0001L20.0001 12L24.0001 16L24.0002 18.0001L22.0001 18Z" fill="#FF0000"/>
<path fill-rule="evenodd" clip-rule="evenodd" d="M20.0001 18L24.0001 14L24 12.0001L22.0001 12L18.0001 16L18 18.0001L20.0001 18Z" fill="#FF0000"/>
<path fill-rule="evenodd" clip-rule="evenodd" d="M22.0001 78.0001L18.0001 82.0001L18.0002 84L20.0001 84.0001L24.0001 80.0001L24.0002 78L22.0001 78.0001Z" fill="#FF0000"/>
<path fill-rule="evenodd" clip-rule="evenodd" d="M20.0001 78.0001L24.0001 82.0001L24 84L22.0001 84.0001L18.0001 80.0001L18 78L20.0001 78.0001Z" fill="#FF0000"/>
<path fill-rule="evenodd" clip-rule="evenodd" d="M73.9999 18L77.9999 14L77.9998 12.0001L75.9999 12L71.9999 16L71.9998 18.0001L73.9999 18Z" fill="#FF0000"/>
<path fill-rule="evenodd" clip-rule="evenodd" d="M75.9999 18L71.9999 14L72 12.0001L73.9999 12L77.9999 16L78 18.0001L75.9999 18Z" fill="#FF0000"/>
<path fill-rule="evenodd" clip-rule="evenodd" d="M73.9999 78.0001L77.9999 82.0001L77.9998 84L75.9999 84.0001L71.9999 80.0001L71.9998 78L73.9999 78.0001Z" fill="#FF0000"/>
<path fill-rule="evenodd" clip-rule="evenodd" d="M75.9999 78.0001L71.9999 82.0001L72 84L73.9999 84.0001L77.9999 80.0001L78 78L75.9999 78.0001Z" fill="#FF0000"/>
<path fill-rule="evenodd" clip-rule="evenodd" d="M10.0001 30L6.00011 26L6.00023 24.0001L8.00011 24L12.0001 28L12.0002 30.0001L10.0001 30Z" fill="black"/>
<path fill-rule="evenodd" clip-rule="evenodd" d="M8.00011 30L12.0001 26L12 24.0001L10.0001 24L6.00011 28L6 30.0001L8.00011 30Z" fill="black"/>
<path fill-rule="evenodd" clip-rule="evenodd" d="M10.0001 66.0001L6.00011 70.0001L6.00023 72L8.00011 72.0001L12.0001 68.0001L12.0002 66L10.0001 66.0001Z" fill="black"/>
<path fill-rule="evenodd" clip-rule="evenodd" d="M8.00011 66.0001L12.0001 70.0001L12 72L10.0001 72.0001L6.00011 68.0001L6 66L8.00011 66.0001Z" fill="black"/>
<path fill-rule="evenodd" clip-rule="evenodd" d="M85.9999 30L89.9999 26L89.9998 24.0001L87.9999 24L83.9999 28L83.9998 30.0001L85.9999 30Z" fill="black"/>
<path fill-rule="evenodd" clip-rule="evenodd" d="M87.9999 30L83.9999 26L84 24.0001L85.9999 24L89.9999 28L90 30.0001L87.9999 30Z" fill="black"/>
<path fill-rule="evenodd" clip-rule="evenodd" d="M85.9999 66.0001L89.9999 70.0001L89.9998 72L87.9999 72.0001L83.9999 68.0001L83.9998 66L85.9999 66.0001Z" fill="black"/>
<path fill-rule="evenodd" clip-rule="evenodd" d="M87.9999 66.0001L83.9999 70.0001L84 72L85.9999 72.0001L89.9999 68.0001L90 66L87.9999 66.0001Z" fill="black"/>
<path fill-rule="evenodd" clip-rule="evenodd" d="M28.0001 12L24.0001 8L24.0002 6.00011L26.0001 6L30.0001 10L30.0002 12.0001L28.0001 12Z" fill="black"/>
<path fill-rule="evenodd" clip-rule="evenodd" d="M26.0001 12L30.0001 8L30 6.00011L28.0001 6L24.0001 10L24 12.0001L26.0001 12Z" fill="black"/>
<path fill-rule="evenodd" clip-rule="evenodd" d="M28.0001 84.0001L24.0001 88.0001L24.0002 90L26.0001 90.0001L30.0001 86.0001L30.0002 84L28.0001 84.0001Z" fill="black"/>
<path fill-rule="evenodd" clip-rule="evenodd" d="M26.0001 84.0001L30.0001 88.0001L30 90L28.0001 90.0001L24.0001 86.0001L24 84L26.0001 84.0001Z" fill="black"/>
<path fill-rule="evenodd" clip-rule="evenodd" d="M67.9999 12L71.9999 8L71.9998 6.00011L69.9999 6L65.9999 10L65.9998 12.0001L67.9999 12Z" fill="black"/>
<path fill-rule="evenodd" clip-rule="evenodd" d="M69.9999 12L65.9999 8L66 6.00011L67.9999 6L71.9999 10L72 12.0001L69.9999 12Z" fill="black"/>
<path fill-rule="evenodd" clip-rule="evenodd" d="M67.9999 84.0001L71.9999 88.0001L71.9998 90L69.9999 90.0001L65.9999 86.0001L65.9998 84L67.9999 84.0001Z" fill="black"/>
<path fill-rule="evenodd" clip-rule="evenodd" d="M69.9999 84.0001L65.9999 88.0001L66 90L67.9999 90.0001L71.9999 86.0001L72 84L69.9999 84.0001Z" fill="black"/>
<path fill-rule="evenodd" clip-rule="evenodd" d="M28.0001 42L24.0001 38L24.0002 36.0001L26.0001 36L30.0001 40L30.0002 42.0001L28.0001 42Z" fill="black"/>
<path fill-rule="evenodd" clip-rule="evenodd" d="M26.0001 42L30.0001 38L30 36.0001L28.0001 36L24.0001 40L24 42.0001L26.0001 42Z" fill="black"/>
<path fill-rule="evenodd" clip-rule="evenodd" d="M28.0001 54.0001L24.0001 58.0001L24.0002 60L26.0001 60.0001L30.0001 56.0001L30.0002 54L28.0001 54.0001Z" fill="black"/>
<path fill-rule="evenodd" clip-rule="evenodd" d="M26.0001 54.0001L30.0001 58.0001L30 60L28.0001 60.0001L24.0001 56.0001L24 54L26.0001 54.0001Z" fill="black"/>
<path fill-rule="evenodd" clip-rule="evenodd" d="M67.9999 42L71.9999 38L71.9998 36.0001L69.9999 36L65.9999 40L65.9998 42.0001L67.9999 42Z" fill="black"/>
<path fill-rule="evenodd" clip-rule="evenodd" d="M69.9999 42L65.9999 38L66 36.0001L67.9999 36L71.9999 40L72 42.0001L69.9999 42Z" fill="black"/>
<path fill-rule="evenodd" clip-rule="evenodd" d="M67.9999 54.0001L71.9999 58.0001L71.9998 60L69.9999 60.0001L65.9999 56.0001L65.9998 54L67.9999 54.0001Z" fill="black"/>
<path fill-rule="evenodd" clip-rule="evenodd" d="M69.9999 54.0001L65.9999 58.0001L66 60L67.9999 60.0001L71.9999 56.0001L72 54L69.9999 54.0001Z" fill="black"/>
<path fill-rule="evenodd" clip-rule="evenodd" d="M40.0001 42L36.0001 38L36.0002 36.0001L38.0001 36L42.0001 40L42.0002 42.0001L40.0001 42Z" fill="black"/>
<path fill-rule="evenodd" clip-rule="evenodd" d="M38.0001 42L42.0001 38L42 36.0001L40.0001 36L36.0001 40L36 42.0001L38.0001 42Z" fill="black"/>
<path fill-rule="evenodd" clip-rule="evenodd" d="M40.0001 54.0001L36.0001 58.0001L36.0002 60L38.0001 60.0001L42.0001 56.0001L42.0002 54L40.0001 54.0001Z" fill="black"/>
<path fill-rule="evenodd" clip-rule="evenodd" d="M38.0001 54.0001L42.0001 58.0001L42 60L40.0001 60.0001L36.0001 56.0001L36 54L38.0001 54.0001Z" fill="black"/>
<path fill-rule="evenodd" clip-rule="evenodd" d="M55.9999 42L59.9999 38L59.9998 36.0001L57.9999 36L53.9999 40L53.9998 42.0001L55.9999 42Z" fill="black"/>
<path fill-rule="evenodd" clip-rule="evenodd" d="M57.9999 42L53.9999 38L54 36.0001L55.9999 36L59.9999 40L60 42.0001L57.9999 42Z" fill="black"/>
<path fill-rule="evenodd" clip-rule="evenodd" d="M55.9999 54.0001L59.9999 58.0001L59.9998 60L57.9999 60.0001L53.9999 56.0001L53.9998 54L55.9999 54.0001Z" fill="black"/>
<path fill-rule="evenodd" clip-rule="evenodd" d="M57.9999 54.0001L53.9999 58.0001L54 60L55.9999 60.0001L59.9999 56.0001L60 54L57.9999 54.0001Z" fill="black"/>
<path fill-rule="evenodd" clip-rule="evenodd" d="M40.0001 30L36.0001 26L36.0002 24.0001L38.0001 24L42.0001 28L42.0002 30.0001L40.0001 30Z" fill="black"/>
<path fill-rule="evenodd" clip-rule="evenodd" d="M38.0001 30L42.0001 26L42 24.0001L40.0001 24L36.0001 28L36 30.0001L38.0001 30Z" fill="black"/>
<path fill-rule="evenodd" clip-rule="evenodd" d="M40.0001 66.0001L36.0001 70.0001L36.0002 72L38.0001 72.0001L42.0001 68.0001L42.0002 66L40.0001 66.0001Z" fill="black"/>
<path fill-rule="evenodd" clip-rule="evenodd" d="M38.0001 66.0001L42.0001 70.0001L42 72L40.0001 72.0001L36.0001 68.0001L36 66L38.0001 66.0001Z" fill="black"/>
<path fill-rule="evenodd" clip-rule="evenodd" d="M55.9999 30L59.9999 26L59.9998 24.0001L57.9999 24L53.9999 28L53.9998 30.0001L55.9999 30Z" fill="black"/>
<path fill-rule="evenodd" clip-rule="evenodd" d="M57.9999 30L53.9999 26L54 24.0001L55.9999 24L59.9999 28L60 30.0001L57.9999 30Z" fill="black"/>
<path fill-rule="evenodd" clip-rule="evenodd" d="M55.9999 66.0001L59.9999 70.0001L59.9998 72L57.9999 72.0001L53.9999 68.0001L53.9998 66L55.9999 66.0001Z" fill="black"/>
<path fill-rule="evenodd" clip-rule="evenodd" d="M57.9999 66.0001L53.9999 70.0001L54 72L55.9999 72.0001L59.9999 68.0001L60 66L57.9999 66.0001Z" fill="black"/>
<path fill-rule="evenodd" clip-rule="evenodd" d="M46.0001 36L42.0001 32L42.0002 30.0001L44.0001 30L48.0001 34L48.0002 36.0001L46.0001 36Z" fill="black"/>
<path fill-rule="evenodd" clip-rule="evenodd" d="M44.0001 36L48.0001 32L48 30.0001L46.0001 30L42.0001 34L42 36.0001L44.0001 36Z" fill="black"/>
<path fill-rule="evenodd" clip-rule="evenodd" d="M46.0001 60.0001L42.0001 64.0001L42.0002 66L44.0001 66.0001L48.0001 62.0001L48.0002 60L46.0001 60.0001Z" fill="black"/>
<path fill-rule="evenodd" clip-rule="evenodd" d="M44.0001 60.0001L48.0001 64.0001L48 66L46.0001 66.0001L42.0001 62.0001L42 60L44.0001 60.0001Z" fill="black"/>
<path fill-rule="evenodd" clip-rule="evenodd" d="M49.9999 36L53.9999 32L53.9998 30.0001L51.9999 30L47.9999 34L47.9998 36.0001L49.9999 36Z" fill="black"/>
<path fill-rule="evenodd" clip-rule="evenodd" d="M51.9999 36L47.9999 32L48 30.0001L49.9999 30L53.9999 34L54 36.0001L51.9999 36Z" fill="black"/>
<path fill-rule="evenodd" clip-rule="evenodd" d="M49.9999 60.0001L53.9999 64.0001L53.9998 66L51.9999 66.0001L47.9999 62.0001L47.9998 60L49.9999 60.0001Z" fill="black"/>
<path fill-rule="evenodd" clip-rule="evenodd" d="M51.9999 60.0001L47.9999 64.0001L48 66L49.9999 66.0001L53.9999 62.0001L54 60L51.9999 60.0001Z" fill="black"/>
<path fill-rule="evenodd" clip-rule="evenodd" d="M34.0001 48L30.0001 44L30.0002 42.0001L32.0001 42L36.0001 46L36.0002 48.0001L34.0001 48Z" fill="black"/>
<path fill-rule="evenodd" clip-rule="evenodd" d="M32.0001 48L36.0001 44L36 42.0001L34.0001 42L30.0001 46L30 48.0001L32.0001 48Z" fill="black"/>
<path fill-rule="evenodd" clip-rule="evenodd" d="M34.0001 48.0001L30.0001 52.0001L30.0002 54L32.0001 54.0001L36.0001 50.0001L36.0002 48L34.0001 48.0001Z" fill="black"/>
<path fill-rule="evenodd" clip-rule="evenodd" d="M32.0001 48.0001L36.0001 52.0001L36 54L34.0001 54.0001L30.0001 50.0001L30 48L32.0001 48.0001Z" fill="black"/>
<path fill-rule="evenodd" clip-rule="evenodd" d="M61.9999 48L65.9999 44L65.9998 42.0001L63.9999 42L59.9999 46L59.9998 48.0001L61.9999 48Z" fill="black"/>
<path fill-rule="evenodd" clip-rule="evenodd" d="M63.9999 48L59.9999 44L60 42.0001L61.9999 42L65.9999 46L66 48.0001L63.9999 48Z" fill="black"/>
<path fill-rule="evenodd" clip-rule="evenodd" d="M61.9999 48.0001L65.9999 52.0001L65.9998 54L63.9999 54.0001L59.9999 50.0001L59.9998 48L61.9999 48.0001Z" fill="black"/>
<path fill-rule="evenodd" clip-rule="evenodd" d="M63.9999 48.0001L59.9999 52.0001L60 54L61.9999 54.0001L65.9999 50.0001L66 48L63.9999 48.0001Z" fill="black"/>
</svg>
