<svg width="40" height="40" viewBox="0 0 40 40" fill="none" xmlns="http://www.w3.org/2000/svg">
<path fill-rule="evenodd" clip-rule="evenodd" d="M6.66668 9.58358C6.66668 7.05228 8.71875 5.00024 11.2501 5.00024H23.7503C26.2817 5.00024 28.3337 7.05228 28.3337 9.58358V23.9647C28.3443 24.0306 28.35 24.0981 28.35 24.1669V27.0919C28.35 28.2379 29.279 29.1669 30.425 29.1669C31.571 29.1669 32.5 28.2379 32.5 27.0919V17.3614C32.5 16.9106 32.3538 16.472 32.0833 16.1114L30.25 13.6669C29.8357 13.1146 29.9477 12.3311 30.5 11.9169C31.0522 11.5027 31.8357 11.6146 32.25 12.1669L34.0833 14.6114C34.6783 15.4047 35 16.3697 35 17.3614V27.0919C35 29.6186 32.9517 31.6669 30.425 31.6669C29.6715 31.6669 28.9605 31.4847 28.3337 31.1621V34.1669H28.7503C29.4407 34.1669 30.0003 34.7266 30.0003 35.4169C30.0003 36.1072 29.4407 36.6669 28.7503 36.6669H6.25002C5.55965 36.6669 5 36.1072 5 35.4169C5 34.7266 5.55965 34.1669 6.25002 34.1669H6.66668V9.58358ZM11.667 11.2502C11.667 10.5599 12.2267 10.0002 12.917 10.0002H22.0837C22.7742 10.0002 23.3337 10.5599 23.3337 11.2502V18.7502C23.3337 19.4406 22.7742 20.0002 22.0837 20.0002H12.917C12.2267 20.0002 11.667 19.4406 11.667 18.7502V11.2502Z" fill="#FFD500"/>
</svg>
