<svg width="40" height="40" viewBox="0 0 40 40" fill="none" xmlns="http://www.w3.org/2000/svg">
<path fill-rule="evenodd" clip-rule="evenodd" d="M32.829 4.18666C34.2705 4.63403 35.3993 5.76243 35.8473 7.20376L36.1913 8.31095C37.4315 12.3012 36.3578 16.6501 33.4032 19.6047L31.74 21.268C33.4523 23.5507 33.2702 26.8042 31.1938 28.8805L29.123 30.9515C28.6348 31.4395 27.8433 31.4395 27.3552 30.9515L24.7058 28.3022L24.4112 28.5967C23.2722 29.7358 21.4255 29.7358 20.2865 28.5967L19.4578 27.7682L18.128 30.093C17.9345 30.431 17.5947 30.6597 17.2085 30.7113C16.8225 30.7628 16.4344 30.6315 16.159 30.3562L9.67719 23.8743C9.40159 23.5987 9.27031 23.2103 9.32221 22.824C9.37409 22.4377 9.60321 22.0977 9.94179 21.9047L12.2677 20.578L11.4421 19.7525C10.3031 18.6135 10.3031 16.7667 11.4421 15.6277L11.7418 15.328L9.09021 12.6764C8.60204 12.1882 8.60204 11.3967 9.09021 10.9086L11.1611 8.83771C13.2383 6.76051 16.4934 6.57911 18.7763 8.29351L20.436 6.63371C23.3897 3.6802 27.7363 2.60616 31.7255 3.84421L32.829 4.18666ZM29.426 27.1128C30.5228 26.016 30.694 24.3443 29.9398 23.0682L26.4737 26.5343L28.239 28.2998L29.426 27.1128ZM16.9763 10.0934C15.6998 9.33728 14.0264 9.50796 12.9289 10.6055L11.7419 11.7925L13.5096 13.5602L16.9763 10.0934ZM16.7702 27.4317L17.6257 25.936L14.1005 22.4108L12.6032 23.2648L16.7702 27.4317ZM11.1495 28.8893C11.6376 29.3775 11.6376 30.169 11.1495 30.6572L7.02466 34.782C6.53651 35.2702 5.74506 35.2702 5.25689 34.782C4.76874 34.2938 4.76874 33.5023 5.25689 33.0142L9.38169 28.8893C9.86984 28.4012 10.6613 28.4012 11.1495 28.8893ZM7.90849 27.4163C8.39664 26.9282 8.39664 26.1367 7.90849 25.6485C7.42033 25.1603 6.62888 25.1603 6.14073 25.6485L4.37296 27.4163C3.88479 27.9043 3.88479 28.6958 4.37296 29.184C4.86111 29.6722 5.65256 29.6722 6.14073 29.184L7.90849 27.4163ZM14.387 32.1338C14.8751 32.622 14.8751 33.4133 14.387 33.9015L12.6226 35.6658C12.1345 36.154 11.343 36.154 10.8549 35.6658C10.3667 35.1777 10.3667 34.3862 10.8549 33.898L12.6192 32.1338C13.1074 31.6457 13.8989 31.6457 14.387 32.1338ZM27.6539 12.3847C26.0267 10.7575 23.3886 10.7575 21.7614 12.3847C20.1342 14.0119 20.1342 16.6501 21.7614 18.2772C23.3886 19.9044 26.0267 19.9044 27.6539 18.2772C29.2811 16.6501 29.2811 14.0119 27.6539 12.3847Z" fill="#FFD500"/>
</svg>
