<svg width="40" height="40" viewBox="0 0 40 40" fill="none" xmlns="http://www.w3.org/2000/svg">
<g clip-path="url(#clip0_109_633)">
<path fill-rule="evenodd" clip-rule="evenodd" d="M1 0.000244141C0.447715 0.000244141 0 0.44796 0 1.00024V9.00024C0 9.55253 0.447716 10.0002 1 10.0002H23C23.5523 10.0002 24 9.55253 24 9.00024V1.00024C24 0.447959 23.5523 0.000244141 23 0.000244141H1ZM0 14.0002C0 13.448 0.447715 13.0002 1 13.0002H12C12.5523 13.0002 13 13.448 13 14.0002V22.0002C13 22.5525 12.5523 23.0002 12 23.0002H1C0.447715 23.0002 0 22.5525 0 22.0002V14.0002ZM0 27.0002C0 26.448 0.447715 26.0002 1 26.0002H23C23.5523 26.0002 24 26.448 24 27.0002V35.0002C24 35.5525 23.5523 36.0002 23 36.0002H1C0.447716 36.0002 0 35.5525 0 35.0002V27.0002ZM27 27.0002C27 26.448 27.4477 26.0002 28 26.0002H39C39.5523 26.0002 40 26.448 40 27.0002V35.0002C40 35.5525 39.5523 36.0002 39 36.0002H28C27.4477 36.0002 27 35.5525 27 35.0002V27.0002ZM17 13.0002C16.4477 13.0002 16 13.448 16 14.0002V22.0002C16 22.5525 16.4477 23.0002 17 23.0002H39C39.5523 23.0002 40 22.5525 40 22.0002V14.0002C40 13.448 39.5523 13.0002 39 13.0002H17Z" fill="#FFD500"/>
</g>
<defs>
<clipPath id="clip0_109_633">
<rect width="40" height="40" fill="white" transform="translate(0 0.000244141)"/>
</clipPath>
</defs>
</svg>
